/* XPM */
static char *a9a37bc1ed4f4311bace0a020574861cNLrvouPtvcL42Qcz[] = {
/* columns rows colors chars-per-pixel */
"128 128 69 1 ",
"  c black",
". c #1A0A01",
"X c #170F0A",
"o c #18100C",
"O c gray9",
"+ c #181717",
"@ c #171819",
"# c #191919",
"$ c #1C1B1B",
"% c gray11",
"& c #311402",
"* c #2C1D15",
"= c #302219",
"- c #2B2B2C",
"; c #2E2E2F",
": c #353434",
"> c #43311B",
", c #4E371B",
"< c #8E5B1E",
"1 c #B74806",
"2 c #97611F",
"3 c #98611F",
"4 c #A2671F",
"5 c #A3681F",
"6 c #CF5206",
"7 c #E35A07",
"8 c #E65B07",
"9 c #E85C07",
"0 c #EA5C07",
"q c #CD601E",
"w c #E4691F",
"e c #9F6746",
"r c #A16847",
"t c #B3734E",
"y c #B3744F",
"u c #B4754F",
"i c #B47D5C",
"p c #B87F5E",
"a c #CA8257",
"s c #CB8358",
"d c #CC845A",
"f c #CB8C67",
"g c #CB8D68",
"h c #CD8E68",
"j c #D1916B",
"k c #CD9575",
"l c #A9A9AA",
"z c #ABABAD",
"x c #ACACAD",
"c c #BDB6B3",
"v c #C2BFBF",
"b c #D2C3BC",
"n c #BEBEC0",
"m c #C0C0C2",
"M c #C4C1C1",
"N c #D6C8C1",
"B c #D9C9C1",
"V c #D6CDCA",
"C c #D6CFCC",
"Z c #D4D4D6",
"A c #DBD7D7",
"S c #D7D7D9",
"D c #D7D8DB",
"F c #D8D8DA",
"G c #DCD9D9",
"H c #DADADC",
"J c #F4E8E3",
"K c #F7F3F3",
"L c #FBF7F7",
/* pixels */
">>>>>>>>>>>>>>>>>>>>>>>>>>>>>>>>>>>>>>>>>>>>>>>>>>>>>>>>>>>>>>>>>>>>>>>>>>>>>>>>>>>>>>>>>>>>>>>>>>>>>>>>>>>>>>>>>>>>>>>>>>>>>>>>",
">>>>>>>>>>>>>>>>>>>>>>>>>>>>>>>>>>>>>>>>>>>>>>>>>>>>>>>>>>>>>>>>>>>>>>>>>>>>>>>>>>>>>>>>>>>>>>>>>>>>>>>>>>>>>>>>>>>>>>>>>>>>>>>>",
">>>>>>>>>>>>>>>>>>>>>>>>>>>>>>>>>>>>>>>>>>>>>>>>>>>>>>>>>>>>>>>>>>>>>>>>>>>>>>>>>>>>>>>>>>>>>>>>>>>>>>>>>>>>>>>>>>>>>>>>>>>>>>>>",
",,,,,,,,,,,,,,,,,,,,,,,,,,,,,,,,,,,,,,,,,,,,,,,,,,,,,,,,,,,,,,,,,,,,,,,,,,,,>>>>,,,,,,,,,,,,,,,,,,,,,,,,,,,,,,,,,,,,,,,,,,,,>>>>",
"232222223222222222222222222222222222222222222222222222222222222222222222222<,>>,<322222222222222222222222222222222222222222<,>>>",
"4444444445544545444444454544444445544545444445455454444454455454444444455452,>>,35455454444445455454444454455454444454545452,>>>",
"4444444444444444444444444444444444444444444444444444444444444444444444444442,>>,25444444444444444444444444444444444444444442,>>>",
"4444444444444444444444444444444444444444444444444444444444444444444444444442,>>,24444444444444444444444444444444444444444442,>>>",
"4444444444444444444444444444444444444444444444444444444444444444444444444452,>>,25444444444444444444444444444444444444444452,>>>",
"4444444444444444444444444444444444444444444444444444444444444444444444444442,>>,24444444444444444444444444444444444444444442,>>>",
"4444444444444444444444444444444444444444444444444444444444444444444444444442,>>,25444444444444444444444444444444444444444442,>>>",
"4444444444444444444444444444444444444444444444444444444444444444444444444452,>>,24444444444444444444444444444444444444444452,>>>",
"4444444444444444444444444444444444444444444444444444444444444444444444444442,>>,25444444444444444444444444444444444444444442,>>>",
"4444444444444444444444444444444444444444444444444444444444444444444444444442,>>,24444444444444444444444444444444444444444442,>>>",
"4444444444444444444444444444444444444444444444444444444444444444444444444442,>>,25444444444444444444444444444444444444444442,>>>",
"4444444444444444444444444444444444444444444444444444444444444444444444444442,>>,24444444444444444444444444444444444444444442,>>>",
"4444444444444444444444444444444444444444444444444444444444444444444444444452,>>,24444444444444444444444444444444444444444452,>>>",
"4444444444444444444444444444444444444444444444444444444444444444444444444442,>>,24444444444444444444444444444444444444444442,>>>",
"4444444444444444444444444444444444444444444444444444444444444444444444444452,>>,24444444444444444444444444444444444444444442,>>>",
"4444444444444444444444444444444444444444444444444444444444444444444444444442,>>,24444444444444444444444444444444444444444452,>>>",
"4444444444444444444444444444444444444444444444444444444444444444444444444452,>>,25444444444444444444444444444444444444444442,>>>",
"4444444444444444444444444444444444444444444444444444444444444444444444444442,>>,24444444444444444444444444444444444444444452,>>>",
"4554544545444444545454545454455454444444545454544554544545444444545445444442,>>,25455445544544445445455454454444454545454542,>>>",
"222222222222222222222222222222222222222222222222222222222222222222222222222<,>>,<322222222222222222222222222222222222222222<,>>>",
",,,,,,,,,,,,,,,,,,,,,,,,,,,,,,,,,,,,,,,,,,,,,,,,,,,,,,,,,,,,,,,,,,,,,,,,,,,,>>>>,,,,,,,,,,,,,,,,,,,,,,,,,,,,,,,,,,,,,,,,,,,,>>>>",
">>>>>>>>>>>>>>>>>>>>>>>>>>>>>>>>>>>>>>>>>>>>>>>>>>>>>>>>>>>>>>>>>>>>>>>>>>>>>>>>>>>>>>>>>>>>>>>>>>>>>>>>>>>>>>>>>>>>>>>>>>>>>>>>",
">>>>>>>>>>>>>>>>>>>>>>>>>>>>>>>>>>>>>>>>>>>>>>>    >>>>>>>>>>>>>>>>>>>>    >>>>>>>>>>>>>>>>>>>>>>>>>>>>>>>>>>>>>>>>>>>>>>>>>>>>>",
",,,,,,,,,,,,,,,,>>>>,,,,,,,,,,,,,,,,,,,,,,,,,,,    ,,,,,,,,,,,,,,,,,,,,    ,,,,,,,,,,,,,,,,,,,,,,,,,,,,,>>>>,,,,,,,,,,,,,,,,,,,,",
"222222223222232<,>>,<32222222222222222222222222    22222222222222222222    2222222222222222222222222222<,>>,<2222222222222222222",
"4544444445544442,>>,355445444444544554454444455....44444455445454444455....45454444445454444545445454452,>>,35544444544554544444",
"4444444444444442,>>,24444444444444444444444   .1661.   444444444444   .1661.   4444444444444444444444442,>>,25444444444444444444",
"4444444444444442,>>,25444444444444444444444   .6086.   444444444444   .6006.   4444444444444444444444442,>>,24444444444444444444",
"4444444444444452,>>,24444444444444444444444   .6806.   444444444444   .6086.   4444444444444444444444452,>>,24444444444444444444",
"4444444444444442,>>,24444444444444444444444   .6886&...444444444444...&6086.   4444444444444444444444442,>>,24444444444444444444",
"4444444444444452,>>,24444444444444444444444   .60876661.          .16667806.   4444444444444444444444452,>>,24444444444444444444",
"4444444444444442,>>,24444444444444444444444   .60880086.          .60808886.   4444444444444444444444442,>>,24444444444444444444",
"4444444444444452,>>,24444444444444444444444   .60888886.          .68888886.   4444444444444444444444452,>>,25444444444444444444",
"4444444444444442,>>,24444444444444444444444##@=qwwwwwwq=@########@=qwwwwwwq=@##4444444444444444444444442,>>,24444444444444444444",
"4444444444444452,>>,2544444444444444444   #zmnmNBBBBBBNmnnnvnnnnnnmNBBBBBBNmnmz#   444444444444444444452,>>,24444444444444444444",
"4444444444444442,>>,2444444444444444444   #mHFFFFDDDDDDFFFFFFFFFFFFDDDDDDDFFFHm#   444444444444444444442,>>,25444444444444444444",
"4444444444444452,>>,2444444444444444444   #nFSFFFFHFFFFSSSSSSSSSSSFFHFFFFFFSSFn#   444444444444444444452,>>,25444444444444444444",
"4444444444444442,>>,2444444444444444444   #nFSZmnnnnnnmZSSSSSSSSSSZmnnnnnnmZFFn#   444444444444444444442,>>,24444444444444444444",
"4444444444444452,>>,2444444444444444444   #nFFm;O####@;mFFSSSSSSSFm;+####+;mFFn#   444444444444444444452,>>,25444444444444444444",
"4444444444444442,>>,2444444444444444444   #nFHn#      #nFSSSSSFSSFn#      #nFHn#   444444444444444444442,>>,24444444444444444444",
"4444444444444452,>>,2444444444444444444   #nHFn#      #nFSFFFFFSSFn#      #nHFn#   444444444444444444442,>>,24444444444444444444",
"4444444444444442,>>,2544444444444444444##O;mFFm;O####O;mFSZmnnmZSFm;#####O;mFFm;O##444444444444444444452,>>,24444444444444444444",
"5454544554544553,>>,355445444444455   #xmnmZSSZmnnnnnnmZSFm;#O;mFSZmnnnnnnmZSFZmnmz#   54554444454545453,>>,25455445455445455445",
"222222222222223<,>>,<32222222222222   #mHFFSSSSFFFFFFFHFSFn#  #nFSFFFFFFFFFFSSSFFHm#   2222222222222223<,>>,<2222222222222222222",
",,,,,,,,,,,,,,,,>>>>,,,,,,,,,,,,,,,   #nFSSSSSSFSSSSSSSFFHn#  OmHFFFSSSSSSSSSSSSSFn#   ,,,,,,,,,,,,,,,,,>>>>,,,,,,,,,,,,,,,,,,,,",
">>>>>>>>>>>>>>>>>>>>>>>>>>>>>>>>>>>   #nFSSSSSSSSSSSSFZmnmz-OO;xmnmZFSSSSSSSSSSSSFn#   >>>>>>>>>>>>>>>>>>>>>>>>>>>>>>>>>>>>>>>>>",
">>>>>>>>>>>>>>>>>>>>>>>>>>>>>>>>>>>   #nFFSSSSSSSSSSSFm;OO;xmmx;OO;mFFSSSSSSSSSSSFn#   >>>>>>>>>>>>        >>>>>>>>>>>>>>>>>>>>>",
">>>>,,,,,,,,,,,,,,,,,,,,,,,,,,,,,,,   #nFSSSSSSSSSSSSFn#  #mHHm+  #nFSSSSSSSSSSSSFn#   >,,,,,,,,,,,        ,,,,,,,,,,,,,,,,,,,,,",
">>>,<222222222222222222222222222222   #nFSSSSSSSSSSSSFn#  #nFFn#  #nFSSSSSSSSSSSSFn#   ,<2222222222        222222222222222222222",
">>>,2444455445454544444445544545545###;mFSSSSSSSSSSSFFm;O#;mFFm;OO;mFSSSSSSSSSSSFFm;O##,24545454444$%$$%%%%445544444545445444444",
">>>,254444444444444444444444444   #zmnmZFSSSSSSSSSSSSSZmnnmZSFZmnnmZFSSSSSSSSSSSSSZmnmz#          %MGAAAAGM%   44444444444444444",
">>>,244444444444444444444444444   #mHFFSSSSSSSSSSSSSSSSFFFFFSSSFFFFSSSSSSSSSSSSSSSSFFHm#          %GLLKLLLG%   44444444444444444",
">>>,244444444444444444444444444   #nFFSSSSSSSSSSSSSSSSSSSSSSSSSSSSSSSSSSSSSSSSSSSSSSSFn#          %ALKKKLLG%   44444444444444444",
">>>,254444444444444444444444444   #nFSSSSSSSSSSSSSSSSSSSSSSSSSSSSSSSSSSSSSSSSSSSSSSSSFn#       #%%:GKKKGAGM%   44444444444444444",
">>>,244444444444444444444444444   #nFSSSSSSSSSSSSSSSSSSSSSSSSSSSSSSSSSSSSSSSSSSSSSSSSFn#      #vGAGKKKG:#%%444444444444444444444",
">>>,244444444444444444444444444   #nFSSSSSSSSSSSSSSSSSSSSSSSSSSSSSSSSSSSSSSSSSSSSSSSSFn#      %GLLKKKLA#   444444444444444444444",
">>>,244444444444444444444444444   #nFSSSSSSSSSSSSSSSSSSSSSSSSSSSSSSSSSSSSSSSSSSSSSSSSFn#      %GLKKKLLG%   444444444444444444444",
">>>,244444444444444444444444444   #nFSSSSSSSSSSSSSSSSSSSSSSSSSSSSSSSSSSSSSSSSSSSSSSSFFn#      %ALKKGAGv#   444444444444444444444",
">>>,244444444444444444444444444   #nFSSSSSSSSSSSSSSSSSSSSSSSSSSSSSSSSSSSSSSSSSSSSSSSSFn#      %ALLG:$%#    444444444444444444444",
">>>,244444444444444444444444444   #nFSSSSSSSSSSSSSSSSSSSSSSSSSSSSSSSSSSSSSSSSSSSSSSSSFn#      %AKLA%       444444444444444444444",
">>>,244444444444444444444444444   #nHSSSSSSSSSSSSSSSSSSSSSSSSSSSSSSSSSSSSSSSSSSSSSSSSFn#      %AKKA%       444444444444444444444",
">>>,244444444444444444444444444##O;mFSSSSSSSSSSSSSSSSSSSSSSSSSSSSSSSSSSSSSSSSSSSSSSSSHm;O#O   %ALLG%       444444444444444444444",
">>>,25445454444445454444545   #zmnmZFSSSSSSSSSSSSSSSSSSSSSSSSSSSSSSSSSSSSSSSSSSSSSSSSSZmnmlO  %ALKA%   5444445455445444445455445",
">>>,<3222222222222222222222   #mHFFSSSSSSSSSSSSSSSSSSSSSSSSSSSSSSSSSSSSSSSSSSSSSSSSSSSSFFHm#  %AKLA%   2222222222222222222222222",
">>>>,,,,,,,,,,,,,,,,,,,,,,,   #nFSSSSSSSSSSSSSSSSSSSSSSSSSSSSSSSSSSSSSSSSSSSSSSSSSSSSSSSSFn#  %ALKA%   ,,,,,,,,,,,,,,,,,,,,,,,,,",
">>>>>>>>>>>>>>>>>>>>>>>>>>>   #nFSSSSSSSSSSSSSSSSSSSSSSSSSSSSSSSSSSSSSSSSSSSSSSSSSSSSSSSSFn#  #AKLA%   >>>>>>>>>>>>>>>>>>>>>>>>>",
">>>>>>>>>>>>>>>>>>>>>>>>>>>   #nHSSSSSSSSSSSSSSSSSSSSSSSSSSSSSSSSSSSSSSSSSSSSSSSSSSSSSSSSFn#  %ALKA%   >>>>>>>>>>>>>>>>>>>>>>>>>",
",,,,,,,,,,,,,,,,,,,,,,,,,,,   #nFSSSSSSSSSSSSSSSSSSSSSSSSSSSSSSSSSSSSSSSSSSSSSSSSSSSSSSSSFn#  %ALLA%   ,,,,,,,,,,,,,,,,,,,,,,,,,",
"222222222222222222222222222   #nSSSSSSSSSSSSSSSSSSSSSSSSSSSSSSSSSSSSSSSSSSSSSSSSSSSSSSSSSFn#  %ALKA%   2222222222222222222222222",
"444445545445545444444554544   #nHSSSSSSSSSSSSSSSSSSSSSSSSSSSSSSSSSSSSSSSSSSSSSSSSSSSSSSSFFn#  %AKLA%   4544545545454545444444554",
"444444444444444444444444444   #nHSSSSSSSSSSSSSSSSSSSSSSSSSSSSSSSSSSSSSSSSSSSSSSSSSSSSSSSSFn#  %AKKA$   4444444444444444444444444",
"444444444444444444444444444   #nSSSSSSSSSSSSSSSSSSSSSSSSSSSSSSSSSSSSSSSSSSSSSSSSSSSSSSSSSFn#  %ALLA%   4444444444444444444444444",
"444444444444444444444444444   #nHSSSSSSSSSSSSSSSSSSSSSSSSSSSSSSSSSSSSSSSSSSSSSSSSSSSSSSSSFn#  %ALKA%   4444444444444444444444444",
"444444444444444444444444444   OnSSSSSSSSSSSSSSSSSSSSSSSSSSSSSSSSSSSSSSSSSSSSSSSSSSSSSSSSSFn#  %AKKA%   4444444444444444444444444",
"444444444444444444444444444   #nSSSSSSSSSSSSSSSSSSSSSSSSSSSSSSSSSSSSSSSSSSSSSSSSSSSSSSSSSFn#  %AKLA%   4444444444444444444444444",
"444444444444444444444444444   #nHSSSSSSSSSSSSSSSSSSSSSSSSSSSSSSSSSSSSSSSSSSSSSSSSSSSSSSSSFn#  $ALKA%   4444444444444444444444444",
"444444444444444444444444444   #nSSSSSSSSSSSFHFFSSSSSSSSSSSSSSSSSSSFFFHFSSSSSSSSSSSSSSSSSSHn#  $ALLA%   4444444444444444444444444",
"444444444444444444444444444   #nHSSSSSSSSSZmnnmZSSSSSSSSSSSSSSSSSSZmnnmZSSSSSSSSSSSSSSSSSFn#  $VJJV$   4444444444444444444444444",
"544544444545544544444545544   #nSSSSSSSSSFm;OO;mFSSSSSSSSSSSSSSSSFm;O+;mFFSSSSSSSSSSSSSSSFn#  opjjpo   4454544445445444454545454",
"222222222222222222222222222   #nHSSSSSSSSHn#  #nFSSSSSSSSSSSSSSSSFn#  #nFSSSSSSSSSSSSSSSSFn#  XtsstX   2222222222222222222222222",
",,,,,,,,,,,,,,,,,,,,,,,,,,,   #nHSSSSSSSSFn#  #nFSFFFHFSSSSFFFFSSFn#  #nFSSSSSSSSSSSSSSSSHn#  XudduX   ,,,,,,,,,,,,,,,,,,,,,,,,,",
">>>>>>>>>>>>>>>>>>>>>>>>>>>   OcCVCSSSSSSFn#  #nFSZmnnmZSFZmnnmZSFn#  #nFSSSSSSSSSSSSSZCVCc+  XruurX   >>>>>>>>>>>>>>>>>>>>>>>>>",
">>>>>>>>>>>>>>>>>>>>>>>>>>>   oighkCDSSSSFn#  #nFFm;#O;mFFm;OO;mFFn#  #nFSSSSSSSSSSSSDCkhgio   XXXX>>>>>>>>>>>>>>>>>>>>>>>>>>>>>",
",,,,,,,,,,,,,,,,,,,,,,,,,,,   XtsahVSSSSSFn#  #nFFn#  #nFHn#  #nFFn#  #nFSSSSSSSSSSSSSVfastX       ,,,,,,,,,,,,,,,,,,,,,,,,,,,,,",
"222222222222222222222222222   XudshVFFSSDHn#  #nFFn#  #nFFn#  #vFFn#  #nHSDSDSDFSDSSDDCgsduX       22222222222222222222222222222",
"454545454444544545544545454   XrutibCVVVVCc+  #nFHn#  #nFFn#  #nFFn#  +cCVVVVVVVVVVVVCbiuurX       45445544554545454545444444554",
"4444444444444444444444444444445XXX*phgggggio  #nFFn#  #nFFv#  #nFFn#  oiggggggggggghhhp*XXX4444444444444444444444444444444444444",
"4444444444444444444444444444444   XtssssssuX  #nFFn#  #nFFn#  #nFFn#  XusssssssssssaasuX   4444444444444444444444444444444444444",
"4444444444444444444444444444444   XuddsddduX  #nHHn#  #mHHn#  #nHHn#  Xudddddddddddsdduo   4444444444444444444444444444444444444",
"4444444444444444444444444444444   XruutyyueX  +cCCc+  OlmmlO  +cCCcO  XruyyyyyyyyyyyyurX   4444444444444444444444444444444444444",
"44444444444444444444444444444442,>>XXXXXXXX   oighiX   O##O   oiggio   XXoXXXXXXXXXXXXX44444444444444444444444444444444444444444",
"44444444444444444444444444444442,>>           XudsuX          Xusdto                   44444444444444444444444444444444444444444",
"44444444444444444444444444444452,>>           Xudduo          oudduX                   44444444444444444444444444444444444444444",
"44444444444444444444444444444442,>>           XeuurX          XruurX                   44444444444444444444444444444444444444444",
"44444444444444444444444444444452,>>,2444444    XXoX    4444    XXXX    444444444444444444444444444444444444444444444444444444444",
"44444444444444444444444444444442,>>,2444444            4444            444444444444444444444444444444444444444444444444444444444",
"44444444444444444444444444444452,>>,2444444            4444            444444444444444444444444444444444444444444444444444444444",
"44444444444444444444444444444442,>>,2444444            4444            444444444444444444444444444444444444444444444444444444444",
"54544554544544445454545454544553,>>,25444545454545455445455444445445455454454444544545545445444454544554455444444545454545455445",
"2222222222222222222222222222223<,>>,<3222222222222222222222222222222222222222222222222222222222222222222222222222222222222222222",
",,,,,,,,,,,,,,,,,,,,,,,,,,,,,,,,>>>>,,,,,,,,,,,,,,,,,,,,,,,,,,,,,,,,,,,,,,,,,,,,,,,,,,,,,,,,,,,,,,,,,,,,,,,,,,,,,,,,,,,,,,,,,,,,",
">>>>>>>>>>>>>>>>>>>>>>>>>>>>>>>>>>>>>>>>>>>>>>>>>>>>>>>>>>>>>>>>>>>>>>>>>>>>>>>>>>>>>>>>>>>>>>>>>>>>>>>>>>>>>>>>>>>>>>>>>>>>>>>>",
">>>>>>>>>>>>>>>>>>>>>>>>>>>>>>>>>>>>>>>>>>>>>>>>>>>>>>>>>>>>>>>>>>>>>>>>>>>>>>>>>>>>>>>>>>>>>>>>>>>>>>>>>>>>>>>>>>>>>>>>>>>>>>>>",
",,,,,,,,,,,,,,,,,,,,,,,,,,,,,,,,,,,,,,,,,,,,,,,,,,,,,,,,,,,,,,,,,,,,,,,,,,,,,,,,,,,,,,,,,,,,,,,,,,,,>>>>,,,,,,,,,,,,,,,,,,,,,,,,",
"222222222222222222222222222222222222222222222222222222222222222222222222222222222222222222222222223<,>>,<22222222222222222222222",
"4444545444445454444445544545444445544544444454454444545444444545545444445445545454544444544554544453,>>,245454544444544554544444",
"4444444444444444444444444444444444444444444444444444444444444444444444444444444444444444444444444442,>>,244444444444444444444444",
"4444444444444444444444444444444444444444444444444444444444444444444444444444444444444444444444444442,>>,244444444444444444444444",
"4444444444444444444444444444444444444444444444444444444444444444444444444444444444444444444444444442,>>,244444444444444444444444",
"4444444444444444444444444444444444444444444444444444444444444444444444444444444444444444444444444442,>>,254444444444444444444444",
"4444444444444444444444444444444444444444444444444444444444444444444444444444444444444444444444444442,>>,254444444444444444444444",
"4444444444444444444444444444444444444444444444444444444444444444444444444444444444444444444444444442,>>,244444444444444444444444",
"4444444444444444444444444444444444444444444444444444444444444444444444444444444444444444444444444452,>>,244444444444444444444444",
"4444444444444444444444444444444444444444444444444444444444444444444444444444444444444444444444444442,>>,254444444444444444444444",
"4444444444444444444444444444444444444444444444444444444444444444444444444444444444444444444444444452,>>,244444444444444444444444",
"4444444444444444444444444444444444444444444444444444444444444444444444444444444444444444444444444442,>>,254444444444444444444444",
"4444444444444444444444444444444444444444444444444444444444444444444444444444444444444444444444444442,>>,244444444444444444444444",
"4444444444444444444444444444444444444444444444444444444444444444444444444444444444444444444444444452,>>,244444444444444444444444",
"5454455444445454454544444545544544444545454544445454455444445454544444444545544544444545545444445453,>>,254454544545444445455445",
"222222222222222222222222222222222222222222222222222222222222222222222222222222222222222222222222223<,>>,<22222222222222222222222",
",,,,,,,,,,,,,,,,,,,,,,,,,,,,,,,,,,,,,,,,,,,,,,,,,,,,,,,,,,,,,,,,,,,,,,,,,,,,,,,,,,,,,,,,,,,,,,,,,,,,>>>>,,,,,,,,,,,,,,,,,,,,,,,,",
">>>>>>>>>>>>>>>>>>>>>>>>>>>>>>>>>>>>>>>>>>>>>>>>>>>>>>>>>>>>>>>>>>>>>>>>>>>>>>>>>>>>>>>>>>>>>>>>>>>>>>>>>>>>>>>>>>>>>>>>>>>>>>>>",
">>>>>>>>>>>>>>>>>>>>>>>>>>>>>>>>>>>>>>>>>>>>>>>>>>>>>>>>>>>>>>>>>>>>>>>>>>>>>>>>>>>>>>>>>>>>>>>>>>>>>>>>>>>>>>>>>>>>>>>>>>>>>>>>",
">>>>>>>>>>>>>>>>>>>>>>>>>>>>>>>>>>>>>>>>>>>>>>>>>>>>>>>>>>>>>>>>>>>>>>>>>>>>>>>>>>>>>>>>>>>>>>>>>>>>>>>>>>>>>>>>>>>>>>>>>>>>>>>>"
};
