/* XPM */
static char *f982e5f707144fafddf7a1421b0e2037PoXl26LBBnrQt8Ko[] = {
/* columns rows colors chars-per-pixel */
"64 64 66 1 ",
"  c #0A2903",
". c #1C2E17",
"X c #22381C",
"o c #05003F",
"O c #114505",
"+ c #155306",
"@ c #196107",
"# c #1D6F08",
"$ c #217D09",
"% c #284221",
"& c #2E4C26",
"* c #34562B",
"= c #3A6030",
"- c #09004E",
"; c #09005D",
": c #0B006C",
"> c #0C006C",
", c #0B007B",
"< c #0C007B",
"1 c #B5270D",
"2 c #258B0A",
"3 c #29990B",
"4 c #2DA70C",
"5 c #31B50D",
"6 c #35C30E",
"7 c #39D10F",
"8 c #3DDF10",
"9 c #41ED11",
"0 c #4CEF1E",
"q c #57F02C",
"w c #62F13A",
"e c #528844",
"r c #6DF248",
"t c #78F356",
"y c #83F464",
"u c #8EF572",
"i c #0D008A",
"p c #0E0099",
"a c #0F00A8",
"s c #1000B7",
"d c #1100C6",
"f c #1200D5",
"g c #1300E4",
"h c #1400F3",
"j c #1803FF",
"k c #2612FF",
"l c #3421FF",
"z c #4230FF",
"x c #503FFF",
"c c #5E4EFF",
"v c #6C5DFF",
"b c #7A6CFF",
"n c #887BFF",
"m c #0DB5A2",
"M c #99F680",
"N c #A4F78E",
"B c #AFF89C",
"V c #C6FAB8",
"C c #968AFF",
"Z c #998AFF",
"A c #A499FF",
"S c #B2A8FF",
"D c #C0B7FF",
"F c #D1FBC6",
"G c #CDC6FF",
"H c #F3FEF0",
/* pixels */
"jhhhghhhhhhhhhhhhhhhhhhhhhhhddddhhhhhhhhhhhhhhhjjjjhhhhhhhhhhhhh",
"jhhhghhhhhhhhhhhhdapisfghhjhddsdhhhfsaipppasfghjjjjhhhhhhhhhhhhh",
"jhhhghhjlzcvxzkhhdasshkjjhjkggfdhhhspi:pppasfghjjjhfdsaaappasfhh",
"hghhhllxnnCCczljjfasshkjjhjkhhgfhhfp<::pppasfghhhdsapsapi<<psfhh",
"gghhjzcbSACCczllzjghhxvccxxzzlkjjkjapaahgghhkkkjhsapisapi<<psfhh",
"gghzxbCbSACvljhlzzzcvnnvcxzzkjjhkkhasglbvvczzlkjhsapisapi<<psgjj",
"ggjxcnCvnvzgdsdlzzxxxcxxxxzkgf55mmmmfjxbvvccxjgspo->ihhgfddfgjjj",
"hjkcccvllkhsssskllxcccxxx5555555mmmmhlxbvvccxjgs<-;,shhhhffffjjj",
"hxcCCxzhhhhsssshhjklljhhh5555555mmmmjjjkkkjhgfda<;>idhhhhddddjjj",
"jcvvcjhgggggggghhjkkkjhhh5555555lzcvx1111hhhgfda<;:idhhhgsssdhhh",
"jcccxjjhhgggggghmmmmjhhhhhgdddfhklxcx1111hhhhhhkhhhfhhhhda<<adhh",
"jxxbvjjhhghhgffhmmmm1hhhffd.........x1111hhhjjjlkkkhhhhhdsiisdhh",
"jjjcxllhhghgfddhmmmm1hhhsss..XXX.XXXkllkjhjj555lkkkhhhhhddppddhh",
"hhhkklljjhhsssshmmm11hhhaaa..XXX.XXXhjjjjhzz55555llhhgggdfaaddhh",
"hhhllllhhhjf555hkkkkhhhh...889787766...hhhcc555555khgfddfghggggh",
"hhhlzzzjhhkh555jxzzzhhhh...999677655...hhhccc555mmmhdpiisghddddh",
"hhhjkkkjggjk555lvzzczxcz...9ttq77655...kkkxxxxh5mmmhdi<<aggsssdh",
"hkklzkkjffhkzvvxnczczXXX8888rr055556665XXXkkkkhlmmmhdpiisggsssdh",
"hllvbxxjss111cbcnvzcxXXX8887rMu06556665XXXhhhhhkkkkhfdddghgsssdh",
"hlzbbxzhssmmmzbvbckzzXXX88889rq06556665XXXhhhhhh111jkllljhgfffgh",
"hlzbbxzhddmmmhcbnb...77755578wwq7555777666...hhh111jklzzkhhffffh",
"hjkccxzhffmmmhvbnn...888555788768886788766...hhh111lzzzzkggddffh",
"hhjjjjhjj555hhcccc...88858qw07768886799866...hhhjzzxcllkhggffggh",
"jjjjhhhkk555ghx...66666650rr96657886577755666...hxxccjjhgffdfggh",
"jjjjhhhkl555ghlXXXqqq5556qtr85555555566655666...hzxcckjhpiiighhh",
"jjjjhhhjlkkjghhXXXwww555799758885555554445666XXXhllzmmmh;;;:jjjh",
"jjkkjjhsfddjgkkXXXqqq57797755rNFy065543334455XXXgkkkmmm55;;:jjjh",
"hhkkkkhaddfljzl..X8875qqy9955uVHuq7532$223455XXXghhhmmm55::<jjjh",
"hhzzzzhasmmmkzl..X7765qqt8855uVHNr95322$$$455...ghhmmmm55ssdkkkj",
"hhxxxxhssmmmlxjXX%8875wwy8855rrrwww5333$$@335...ghhmmmm55hhhjjjj",
"hhzxxxjhdmmmhlhXXXqqq500q6655wwwttt5555@@O335XXXhhdmmmghhhhhjjjj",
"hhzxxxjhsmmmdljXXXuuu5wwr6655wwwttB0055OO 335XXXhhsi<<sgzzzzjjjj",
"hhzxxxjhsmmmpzk...BBB500q6655rrrqqu0055OOO555XXXhhsi<<sgzzcckkhh",
"hhlzzzjhs111<zc...NNN59995555rrrwwM0055###555...hhsi<<sgzzCCcchh",
"hhllllhhg111avb...rrr57775555wttw005555444555...hhgdssdgzzAAvvhh",
"hhkllljhhfddfcA...99956wwq5559qqq995555556665%%%hhhh111hhhvvvvhh",
"hhhkkk111h555cA...66099qqq55579975555560qq765%%%hmmm111hhhxxxxhh",
"jjjlkk111h555xA...66000wqq55555555555560qq765%%%hmmm111hhhllllhh",
"jjjlkk111h555kbbccXX=0q76555522255555560q0X..dggjmmm111kkkvxxxhh",
"jjjkjjjhhhhhjjllkk...688755552+O@332235555...adfkmmm111cccnccchh",
"jjjjhhhhhhhhhhkkkk...599955552+O@332235555...sdfjmmmhhxbbbCvvvhh",
"hffffhhhhhhhhffffhhhh.&&855555$#@332235XXXfgddddhhhdd555nnnccchh",
"hfgggjhhhhhhhfgggjhhh.%%770085555555555XXXhhffffhhhd5555bbzlllhh",
"hfjjjlhddddhhf555jhhh...57rrq5555555555XXXhhhhhhhhhd5555xxkkkkhh",
"hfjjjlhddddhhf555jhjkxcx.%eyr688q885XXXghhhhhhhhhhhd555llljjjjhh",
"hhllllhddddhhh555jjjkcxx..=qq688q885XXXddhhggmmmhhhhhhkkkkhhhhhh",
"hhkkkkhdddgkkkhhhjkkhjhh..*00688q885XXXhhhjggmmmhhhhhhjjjjhhhhhh",
"hhhhhhhhhhllllhhhjkkfdsshhk&&.......khhhhhjggmmmhhhhhhhhlllxkkkh",
"hhhhhhhhhkxxx111hjkjammmfjz%%.......khhhhghjjmmmhhhhhhhjzzzvzzzh",
"jjjhhhhhjlccx111555jpmmmagz.........hhhhgfgj111hhhhhhhhlcccbxxxh",
"kkkhhhhhjlzzl111555fammmagzzzlhhhhhhhhgfdsd1111jhffffhhlccvCvvch",
"lllhhhhhjlllk111555sdi<iagkhdapsghhgfdsmmmd1111lkgfffhhlllzcccxh",
"zzzhhhhhjjjjhhhgasaafsasdfhfai:<ppaaas5mmm5111zvclkffhhkkklxxxzh",
"ccchjjjjhhhhhhgfpppagghhhhh5111<ppaaas5mmm5jklzbbzlfdhhhhhkccczh",
"xxxhkxxxlhhhhhgfaasdhhhhhhh5111<ppaaas55555hhjkCAbZkjblllfjzzzlh",
"zzzhxbbblhhhhhgsaasghhhhhhh5111sapasdghhhhhhhhjnCbZzlGCnnhklllkh",
"lllhcnnnlhhgffd<iiphhhhhhhhhhhhhhhhhhhhhhhhhhhkcvxczlGCnnhkkkkjh",
"hhhlbAncjfhdsssippphhhhhhhhhhhhhhhhhhhhhhhhhhjlcczxzzGSASlkjjjjj",
"hhjzbbxkffhdsssippphhhhhhhhgjklxlkjhhhkzxczlllxzlkhkkcnbCclkjjjj",
"hhxbnnkgffhdsssassshhhhhhhhgjklxlkjhhhkzxczlllzlkjhhhhkzbbczjjjj",
"hhbAAAkggghffffhhhhhhhhhhhhgjklxlkjhkkzcxczllllkjhhhhhlnDDCzjjjj",
"hhbbbbjjjjhhhhhhhhjklzxxbvxljklxllzzcxxcxczllkkjjkkkjjkbACnlhhhh",
"hhvvvvjjggffhhhhhhjklzxxbvxzhjkzxxcxcxlkhhhhhhhhjkkkjjkbCnbkhhhh",
"hhlllljjddsshhhhhhjklzxxbvxzhjkzxxcxcxlkhhhhhhhhjkkkjjkccxzhhhhh"
};
