/* XPM */
static char *result[] = {
/* columns rows colors chars-per-pixel */
"128 128 77 1 ",
"  c black",
". c #00030C",
"X c gray3",
"o c #01061B",
"O c #101010",
"+ c #181818",
"@ c #010A2A",
"# c #000B2A",
"$ c #030C39",
"% c #020D39",
"& c #000F39",
"* c #202020",
"= c #282828",
"- c gray19",
"; c gray22",
": c #040F48",
"> c #031048",
", c #021148",
"< c #011248",
"1 c #051256",
"2 c #041357",
"3 c #031457",
"4 c #021557",
"5 c #011657",
"6 c #051666",
"7 c #041766",
"8 c #021966",
"9 c #011A66",
"0 c #001B66",
"q c #071872",
"w c #051A75",
"e c #021D75",
"r c #011E75",
"t c #001F75",
"y c gray25",
"u c #484848",
"i c #505050",
"p c #585858",
"a c #606060",
"s c #061D82",
"d c #071C84",
"f c #061D84",
"g c #081F92",
"h c #022184",
"j c #062192",
"k c #072093",
"l c #022593",
"z c #012693",
"x c #002793",
"c c #0724A1",
"v c #0922A0",
"b c #0823A2",
"n c #0229A2",
"m c #012AA2",
"M c #0A25AE",
"N c #0827B0",
"B c #0926B1",
"V c #022DB1",
"C c #012EB1",
"Z c #0A29BE",
"A c #0A29BF",
"S c #092ABF",
"D c #0A29C0",
"F c #0B2CCE",
"G c #0A2DCE",
"H c #0132C0",
"J c #0235CF",
"K c #0C2FDC",
"L c #0239DE",
"P c #0D32EB",
"I c #153AF2",
"U c #1F57FD",
"Y c #2346F3",
"T c #3152F4",
"R c #4F6AF6",
"E c #F31BF1",
"W c #F892F8",
/* pixels */
"wwwwwwwwbbbbbbbbffffffffwwwwwwwwwwwwwwww@@@@oooo33333333wwwwffff7777oooooooo33337777ffffkkkkffff77777777wwwwwwwwwwwwFFFFFFFFwwww",
"wwwwwwwwbbbbbbbbffffffffwwwwwwwwwwwwwwww@@@@oooo33333333wwwwffff7777oooooooo33337777ffffkkkkffff77777777wwwwwwwwwwwwFFFFFFFFwwww",
"wwwwwwwwbbbbbbbbffffffffwwwwwwwwwwwwwwww@@@@oooo33333333wwwwffff7777oooooooo33337777ffffkkkkffff77777777wwwwwwwwwwwwFFFFFFFFwwww",
"wwwwwwwwbbbbbbbbffffffffwwwwwwwwwwwwwwww@@@@oooo33333333wwwwffff7777oooooooo33337777ffffkkkkffff77777777wwwwwwwwwwwwFFFFFFFFwwww",
"wwwwwwwwPPPPPPPPffff4444%%%%33337777wwww5555111177773333wwwwkkkkwwwwoooo%%%%kkkkkkkkkkkkbbbbkkkkffffkkkk777733337777UUUURRRRffff",
"wwwwwwwwPPPPPPPPffff4444%%%%33337777wwww5555111177773333wwwwkkkkwwwwoooo%%%%kkkkkkkkkkkkbbbbkkkkffffkkkk777733337777UUUURRRRffff",
"wwwwwwwwPPPPPPPPffff4444%%%%33337777wwww5555111177773333wwwwkkkkwwwwoooo%%%%kkkkkkkkkkkkbbbbkkkkffffkkkk777733337777UUUURRRRffff",
"wwwwwwwwPPPPPPPPffff4444%%%%33337777wwww5555111177773333wwwwkkkkwwwwoooo%%%%kkkkkkkkkkkkbbbbkkkkffffkkkk777733337777UUUURRRRffff",
"wwwwbbbbPPPPDDDDwwww,,,,6666DDDDFFFFbbbbbbbbBBBBffffffffbbbbFFFFBBBBwwwwkkkkBBBBbbbbffffwwww7777ffffBBBB....    ,,,,MMMMJJJJBBBB",
"wwwwbbbbPPPPDDDDwwww,,,,6666DDDDFFFFbbbbbbbbBBBBffffffffbbbbFFFFBBBBwwwwkkkkBBBBbbbbffffwwww7777ffffBBBB....    ,,,,MMMMJJJJBBBB",
"wwwwbbbbPPPPDDDDwwww,,,,6666DDDDFFFFbbbbbbbbBBBBffff                        BBBBbbbbffffwwww7777ffffBBBB....    ,,,,MMMMJJJJBBBB",
"wwwwbbbbPPPPDDDDwwww,,,,6666DDDDFFFFbbbbbbbbBBBBffff                        BBBBbbbbffffwwww7777ffffBBBB....    ,,,,MMMMJJJJBBBB",
"wwwwFFFFzzzz%%%%wwww7777ffffDDDDFFFFbbbbwwwwwwwwwwww                        wwwwwwww3333,,,,3333BBBBFFFFoooo    oooowwwwwwwwBBBB",
"wwwwFFFFzzzz%%%%wwww7777ffffDDDDFFFFbbbbwwwwwwwwwwww              XXX       wwwwwwww3333,,,,3333BBBBFFFFoooo    oooowwwwwwwwBBBB",
"wwwwFFFFzzzz%%%%wwww7777ffffDDDDFFFFbbbbwwwwwwwwwwww    OOO       +**X   XXXwwwwwwww3333,,,,3333BBBBFFFFoooo    oooowwwwwwwwBBBB",
"wwwwFFFFzzzz%%%%wwww7777ffffDDDDFFFFbbbbwwwwwwwwwwww    O++X     X*=-+O  X++wwwwwwww3333,,,,3333BBBBFFFFoooo    oooowwwwwwwwBBBB",
"ffffBBBB::::&&&&ffff3333ffffffff7777wwwwwwwwffffkkkk    O++X     X+*=+O  X++ffffwwww33333333wwwwDDDDDDDDwwwwooooooooDDDDDDDDffff",
"ffffBBBB::::&&&&ffff3333ffffffff7777wwwwwwwwffffkkkk     XXXOOO  XXXOOO   OOffffwwww33333333wwwwDDDDDDDDwwwwooooooooDDDDDDDDffff",
"ffffBBBB::::&&&&ffff3333ffffffff7777wwwwwwwwffffkkkk        OOO             ffffwwww33333333wwwwDDDDDDDDwwwwooooooooDDDDDDDDffff",
"ffffBBBB::::&&&&ffff3333ffffffff7777wwwwwwwwffffkkkk        OO*OO           ffffwwww33333333wwwwDDDDDDDDwwwwooooooooDDDDDDDDffff",
"bbbbbbbboooo9999BBBB7777DDDDDDDDwwwwwwww33337777kkkk          OOO           bbbbkkkkffffffffwwww77777777wwww33337777KKKKFFFFwwww",
"bbbbbbbboooo9999BBBB7777DDDDDDDDwwwwwwww33337777kkkk          OOO           bbbbkkkkffffffffwwww77777777wwww33337777KKKKFFFFwwww",
"bbbbbbbboooo9999BBBB7777DDDDDDDDwwwwwwww33337777kkkkWWWEEEWWW   OOOWWWEEEWWWbbbbkkkkffffffffwwww77777777wwww33337777KKKKFFFFwwww",
"bbbbbbbboooo9999BBBB7777DDDDDDDDwwwwwwww33337777kkkkWWWEEEWWW   OOOWWWEEEWWWbbbbkkkkffffffffwwww77777777wwww33337777KKKKFFFFwwww",
"kkkkkkkk2222DDDDKKKKwwwwkkkkkkkkwwww7777,,,,7777ffffWWWEEEWWW   OOOWWWEEEWWWBBBBffff3333ffff3333@@@@,,,,wwwwwwwwwwwwkkkkkkkkwwww",
"kkkkkkkk2222DDDDKKKKwwwwkkkkkkkkwwww7777,,,,7777ffff                        BBBBffff3333ffff3333@@@@,,,,wwwwwwwwwwwwkkkkkkkkwwww",
"kkkkkkkk2222DDDDKKKKwwwwkkkkkkkkwwww7777,,,,7777ffff           XXX          BBBBffff3333ffff3333@@@@,,,,wwwwwwwwwwwwkkkkkkkkwwww",
"kkkkkkkk2222DDDDKKKKwwwwkkkkkkkkwwww7777,,,,7777ffff           OOO          BBBBffff3333ffff3333@@@@,,,,wwwwwwwwwwwwkkkkkkkkwwww",
"wwwwffffDDDDLLLLnnnnwwwwwwwwwwwwwwww77777777AAAAKKKK    X++O   +++          kkkk7777,,,,ffff%%%%....3333wwwwwwww33338888ffffwwww",
"wwwwffffDDDDLLLLnnnnwwwwwwwwwwwwwwww77777777AAAAKKKK  XO+*+O   ***    XXX   kkkk7777,,,,ffff%%%%....3333wwwwwwww33338888ffffwwww",
"wwwwffffDDDDLLLLnnnnwwwwwwwwwwwwwwww77777777AAAAKKKK  XO+*+O   ***    XOOX  kkkk7777,,,,ffff%%%%....3333wwwwwwww33338888ffffwwww",
"wwwwffffDDDDLLLLnnnnwwwwwwwwwwwwwwww77777777AAAAKKKK++OOOX     ===    X++O  kkkk7777,,,,ffff%%%%....3333wwwwwwww33338888ffffwwww",
"wwwwkkkkrrrr0000hhhhwwwwwwwwbbbbbbbb33333333BBBBFFFF+*OX       +++     OOO  bbbbkkkkwwwwkkkkssss7777wwwwwwwwffffwwwwnnnnBBBBwwww",
"wwwwkkkkrrrr0000hhhhwwwwwwwwbbbbbbbb33333333BBBBFFFF+*OX       OOO     X**+ bbbbkkkkwwwwkkkkssss7777wwwwwwwwffffwwwwnnnnBBBBwwww",
"wwwwkkkkrrrr0000hhhhwwwwwwwwbbbbbbbb33333333BB       XXX      XXX       ===       kkwwwwkkkkssss7777wwwwwwwwffffwwwwnnnnBBBBwwww",
"wwwwkkkkrrrr0000hhhhwwwwwwwwbbbbbbbb33333333BB  XXX          X++O       ===   X+*+kkwwwwkkkkssss7777wwwwwwwwffffwwwwnnnnBBBBwwww",
"wwwwvvvv;;;;6666bbbbwwwwwwwwBBBBBBBB@@@@@@@@ww  O++X         X++O       O==+  +=-+kkwwwwffffbbbbkkkkwwwwBBBBFFFFBBBBDDDDbbbbwwww",
"wwwwvvvv;;;;6666bbbbwwwwwwwwBBBBBBBB@@@@@@@@wwXX+==+         XOOX        ===  +-;*kkwwwwffffbbbbkkkkwwwwBBBBFFFFBBBBDDDDbbbbwwww",
"wwwwvvvv;;;;6666bbbbwwwwwwwwBBBBBBBB@@@@@@@@wwXXO*=*X                XXX ---  O**OkkwwwwffffbbbbkkkkwwwwBBBBFFFFBBBBDDDDbbbbwwww",
"wwwwvvvv;;;;6666bbbbwwwwwwwwBBBBBBBB@@@@@@@@wwXXXO++X                XXX *--+OO*++kkwwwwffffbbbbkkkkwwwwBBBBFFFFBBBBDDDDbbbbwwww",
"wwwwnnnnVVVVbbbbkkkkwwwwwwwwFFFFFFFF@@@@@@@@ww    XXX  O++X          XXX +==+++*OOwwwwwwwwww77777777wwwwBBBBDDDDBBBBdddd2222wwww",
"wwwwnnnnVVVVbbbbkkkkwwwwwwwwFFFFFFFF@@@@@@@@ww        X+*+X              O--=+++XXwwwwwwwwww77777777wwwwBBBBDDDDBBBBdddd2222wwww",
"wwwwnnnnVVVVbbbbkkkkwwwwwwwwFFFFFFFF@@@@@@@@ww       +*-*+X     OOO      X**+XXX  wwwwwwwwww77777777wwwwBBBBDDDDBBBBdddd2222wwww",
"wwwwnnnnVVVVbbbbkkkkwwwwwwwwFFFFFFFF@@@@@@@@ww OOO  Xypi+       OOO       +++     wwwwwwwwww77777777wwwwBBBBDDDDBBBBdddd2222wwww",
"wwwwffff88888888ffffwwwwkkkkIIIIKKKK3333%%%%33 +++  Oiap*OX   XX+OO       XXX     77wwwwffff%%%%@@@@wwwwffffffffffffggggddddwwww",
"wwwwffff88888888ffffwwwwkkkkIIIIKKKK3333%%%%33 *--+O*yuy***+X XOOX                77wwwwffff%%%%@@@@wwwwffffffffffffggggddddwwww",
"wwwwffff88888888ffffwwwwkkkkIIIIKKKK3333%%%%33 O**+O++OOO*y;= X**+            XXX 77wwwwffff%%%%@@@@wwwwffffffffffffggggddddwwww",
"wwwwffff88888888ffffwwwwkkkkIIIIKKKK3333%%%%33 X+++OOX   O;y-X +++            XXX 77wwwwffff%%%%@@@@wwwwffffffffffffggggddddwwww",
"wwwwkkkk9999$$$$7777wwwwkkkkBBBBbbbbbbbb666622            *--O OOO      XXX   XXX 33wwwwbbbbwwww,,,,wwwwDDDDDDDDwwwwBBBBBBBBwwww",
"wwwwkkkk9999$$$$7777wwwwkkkkBBBBbbbbbbbb666622             ***          XOOX      33wwwwbbbbwwww,,,,wwwwDDDDDDDDwwwwBBBBBBBBwwww",
"wwwwkkkk9999$$$$7777wwwwkkkkBBBBbbbbbbbb666622             ***   XXX    X**-++    33wwwwbbbbwwww,,,,wwwwDDDDDDDDwwwwBBBBBBBBwwww",
"wwwwkkkk9999$$$$7777wwwwkkkkBBBBbbbbbbbb666622             ***   +++     **y**    33wwwwbbbbwwww,,,,wwwwDDDDDDDDwwwwBBBBBBBBwwww",
"wwwwkkkkxxxx;;;;33337777ffffffffffffffff6666ww OO+XX       +++   +++     **y**    77wwwwbbbbFFFFbbbbwwwwBBBBBBBBwwww88888888wwww",
"wwwwkkkkxxxx;;;;33337777ffffffffffffffff6666ww OO=**X      ***   OOO     **=XX    77wwwwbbbbFFFFbbbbwwwwBBBBBBBBwwww88888888wwww",
"wwwwkkkkxxxx;;;;33337777ffffffffffffffff6666ww OO;;;O      ***           ***      77wwwwbbbbFFFFbbbbwwwwBBBBBBBBwwww88888888wwww",
"wwwwkkkkxxxx;;;;33337777ffffffffffffffff6666ww   *-y*O     ***           ===      77wwwwbbbbFFFFbbbbwwwwBBBBBBBBwwww88888888wwww",
"wwwwffffCCCCmmmm%%%%,,,,kkkkffffwwww33333333ww   O+=+O    X++O          X**+XXX   bbwwwwwwwwkkkkkkkkwwwwwwwwwwwwbbbbLLLLVVVVwwww",
"wwwwffffCCCCmmmm%%%%,,,,kkkkffffwwww33333333ww     OOO    +**X          O**OOOO   bbwwwwwwwwkkkkkkkkwwwwwwwwwwwwbbbbLLLLVVVVwwww",
"wwwwffffCCCCmmmm%%%%,,,,kkkkffffwwww33333333ww            ***      XXX O**O O--*  bbwwwwwwwwkkkkkkkkwwwwwwwwwwwwbbbbLLLLVVVVwwww",
"wwwwffffCCCCmmmm%%%%,,,,kkkkffffwwww33333333ww            ***      X++O-;;X X==*  bbwwwwwwwwkkkkkkkkwwwwwwwwwwwwbbbbLLLLVVVVwwww",
"wwwwbbbbFFFFbbbb,,,,kkkkDDDDwwwwwwww%%%%%%%%ww            ***      X++O;;;   ***  DDwwww33333333wwwwffffffffwwwwbbbbYYYYKKKKwwww",
"wwwwbbbbFFFFbbbb,,,,kkkkDDDDwwwwwwww%%%%%%%%wwOOO    OOO  ***       OOO===        DDwwww33333333wwwwffffffffwwwwbbbbYYYYKKKKwwww",
"wwwwbbbbFFFFbbbb,,,,kkkkDDDDwwwwwwww%%%%%%%%wwOOOOOO +++ X**+        OO+XX        DDwwww33333333wwwwffffffffwwwwbbbbYYYYKKKKwwww",
"wwwwbbbbFFFFbbbb,,,,kkkkDDDDwwwwwwww%%%%%%%%wwOOO*** *** +**X        +++          DDwwww33333333wwwwffffffffwwwwbbbbYYYYKKKKwwww",
"wwwwDDDDDDDDwwwwwwwwbbbbbbbbwwwwwwwwooooooooww   *** ===X==*         +++     OOO  KKBBBB77777777wwwwffffffffwwwwwwwwffffffffwwww",
"wwwwDDDDDDDDwwwwwwwwbbbbbbbbwwwwwwwwooooooooww  +==O ***X--=         OOO     ===  KKBBBB77777777wwwwffffffffwwwwwwwwffffffffwwww",
"wwwwDDDDDDDDwwwwwwwwbbbbbbbbwwwwwwwwooooooooww  ***  +++X==*         OOO     yyy  KKBBBB77777777wwwwffffffffwwwwwwwwffffffffwwww",
"wwwwDDDDDDDDwwwwwwwwbbbbbbbbwwwwwwwwooooooooww  ***      ===         +++     ---  KKBBBB77777777wwwwffffffffwwwwwwwwffffffffwwww",
"wwwwkkkkbbbbffffwwww33333333wwwwffffwwww7777wwXXOXX      ***         +**X    +++  ZZKKKKwwwwwwwwwwwwbbbbbbbbwwwwwwwwwwwwkkkkkkkk",
"wwwwkkkkbbbbffffwwww33333333wwwwffffwwww7777wwOOO       X===OOX     X+*+X         ZZKKKKwwwwwwwwwwwwbbbbbbbbwwwwwwwwwwwwkkkkkkkk",
"wwwwkkkkbbbbffffwwww33333333wwwwffffwwww7777wwOOO       X+++++O     XO+OXXXX      ZZKKKKwwwwwwwwwwwwbbbbbbbbwwwwwwwwwwwwkkkkkkkk",
"wwwwkkkkbbbbffffwwww33333333wwwwffffwwww7777wwXXX  +++  XOOO++O     XXX  +++      ZZKKKKwwwwwwwwwwwwbbbbbbbbwwwwwwwwwwwwkkkkkkkk",
"wwww@@@@9999KKKKbbbb777733337777ffffkkkkffff33    X**+      XXX          +++      wwKKKKbbbbwwwwwwwwBBBBDDDDffffwwww7777ffffkkkk",
"wwww@@@@9999KKKKbbbb777733337777ffffkkkkffff33    O==+                   OOO      wwKKKKbbbbwwwwwwwwBBBBDDDDffffwwww7777ffffkkkk",
"wwww@@@@9999KKKKbbbb777733337777ffffkkkkffff33   O**O                             wwKKKKbbbbwwwwwwwwBBBBDDDDffffwwww7777ffffkkkk",
"wwww@@@@9999KKKKbbbb777733337777ffffkkkkffff33   +**www   OOO333ww      7777  XXX wwKKKKbbbbwwwwwwwwBBBBDDDDffffwwww7777ffffkkkk",
"wwww%%%%ddddTTTTFFFFwwww,,,,,,,,wwwwwwwwbbbbww   +++www   OOOooo,,      ,,,,  XXX wwDDDDBBBBkkkkkkkkccccbbbbkkkkwwww,,,,,,,,wwww",
"wwww%%%%ddddTTTTFFFFwwww,,,,,,,,wwwwwwwwbbbbww OO+XXwww   OOOooo,,      ,,,,  XXX wwDDDDBBBBkkkkkkkkccccbbbbkkkkwwww,,,,,,,,wwww",
"wwww%%%%ddddTTTTFFFFwwww,,,,,,,,wwwwwwwwbbbbww O++X www      ooo,,      ,,,,      wwDDDDBBBBkkkkkkkkccccbbbbkkkkwwww,,,,,,,,wwww",
"wwww%%%%ddddTTTTFFFFwwww,,,,,,,,wwwwwwwwbbbbww O==+ www      ooo,,  XXX ,,,,      wwDDDDBBBBkkkkkkkkccccbbbbkkkkwwww,,,,,,,,wwww",
"ffff2222llllPPPPbbbbwwwwoooo    3333wwwwbbbbkk  *** 333      ...,,  === 3333 XXX  wwkkkkkkkkkkkkkkkkjjjjffffbbbbkkkk%%%%%%%%wwww",
"ffff2222llllPPPPbbbbwwwwoooo    3333wwwwbbbbkk  *** 333 OOO  ...,,  ;;; 3333 OOO  wwkkkkkkkkkkkkkkkkjjjjffffbbbbkkkk%%%%%%%%wwww",
"ffff2222llllPPPPbbbbwwwwoooo    3333wwwwbbbbkk X++O 333 OOO  ...,,  --- 3333 ***  wwkkkkkkkkkkkkkkkkjjjjffffbbbbkkkk%%%%%%%%wwww",
"ffff2222llllPPPPbbbbwwwwoooo    3333wwwwbbbbkk O++X 333 OOO  ...,,  OOO 3333 ***  wwkkkkkkkkkkkkkkkkjjjjffffbbbbkkkk%%%%%%%%wwww",
"####OOOOhhhhBBBBwwww%%%%        @@@@wwww777777 OOO  333      333KK      ffff ***  bbBBBBBBBBwwwwwwwwjjjjSSSSDDDDbbbb>>>>%%%%wwww",
"####OOOOhhhhBBBBwwww%%%%        @@@@wwww777777X++O  333      333KK      ffff OOO  bbBBBBBBBBwwwwwwwwjjjjSSSSDDDDbbbb>>>>%%%%wwww",
"####OOOOhhhhBBBBwwww%%%%        @@@@wwww777777XOOX  333      333KK      ffff XXX  bbBBBBBBBBwwwwwwwwjjjjSSSSDDDDbbbb>>>>%%%%wwww",
"####OOOOhhhhBBBBwwww%%%%        @@@@wwww777777XOOX  333      333KK   XXXffff      bbBBBBBBBBwwwwwwwwjjjjSSSSDDDDbbbb>>>>%%%%wwww",
"........bbbbbbbb7777....oooo,,,,oooo        %%      www      wwwKK   OOOffff   XXXDDBBBBBBBBwwwwffffccccSSSSSSSSFFFFBBBB3333wwww",
"........bbbbbbbb7777....oooo,,,,oooo        %%++    www      wwwKK   +++ffff   OOODDBBBBBBBBwwwwffffccccSSSSSSSSFFFFBBBB3333wwww",
"........bbbbbbbb7777....oooo,,,,oooo        %%==    www XXX  wwwKK   ***ffff   OOODDBBBBBBBBwwwwffffccccSSSSSSSSFFFFBBBB3333wwww",
"........bbbbbbbb7777....oooo,,,,oooo        %%;;    www OOO  wwwKK   ***ffff   XXXDDBBBBBBBBwwwwffffccccSSSSSSSSFFFFBBBB3333wwww",
">>>>>>>>bbbbbbbb7777,,,,7777ffff,,,,    %%%%ww**    www ***  www77  O==+kkkk      bbBBBBbbbbwwwwbbbbSSSSjjjjjjjjDDDDDDDDwwwwwwww",
">>>>>>>>bbbbbbbb7777,,,,7777ffff,,,,    %%%%wwOO    www +++  www77  O++Xkkkk      bbBBBBbbbbwwwwbbbbSSSSjjjjjjjjDDDDDDDDwwwwwwww",
">>>>>>>>bbbbbbbb7777,,,,7777ffff,,,,    %%%%ww      www OOO  www77  OOO kkkk  +==ObbBBBBbbbbwwwwbbbbSSSSjjjjjjjjDDDDDDDDwwwwwwww",
">>>>>>>>bbbbbbbb7777,,,,7777ffff,,,,    %%%%ww  +++ www      www77      kkkk  *--ObbBBBBbbbbwwwwbbbbSSSSjjjjjjjjDDDDDDDDwwwwwwww",
"8888<<<<ffffbbbbwwwwwwwwBBBBBBBB%%%%%%%%bbbbbb  +++ www      www77      bbbb  *--OffBBBBbbbbwwwwkkkkkkkkjjjjjjjj33333333wwwwwwww",
"8888<<<<ffffbbbbwwwwwwwwBBBBBBBB%%%%%%%%bbbbbb  +++ www      www77      bbbb *==X ffBBBBbbbbwwwwkkkkkkkkjjjjjjjj33333333wwwwwwww",
"8888<<<<ffffbbbbwwwwwwwwBBBBBBBB%%%%%%%%bbbbbb      www+++   www77      bbbbX==*  ffBBBBbbbbwwwwkkkkkkkkjjjjjjjj33333333wwwwwwww",
"8888<<<<ffffbbbbwwwwwwwwBBBBBBBB%%%%%%%%bbbbbb  OOO www+++   www77  XXX bbbbX==*  ffBBBBbbbbwwwwkkkkkkkkjjjjjjjj33333333wwwwwwww",
"kkkkwwwwffffbbbbwwwwwwwwbbbbbbbb%%%%%%%%wwwwww  +++ @@@+++   wwwww  XXX 6666XXX   wwBBBBBBBBwwwwwwwwNNNNNNNNjjjjoooooooowwwwwwww",
"kkkkwwwwffffbbbbwwwwwwwwbbbbbbbb%%%%%%%%wwwwww  +++ @@@      wwwww  XXX 6666bbbbwwwwBBBBBBBBwwwwwwwwNNNNNNNNjjjjoooooooowwwwwwww",
"kkkkwwwwffffbbbbwwwwwwwwbbbbbbbb%%%%%%%%wwwwwwwwwwww@@@      wwwww      6666bbbbwwwwBBBBBBBBwwwwwwwwNNNNNNNNjjjjoooooooowwwwwwww",
"kkkkwwwwffffbbbbwwwwwwwwbbbbbbbb%%%%%%%%wwwwwwwwwwww@@@      wwwww      6666bbbbwwwwBBBBBBBBwwwwwwwwNNNNNNNNjjjjoooooooowwwwwwww",
"bbbbkkkkffffkkkk@@@@@@@@wwwwwwwwwwwwwwwwbbbbffff,,,,...      wwwww  XXX 3333wwwwffffBBBBDDDDbbbbbbbbGGGGNNNNbbbb66666666BBBBffff",
"bbbbkkkkffffkkkk@@@@@@@@wwwwwwwwwwwwwwwwbbbbffff,,,,... XXX  wwwww  OOO 3333wwwwffffBBBBDDDDbbbbbbbbGGGGNNNNbbbb66666666BBBBffff",
"bbbbkkkkffffkkkk@@@@@@@@wwwwwwwwwwwwwwwwbbbbffff,,,,... OOO  wwwww  +++ 3333wwwwffffBBBBDDDDbbbbbbbbGGGGNNNNbbbb66666666BBBBffff",
"bbbbkkkkffffkkkk@@@@@@@@wwwwwwwwwwwwwwwwbbbbffff,,,,... +++  wwwww  *** 3333wwwwffffBBBBDDDDbbbbbbbbGGGGNNNNbbbb66666666BBBBffff",
"bbbb66662222kkkk@@@@@@@@ffffffffwwwwwwwwbbbb7777@@@@333 OOO  fffBB  +++ DDDDbbbbffffffffbbbbBBBBbbbbkkkkwwwwKKKKVVVVeeeeDDDDkkkk",
"bbbb66662222kkkk@@@@@@@@ffffffffwwwwwwwwbbbb7777@@@@333 XXX  fffBB  OOO DDDDbbbbffffffffbbbbBBBBbbbbkkkkwwwwKKKKVVVVeeeeDDDDkkkk",
"bbbb66662222kkkk@@@@@@@@ffffffffwwwwwwwwbbbb7777@@@@333      fffBB      DDDDbbbbffffffffbbbbBBBBbbbbkkkkwwwwKKKKVVVVeeeeDDDDkkkk",
"bbbb66662222kkkk@@@@@@@@ffffffffwwwwwwwwbbbb7777@@@@333      fffBB      DDDDbbbbffffffffbbbbBBBBbbbbkkkkwwwwKKKKVVVVeeeeDDDDkkkk",
"kkkk8888eeeebbbbwwwwwwwwffffffffwwww7777wwww77777777fff   XXXkkkFF      PPPPkkkkwwwwwwwwffffffffwwwwwwwwwwwwFFFFqqqqooooffffffff",
"kkkk8888eeeebbbbwwwwwwwwffffffffwwww7777wwww77777777fff  O++XkkkFF      PPPPkkkkwwwwwwwwffffffffwwwwwwwwwwwwFFFFqqqqooooffffffff",
"kkkk8888eeeebbbbwwwwwwwwffffffffwwww7777wwww77777777fff  O++XkkkFF    ++PPPPkkkkwwwwwwwwffffffffwwwwwwwwwwwwFFFFqqqqooooffffffff",
"kkkk8888eeeebbbbwwwwwwwwffffffffwwww7777wwww77777777fff  OOO kkkFF    ==PPPPkkkkwwwwwwwwffffffffwwwwwwwwwwwwFFFFqqqqooooffffffff",
"BBBBKKKKFFFFkkkk777777777777wwww77773333wwwwffffffffbbb   OOOfffbb    ;;kkkk%%%%3333wwwwwwwwwwwwwwwwttttCCCCFFFF8888,,,,wwwwwwww",
"BBBBKKKKFFFFkkkk777777777777wwww77773333wwwwffffffffbbb   OOOfffbb    **kkkk%%%%3333wwwwwwwwwwwwwwwwttttCCCCFFFF8888,,,,wwwwwwww",
"BBBBKKKKFFFFkkkk777777777777wwww77773333wwwwffffffffbbb   OOOfffbb    OOkkkk%%%%3333wwwwwwwwwwwwwwwwttttCCCCFFFF8888,,,,wwwwwwww",
"BBBBKKKKFFFFkkkk777777777777wwww77773333wwwwffffffffbbb      fffbb      kkkk%%%%3333wwwwwwwwwwwwwwwwttttCCCCFFFF8888,,,,wwwwwwww",
"bbbbKKKKDDDDwwww777777777777wwww77777777wwwwwwwwwwwwkkk      wwwff      7777,,,,@@@@%%%%33333333<<<<;;;;HHHHYYYYFFFFbbbbkkkkwwww",
"bbbbKKKKDDDDwwww777777777777wwww77777777wwwwwwwwwwwwkkkkkkkkwwwwffffffff7777,,,,@@@@%%%%33333333<<<<;;;;HHHHYYYYFFFFbbbbkkkkwwww",
"bbbbKKKKDDDDwwww777777777777wwww77777777wwwwwwwwwwwwkkkkkkkkwwwwffffffff7777,,,,@@@@%%%%33333333<<<<;;;;HHHHYYYYFFFFbbbbkkkkwwww",
"bbbbKKKKDDDDwwww777777777777wwww77777777wwwwwwwwwwwwkkkkkkkkwwwwffffffff7777,,,,@@@@%%%%33333333<<<<;;;;HHHHYYYYFFFFbbbbkkkkwwww",
"wwwwffffffffwwwwwwwwwwwwwwwwwwwwwwwwwwwwwwwwwwwwwwwwwwwwwwwwwwwwwwwwwwwwwwwwwwww,,,,%%%%33333333,,,,3333ffffFFFFFFFFbbbbkkkkwwww",
"wwwwffffffffwwwwwwwwwwwwwwwwwwwwwwwwwwwwwwwwwwwwwwwwwwwwwwwwwwwwwwwwwwwwwwwwwwww,,,,%%%%33333333,,,,3333ffffFFFFFFFFbbbbkkkkwwww",
"wwwwffffffffwwwwwwwwwwwwwwwwwwwwwwwwwwwwwwwwwwwwwwwwwwwwwwwwwwwwwwwwwwwwwwwwwwww,,,,%%%%33333333,,,,3333ffffFFFFFFFFbbbbkkkkwwww",
"wwwwffffffffwwwwwwwwwwwwwwwwwwwwwwwwwwwwwwwwwwwwwwwwwwwwwwwwwwwwwwwwwwwwwwwwwwww,,,,%%%%33333333,,,,3333ffffFFFFFFFFbbbbkkkkwwww"
};
