/* XPM */
static char *result[] = {
/* columns rows colors chars-per-pixel */
"128 128 25 1 ",
"  c black",
". c gray3",
"X c #101010",
"o c #181818",
"O c #202020",
"+ c #282828",
"@ c gray19",
"# c gray22",
"$ c #42311B",
"% c #43311B",
"& c #44321B",
"* c #4D361B",
"= c #4E371B",
"- c gray25",
"; c #484848",
": c #505050",
"> c #585858",
", c #606060",
"< c #8E5B1E",
"1 c #97611F",
"2 c #98611F",
"3 c #A2671F",
"4 c #A3681F",
"5 c #F31BF1",
"6 c #F892F8",
/* pixels */
"%%%%%%%%%%%%%%%%%%%%%%%%%%%%%%%%%%%%%%%%%%%%%%%%%%%%%%%%%%%%%%%%%%%%%%%%%%%%%%%%%%%%%%%%%%%%%%%%%%%%%%%%%%%%%%%%%%%%%%%%%%%%%%%%",
"%%%%%%%%%%%%%%%%%%%%%%%%%%%%%%%%%%%%%%%%%%%%%%%%%%%%%%%%%%%%%%%%%%%%%%%%%%%%%%%%%%%%%%%%%%%%%%%%%%%%%%%%%%%%%%%%%%%%%%%%%%%%%%%%",
"%%%%$$%%%%%%%%$$$$$$%%%%%%$$$$$$%%%%%%$$$%%$%%%%%%$%%%%$%%%%%%%%$%%$%%%%%%%%%%%%%%%%$%%%$%%$%%%%%%$%%%%$%%%%%$$%%%%$%%%%%%$%%%%%",
"========================================*==*======*=*==*====*=*====*======**%%%%====*=*=*==*======*=*==*======*=*==*======**%%%%",
"121111112111111111111111111111111111111111111111111111111111111111111111111<*%%*<211111111111111111111111111111111111111111<*%%%",
"3333333334433434333333343433333334433434333334344343333343344343333333344341=%%=24344343333334344343333343344343333343434341=%%%",
"3333333333333333333333333333333333333333333333333333333333333333333333333331*$$*14333333333333333333333333333333333333333331*$%%",
"3333333333333333333333333333333333333333333333333333333333333333333333333331=%%=13333333333333333333333333333333333333333331=%%%",
"3333333333333333333333333333333333333333333333333333333333333333333333333341=%%=14333333333333333333333333333333333333333341=%%%",
"3333333333333333333333333333333333333333333333333333333333333333333333333331=%%=13333333333333333333333333333333333333333331=%%%",
"3333333333333333333333333333333333333333333333333333                        *$%*14333333333333333333333333333333333333333331=%%%",
"3333333333333333333333333333333333333333333333333333                        =%%=13333333333333333333333333333333333333333341=%%%",
"3333333333333333333333333333333333333333333333333333                        =$$=14333333333333333333333333333333333333333331=$%%",
"3333333333333333333333333333333333333333333333333333              ...       =%$=13333333333333333333333333333333333333333331=%%%",
"3333333333333333333333333333333333333333333333333333    XXX       oOO.   ...=$$=14333333333333333333333333333333333333333331*$%%",
"3333333333333333333333333333333333333333333333333333    Xoo.     .O+@oX  .oo=$$=13333333333333333333333333333333333333333331=$%%",
"3333333333333333333333333333333333333333333333333333    Xoo.     .oO+oX  .oo=%%*13333333333333333333333333333333333333333341=%%%",
"3333333333333333333333333333333333333333333333333333     ...XXX  ...XXX   XX=%%=13333333333333333333333333333333333333333331=%%%",
"3333333333333333333333333333333333333333333333333333        XXX             =%%=13333333333333333333333333333333333333333331=%%%",
"3333333333333333333333333333333333333333333333333333        XXOXX           =%%*13333333333333333333333333333333333333333341=%%%",
"3333333333333333333333333333333333333333333333333333          XXX           *$%=14333333333333333333333333333333333333333331=%%%",
"3333333333333333333333333333333333333333333333333333          XXX           =$$=13333333333333333333333333333333333333333341=%%%",
"3443433434333333434343434343344343333333434343433443666555666   XXX666555666=%%=14344334433433334334344343343333343434343431*$%%",
"1111111111111111111111111111111111111111111111111111666555666   XXX666555666*%%=<211111111111111111111111111111111111111111<*$%%",
"================================*==*=====*==========666555666   XXX666555666%%%%====*==*=*==*==*==*==*=====*==*==*=*======**%%%%",
"%%$$$$$$%%$$$$$$$$%%%%%%%%$$$$$$%%%$%%$$%$$$%%%%%%$$                        %%%%%%%%%%%%%$%%$%%%%%$%%%$%%%%%%%$%%%%$%%%%%%$$%%%%",
"%%%%$$$$%%%%$$$$%%%%$$%%%%%%$$$$%%%%$%%%%$$$$$%%%%%%           ...          %%%%$%%$%%%%%%$$%%%%%%%%$$$$%%%%$%%%%$%$$$%%%%%%$%%%",
"===============*%%%%*===============*=*==*==========           XXX          ====*==*====*==*======*====*%%%%***==*===*======*===",
"111111112111121<*%$*<2111111111111111111111111111111    .ooX   ooo          111111111111111111111111111<*%%*<1111111111111111111",
"3433333334433331=%$=24433433333343344334333334433433  .XoOoX   OOO    ...   4343333334343333434334343341=%$*24433333433443433333",
"3333333333333331=$$=13333333333333333333333333333333  .XoOoX   OOO    .XX.  3333333333333333333333333331=%%=14333333333333333333",
"3333333333333331=$$=14333333333333333333333333333333ooXXX.     +++    .ooX  3333333333333333333333333331=%%=13333333333333333333",
"3333333333333341=$$=13333333333333333333333333333333oOX.       ooo     XXX  3333333333333333333333333341=%%=13333333333333333333",
"3333333333333331=$$=13333333333333333333333333333333oOX.       XXX     .OOo 3333333333333333333333333331*%$*13333333333333333333",
"3333333333333341=$$=13333333333333333333333333       ...      ...       +++       3333333333333333333341=%%=13333333333333333333",
"3333333333333331=$$=13333333333333333333333333  ...          .ooX       +++   .oOo3333333333333333333331*$$=13333333333333333333",
"3333333333333341=%$=13333333333333333333333333  Xoo.         .ooX       X++o  o+@o3333333333333333333341=%%=14333333333333333333",
"3333333333333331=%$=13333333333333333333333333..o++o         .XX.        +++  o@#O3333333333333333333331*%$*13333333333333333333",
"3333333333333341=%%=14333333333333333333333333..XO+O.                ... @@@  XOOX3333333333333333333341=%%=13333333333333333333",
"3333333333333331=%%=13333333333333333333333333...Xoo.                ... O@@oXXOoo3333333333333333333331=%%=14333333333333333333",
"3333333333333341=$$=13333333333333333333333333    ...  Xoo.          ... o++oooOXX3333333333333333333341=%%=14333333333333333333",
"3333333333333331=$$=13333333333333333333333333        .oOo.              X@@+ooo..3333333333333333333331=%%=13333333333333333333",
"3333333333333341=$%=13333333333333333333333333       oO@Oo.     XXX      .OOo...  3333333333333333333341*$%=14333333333333333333",
"3333333333333331=$$=13333333333333333333333333 XXX  .->:o       XXX       ooo     3333333333333333333331=$%=13333333333333333333",
"3333333333333341=%%=13333333333333333333333333 ooo  X:,>OX.   ..oXX       ...     3333333333333333333331=%%*13333333333333333333",
"3333333333333331*%$*14333333333333333333333333 O@@oXO-;-OOOo. .XX.                3333333333333333333341*%%=13333333333333333333",
"4343433443433442=%%=24433433333334434334434334 XOOoXooXXXO-#+ .OOo            ... 3443343443333343434342=%$*14344334344334344334",
"111111111111112<*%%=<2111111111111111111111111 .oooXX.   X#-@. ooo            ... 111111111111111111112<*%$*<1111111111111111111",
"===============*%%%%*==================**==*==            O@@X XXX      ...   ... =*=====*==*==*=======*%%%%*=======*==*==*==*==",
"%%%%%%$%%%$$$$$$%%%%%%$$%%$$$$$$%%$$$$%%$%%%%%             OOO          .XX.      %$%%%%%$%%$%%%$$$$$%%%%%%%%%%%%%%%%%%$%%$$%%%%",
"%%%%%$$$%%%%$$$$%%$%$$$$%%%%$$$$%%%%%%$$%%%%$%             OOO   ...    .OO@oo    %%%%%%%%$$%%%%$$$$$$%%%%%$%$%%%%%$%%%%$%%%$%$$",
"%%%%*=============*=================*==*====*=             OOO   ooo     OO-OO    ==%%%%*==*=====*===========*==*==*====*=*====*",
"%%%=<11111111111111111111111111111111111111111 XXo..       ooo   ooo     OO-OO    1<*$%*<111111111111111111111111111111111111111",
"%%%=133334433434343333333443343443433333433443 XX+OO.      OOO   XXX     OO+..    42*$%=1343434333334334333334433333434334333333",
"%%%=143333333333333333333333333333333333333333 XX###X      OOO           OOO      31=%%*1333333333333333333333333333333333333333",
"%%%=133333333333333333333333333333333333333333   O@-OX     OOO           +++      31*%%=1333333333333333333333333333333333333333",
"%%$=133333333333333333333333333333333333333333   Xo+oX    .ooX          .OOo...   31=%%*1333333333333333333333333333333333333333",
"%%$=143333333333333333333333333333333333333333     XXX    oOO.          XOOXXXX   41=%%=1433333333333333333333333333333333333333",
"%%$=133333333333333333333333333333333333333333            OOO      ... XOOX X@@O  31=%%=1433333333333333333333333333333333333333",
"%%$=133333333333333333333333333333333333333333            OOO      .ooX@##. .++O  41=%$*1333333333333333333333333333333333333333",
"%%$=133333333333333333333333333333333333333333            OOO      .ooX###   OOO  31*%%=1333333333333333333333333333333333333333",
"%%$=133333333333333333333333333333333333333333XXX    XXX  OOO       XXX+++        31=%%=1433333333333333333333333333333333333333",
"%%$=133333333333333333333333333333333333333333XXXXXX ooo .OOo        XXo..        31=%%=1333333333333333333333333333333333333333",
"%%$=133333333333333333333333333333333333333333XXXOOO OOO oOO.        ooo          31*%%=1433333333333333333333333333333333333333",
"%%%=133333333333333333333333333333333333333333   OOO +++.++O         ooo     XXX  31=%%*1333333333333333333333333333333333333333",
"%%%=133333333333333333333333333333333333333333  o++X OOO.@@+         XXX     +++  41=%%=1333333333333333333333333333333333333333",
"%%%=143343433333343433334343333334343333434333  OOO  ooo.++O         XXX     ---  31=%$*2433333334344334333334344334333334344334",
"%%%=<21111111111111111111111111111111111111111  OOO      +++         ooo     @@@  1<=%$*<211111111111111111111111111111111111111",
"%%%%**=*====*==*====*==*====*==*====*==*====*=..X..      OOO         oOO.    ooo  =*&%%%==*===*==*=*====*==*======*===*==*=*====",
"%%%%$$%%%%%%%%%$%%%%$$%%%%%%%%%$%%%%$$%%%%%%$%XXX       .+++XX.     .oOo.         %%%%%%%%$%%%$%%%%$%%%%$$%%%%%%%%$$$%$%%$%$%%%%",
"$%%%%%$%%%%%%%%%%%%$%%$%%%%%%%%%%%%$%%$%%%%%%%XXX       .oooooX     .XoX....      %%%%%%%%$%$%$%$$%%$%%%%$%%$$%%%%%%$%%%%$%%%%%$",
"*=====*=*==*====*==*==*=*==*====*==*==*=*==*==...  ooo  .XXXooX     ...  ooo      ========*=*=*==*==*==*==*==*======*=*==*==*==*",
"1111111111111111111111111111111111111111111111    .OOo      ...          ooo      1111111111111111111111111111111111111111111111",
"3333344343344343333334434334434333334334433443    X++o                   XXX      3443434343434333333443433434434343434333333443",
"3333333333333333333333333333333333333333333333   XOOX                             3333333333333333333333333333333333333333333333",
"3333333333333333333333333333333333333333333333   oOO143   XXX33333      3333  ... 3333333333333333333333333333333333333333333333",
"3333333333333333333333333333333333333333333333   ooo133   XXX33333      3333  ... 3333333333333333333333333333333333333333333333",
"3333333333333333333333333333333333333333333333 XXo..143   XXX33333      3333  ... 3333333333333333333333333333333333333333333333",
"3333333333333333333333333333333333333333333333 Xoo. 133      33333      3333      3333333333333333333333333333333333333333333333",
"3333333333333333333333333333333333333333333333 X++o 143      33333  ... 3333      3333333333333333333333333333333333333333333333",
"3333333333333333333333333333333333333333333333  OOO 133      33333  +++ 3333 ...  3333333333333333333333333333333333333333333333",
"3333333333333333333333333333333333333333333333  OOO 133 XXX  33333  ### 3333 XXX  3333333333333333333333333333333333333333333333",
"4334333334344334333334344334333334433333343434 .ooX 143 XXX  33343  @@@ 3333 OOO  3443343333343434433333343433334334333343434343",
"1111111111111111111111111111111111111111111111 Xoo. <11 XXX  11111  XXX 1111 OOO  1111111111111111111111111111111111111111111111",
"==*===*==*=*====*==*======*===*=======*==*=*== XXX  *==      =*==*      *==* OOO  =*====*==*========*==*====*==*======*==*=*====",
"%%$%%%$%%%%$%%%%$$%%%%%%%%$$$%$%%%%%%%$%%%%$%%.ooX  %%%      %$%%%      $$%% XXX  %$%%%%$$%%%%%%%%%%$$%%%%%%$%%%%%$$$$$%%%%$%%%%",
"%%%%$%$%$$%%$%%%%$%%$$%%%%%%$%%%%%%%%%%%$$%%$%.XX.  $$%      $$%%$      %$%% ...  %%$%%%%$%%$$%%$%%%%$%%%%%$%%%%%%%$$$$%%$%%$%%%",
"==*=*=*==*==*==*==*==*======*=**%%%&***==*==*=.XX.  =*=      ==*=*   ...==*=      ==*==*==*==*==*==*==*=*==*===========*=*==*==*",
"1111111111111111111111111111112<*$%=<211111111      111      11111   XXX1111   ...1111111111111111111111111111111111111111111111",
"34343434333343343443343434343441*%%=2434333343oo    434      34333   ooo3443   XXX3334434334344333334334433443434343434333333443",
"33333333333333333333333333333341=%%=1433333333++    333 ...  33333   OOO3333   XXX3333333333333333333333333333333333333333333333",
"33333333333333333333333333333331*%%=1333333333##    333 XXX  33333   OOO3333   ...3333333333333333333333333333333333333333333333",
"33333333333333333333333333333331=$$*1333333333OO    333 OOO  33333  X++o3333      3333333333333333333333333333333333333333333333",
"33333333333333333333333333333331=%%=1433333333XX    333 ooo  33333  Xoo.3333      3333333333333333333333333333333333333333333333",
"33333333333333333333333333333331*$%*1333333333      333 XXX  33333  XXX 3333  o++X3333333333333333333333333333333333333333333333",
"33333333333333333333333333333331=%%=1433333333  ooo 333      33333      3333  O@@X3333333333333333333333333333333333333333333333",
"33333333333333333333333333333341=%%=1333333333  ooo 333      33333      3333  O@@X3333333333333333333333333333333333333333333333",
"33333333333333333333333333333331*%$*1333333333  ooo 333      33333      3333 O++. 3333333333333333333333333333333333333333333333",
"33333333333333333333333333333341=%%=1333333333      333ooo   33333      3333.++O  3333333333333333333333333333333333333333333333",
"33333333333333333333333333333331*$$=1333333333  XXX 333ooo   33333  ... 3333.++O  3333333333333333333333333333333333333333333333",
"33333333333333333333333333333341=%%=1333333333  ooo 333ooo   33333  ... 3333...   3333333333333333333333333333333333333333333333",
"33333333333333333333333333333331*%$*1333333333  ooo 333      33333  ... 33333333333333333333333333333333333333333333333333333333",
"43433443433433334343434343433442=%%=1433343434343434433      33343      43343333433434434334333343433443344333333434343434344334",
"1111111111111111111111111111112<*%%=<211111111111111111      11111      11111111111111111111111111111111111111111111111111111111",
"====*==*=*==*==*=*=*======*==*=*%%%%==*=============*==      ==*==  ... *==*==*===*==*==*==*==*========*=*==*==*=*=*======*==*==",
"%%%%$%%%%%$%%%%$%%%$%%%%%%$$%%$%%%%%%%$%$$$$$%%%%%%%%%% ...  %%%%%  XXX $%%%%%$%%%$$%$%%$%%%%%$%%%%%%%%$%%%%$%%%%%%$%%%%%%$%%%$%",
"%%%%%%%%%%$$%%%%%$%$$$%%%%%%%%$$%%%%%%$%$$$$$$%%%%%$%%% XXX  %%%%%  ooo %%%%$%$%%%%%%%$$%%%%$%$%%%%%%%%%%%$$%%%%%$%$$$%%%%%%%%$$",
"*==*====*==*=====*===*======*==*======*=========*==*=== ooo  =====  OOO ====*=*=====*==*====*=*=*=**%%%%*==*=====*===*====*=*==*",
"1111111111111111111111111111111111111111111111111111111 XXX  11111  ooo 111111111111111111111111112<=%%*<11111111111111111111111",
"3333434333334343333334433434333334433433333343343333434 ...  43443  XXX 4334434343433333433443433342=%%=134343433333433443433333",
"3333333333333333333333333333333333333333333333333333333      33333      3333333333333333333333333331=%$=133333333333333333333333",
"3333333333333333333333333333333333333333333333333333333      33333      3333333333333333333333333331=%$*133333333333333333333333",
"3333333333333333333333333333333333333333333333333333333   ...33333      3333333333333333333333333331*$%=133333333333333333333333",
"3333333333333333333333333333333333333333333333333333333  Xoo.33333      3333333333333333333333333331=$%=143333333333333333333333",
"3333333333333333333333333333333333333333333333333333333  Xoo.33333    oo3333333333333333333333333331=%%*143333333333333333333333",
"3333333333333333333333333333333333333333333333333333333  XXX 33333    ++3333333333333333333333333331*$%=133333333333333333333333",
"3333333333333333333333333333333333333333333333333333333   XXX33333    ##3333333333333333333333333341=%$=133333333333333333333333",
"3333333333333333333333333333333333333333333333333333333   XXX33333    OO3333333333333333333333333331=%$*143333333333333333333333",
"3333333333333333333333333333333333333333333333333333333   XXX33333    XX3333333333333333333333333341=%%=133333333333333333333333",
"3333333333333333333333333333333333333333333333333333333      33333      3333333333333333333333333331=%%=143333333333333333333333",
"3333333333333333333333333333333333333333333333333333333      33333      3333333333333333333333333331=%%=133333333333333333333333",
"3333333333333333333333333333333333333333333333333333333333333333333333333333333333333333333333333341=%%=133333333333333333333333",
"4343344333334343343433333434433433333434343433334343344333334343433333333434433433333434434333334342*$%=143343433434333334344334",
"111111111111111111111111111111111111111111111111111111111111111111111111111111111111111111111111112<*$%*<11111111111111111111111",
"=*======*==*=*======*==*=*======*==*=*======*==*=*=========*=*======*====*=*====*==*=*======*==*====%%%%**===*======*==*=*======",
"%$%%%%%%$%%$%$%%%%%%$$%%%$%%%%%%$%%%%$$%%%%%$%%%%$%%%%%%$$$$%%%%%%%%$%%$%%%%%%%%$%%%%$%%%%%%$$%$%%%%%%%%$%%$%$%%%%%%$$%%%$%%%%%%",
"%%%%%%%%%%%%%%%%%%%%%%%%%%%%%%%%%%%%%%%%%%%%%%%%%%%%%%%%%%%%%%%%%%%%%%%%%%%%%%%%%%%%%%%%%%%%%%%%%%%%%%%%%%%%%%%%%%%%%%%%%%%%%%%%",
"%%%%%%%%%%%%%%%%%%%%%%%%%%%%%%%%%%%%%%%%%%%%%%%%%%%%%%%%%%%%%%%%%%%%%%%%%%%%%%%%%%%%%%%%%%%%%%%%%%%%%%%%%%%%%%%%%%%%%%%%%%%%%%%%"
};
