/* XPM */
static char *result[] = {
/* columns rows colors chars-per-pixel */
"128 128 37 1 ",
"  c black",
". c gray3",
"X c #101010",
"o c #181818",
"O c #060F32",
"+ c #202020",
"@ c #282828",
"# c gray19",
"$ c gray22",
"% c #081340",
"& c #0A174E",
"* c #0C1B5C",
"= c #0E1F6A",
"- c #102377",
"; c gray25",
": c #122784",
"> c #122785",
", c #142B91",
"< c #142B92",
"1 c #162F9E",
"2 c #162F9F",
"3 c #1833AB",
"4 c #1833AC",
"5 c #1A37B8",
"6 c #1A37B9",
"7 c #1C3BC6",
"8 c #1E3FD2",
"9 c #1E3FD3",
"0 c #2144DF",
"q c #2D4EE1",
"w c #2E4FE1",
"e c #3A59E3",
"r c #3B5AE3",
"t c #4865E5",
"y c #5570E7",
"u c #627BE9",
"i c #6F86EB",
/* pixels */
"oooo........XXXX++++oooo............XXXXoooo########++++@@@@oooo....oooo++++ooooooooXXXX........XXXXXXXX........oooo@@@@@@@@oooo",
"oooo........XXXX++++oooo............XXXXoooo########++++@@@@oooo....oooo++++ooooooooXXXX........XXXXXXXX........oooo@@@@@@@@oooo",
"oooo........XXXX++++oooo............XXXXoooo########++++@@@@oooo....oooo++++ooooooooXXXX........XXXXXXXX........oooo@@@@@@@@oooo",
"oooo........XXXX++++oooo............XXXXoooo########++++@@@@oooo....oooo++++ooooooooXXXX........XXXXXXXX........oooo@@@@@@@@oooo",
"oooo........XXXX++++oooo............XXXXoooo########++++@@@@XXXX        ++++ooooooooXXXX........XXXXXXXX........oooo@@@@@@@@oooo",
"oooo........XXXX++++oooo............XXXXoooo########++++@@@@XXXX        ++++ooooooooXXXX........XXXXXXXX........oooo@@@@@@@@oooo",
"oooo........XXXX++++oooo............XXXXoooo########++++@@@@XXXX        ++++ooooooooXXXX........XXXXXXXX........oooo@@@@@@@@oooo",
"oooo........XXXX++++oooo............XXXXoooo########++++@@@@XXXX        ++++ooooooooXXXX........XXXXXXXX........oooo@@@@@@@@oooo",
"@@@@@@@@4444222222224444<<<<<<<<4444====****22224444444444442222----========>>>>4444444444444444444444449999000066664444........",
"@@@@@@@@4444222222224444<<<<<<<<4444====****22224444444444442222----========>>>>4444444444444444444444449999000066664444........",
"@@@@@@@@4444222222224444<<<<<<<<4444====****22224444444444442222----========>>>>4444444444444444444444449999000066664444........",
"@@@@@@@@4444222222224444<<<<<<<<4444====****22224444444444442222----========>>>>4444444444444444444444449999000066664444........",
"@@@@@@@@4444222222222222>>>><<<<2222--------2222444400003333----4444<<<<====----<<<<--------<<<<222244449999000066664444........",
"@@@@@@@@4444222222222222>>>><<<<2222--------2222444400003333----4444<<<<====----<<<<--------<<<<222244449999000066664444........",
"@@@@@@@@4444222222222222>>>><<<<2222--------2222444400003333----4444<<<<====----<<<<--------<<<<222244449999000066664444........",
"@@@@@@@@4444222222222222>>>><<<<2222--------2222444400003333----4444<<<<====----<<<<--------<<<<222244449999000066664444........",
"........4444>>>>----<<<<22226666,,,,5555000044449999tttt5555<<<<9999000077772222<<<<--------<<<<22224444--------wwwwwwwwXXXXXXXX",
"........4444>>>>----<<<<22226666,,,,5555000044449999tttt5555<<<<9999000077772222<<<<--------<<<<22224444--------wwwwwwwwXXXXXXXX",
"........4444>>>>----<<<<22226666,,,,5555000044449999tttt5555<<<<9999000077772222<<<<--------<<<<22224444--------wwwwwwwwXXXXXXXX",
"........4444>>>>----<<<<22226666,,,,5555000044449999tttt5555<<<<9999000077772222<<<<--------<<<<22224444--------wwwwwwwwXXXXXXXX",
"XXXXXXXX4444====****22229999rrrr1111,,,,7777444499999999666677779999000099997777777766664444444444444444----::::yyyyttttXXXXXXXX",
"XXXXXXXX4444====****22229999rrrr1111,,,,7777444499999999666677779999000099997777777766664444444444444444----::::yyyyttttXXXXXXXX",
"XXXXXXXX4444====****22229999rrrr1111,,,,7777444499999999666677779999000099997777777766664444444444444444----::::yyyyttttXXXXXXXX",
"XXXXXXXX4444====****22229999rrrr1111,,,,7777444499999999666677779999000099997777777766664444444444444444----::::yyyyttttXXXXXXXX",
";;;;XXXX4444<<<<<<<<44440000rrrr----****44444444<<<<<<<<44444444>>>>>>>>6666777777772222<<<<4444wwwwwwww4444666699997777........",
";;;;XXXX4444<<<<<<<<44440000rrrr----****44444444<<<<<<<<44444444>>>>>>>>6666777777772222<<<<4444wwwwwwww4444666699997777........",
";;;;XXXX4444<<<<<<<<44440000rrrr----****44444444<<<<<<<<44444444>>>>>>>>6666777777772222<<<<4444wwwwwwww4444666699997777........",
";;;;XXXX4444<<<<<<<<44440000rrrr----****44444444<<<<<<<<44444444>>>>>>>>6666777777772222<<<<4444wwwwwwww4444666699997777........",
"$$$$....444466667777666600000000--------444499996666<<<<44444444>>>>>>>>444444444444<<<<>>>>2222wwwwwwww4444777777774444........",
"$$$$....444466667777666600000000--------444499996666<<<<44444444>>>>>>>>444444444444<<<<>>>>2222wwwwwwww4444777777774444........",
"$$$$....444466667777666600000000--------444499996666<<<<44444444>>>>>>>>444444444444<<<<>>>>2222wwwwwwww4444777777774444........",
"$$$$....444466667777666600000000--------444499996666<<<<44444444>>>>>>>>444444444444<<<<>>>>2222wwwwwwww4444777777774444........",
"$$$$....4444666600000000uuuuuuuuwwww00004444rrrrrrrr4444444444444444444444442222====----22222222222222229999wwwwyyyyrrrr........",
"$$$$....4444666600000000uuuuuuuuwwww00004444rrrrrrrr4444444444444444444444442222====----22222222222222229999wwwwyyyyrrrr........",
"$$$$....4444666600000000uuuuuuuuwwww00004444rrrrrrrr4444444444444444444444442222====----22222222222222229999wwwwyyyyrrrr........",
"$$$$....4444666600000000uuuuuuuuwwww00004444rrrrrrrr4444444444444444444444442222====----22222222222222229999wwwwyyyyrrrr........",
";;;;XXXX9999tttttttt77779999wwwwyyyytttt7777wwww9999444444444444>>>>>>>>44446666::::----44444444>>>>>>>>99999999rrrrrrrroooooooo",
";;;;XXXX9999tttttttt77779999wwwwyyyytttt7777wwww9999444444444444>>>>>>>>44446666::::----44444444>>>>>>>>99999999rrrrrrrroooooooo",
";;;;XXXX9999tttttttt77779999wwwwyyyytttt7777wwww9999444444444444>>>>>>>>44446666::::----44444444>>>>>>>>99999999rrrrrrrroooooooo",
";;;;XXXX9999tttttttt77779999wwwwyyyytttt7777wwww9999444444444444>>>>>>>>44446666::::----44444444>>>>>>>>99999999rrrrrrrroooooooo",
"XXXXXXXXrrrriiiiwwww2222>>>>22220000wwww0000000077777777777799992222>>>>444499990000666644444444--------4444222222224444oooooooo",
"XXXXXXXXrrrriiiiwwww2222>>>>22220000wwww0000000077777777777799992222>>>>444499990000666644444444--------4444222222224444oooooooo",
"XXXXXXXXrrrriiiiwwww2222>>>>22220000wwww0000000077777777777799992222>>>>444499990000666644444444--------4444222222224444oooooooo",
"XXXXXXXXrrrriiiiwwww2222>>>>22220000wwww0000000077777777777799992222>>>>444499990000666644444444--------4444222222224444oooooooo",
"........99999999444444444444444466667777777777772222rrrruuuu999977774444444466667777777799997777--------4444========4444@@@@@@@@",
"........99999999444444444444444466667777777777772222rrrruuuu999977774444444466667777777799997777--------4444========4444@@@@@@@@",
"........99999999444444444444444466667777777777772222rrrruuuu999977774444444466667777777799997777--------4444========4444@@@@@@@@",
"........99999999444444444444444466667777777777772222rrrruuuu999977774444444466667777777799997777--------4444========4444@@@@@@@@",
"........444444442222<<<<>>>><<<<4444444444444444>>>>0000uuuu99992222<<<<4444444444446666wwww0000<<<<<<<<4444&&&&&&&&4444########",
"........444444442222<<<<>>>><<<<4444444444444444>>>>0000uuuu99992222<<<<4444444444446666wwww0000<<<<<<<<4444&&&&&&&&4444########",
"........444444442222<<<<>>>><<<<4444444444444444>>>>0000uuuu99992222<<<<4444444444446666wwww0000<<<<<<<<4444&&&&&&&&4444########",
"........444444442222<<<<>>>><<<<4444444444444444>>>>0000uuuu99992222<<<<4444444444446666wwww0000<<<<<<<<4444&&&&&&&&4444########",
"........22222222<<<<>>>>>>>><<<<44444444222222224444444477779999****&&&&4444<<<<----<<<<99999999444444444444>>>>>>>>4444XXXXXXXX",
"........22222222<<<<>>>>>>>><<<<44444444222222224444444477779999****&&&&4444<<<<----<<<<99999999444444444444>>>>>>>>4444XXXXXXXX",
"........22222222<<<<>>>>>>>><<<<44444444222222224444444477779999****&&&&4444<<<<----<<<<99999999444444444444>>>>>>>>4444XXXXXXXX",
"........22222222<<<<>>>>>>>><<<<44444444222222224444444477779999****&&&&4444<<<<----<<<<99999999444444444444>>>>>>>>4444XXXXXXXX",
"........&&&&&&&&2222222244442222222244442222<<<<2222444444444444========<<<<--------<<<<66660000999944444444<<<<<<<<4444........",
"........&&&&&&&&2222222244442222222244442222<<<<2222444444444444========<<<<--------<<<<66660000999944444444<<<<<<<<4444........",
"........&&&&&&&&2222222244442222222244442222<<<<2222444444444444========<<<<--------<<<<66660000999944444444<<<<<<<<4444........",
"........&&&&&&&&2222222244442222222244442222<<<<2222444444444444========<<<<--------<<<<66660000999944444444<<<<<<<<4444........",
"........********444444442222---->>>>44444444<<<<<<<<44444444444444444444>>>>>>>>44444444<<<<9999000022224444>>>>>>>>4444........",
"........********444444442222---->>>>44444444<<<<<<<<44444444444444444444>>>>>>>>44444444<<<<9999000022224444>>>>>>>>4444........",
"........********444444442222---->>>>44444444<<<<<<<<44444444444444444444>>>>>>>>44444444<<<<9999000022224444>>>>>>>>4444........",
"........********444444442222---->>>>44444444<<<<<<<<44444444444444444444>>>>>>>>44444444<<<<9999000022224444>>>>>>>>4444........",
"XXXX....444444444444<<<<>>>>>>>><<<<44442222---->>>>444444444444666666662222222244446666::::33336666>>>>4444>>>>>>>>4444oooooooo",
"XXXX....444444444444<<<<>>>>>>>><<<<44442222---->>>>444444444444666666662222222244446666::::33336666>>>>4444>>>>>>>>4444oooooooo",
"XXXX....444444444444<<<<>>>>>>>><<<<44442222---->>>>444444444444666666662222222244446666::::33336666>>>>4444>>>>>>>>4444oooooooo",
"XXXX....444444444444<<<<>>>>>>>><<<<44442222---->>>>444444444444666666662222222244446666::::33336666>>>>4444>>>>>>>>4444oooooooo",
"XXXX....444444444444========<<<<<<<<4444----****<<<<4444>>>>&&&&::::99997777444444449999eeeeqqqq,,,,----4444--------4444@@@@@@@@",
"XXXX....444444444444========<<<<<<<<4444----****<<<<4444>>>>&&&&::::99997777444444449999eeeeqqqq,,,,----4444--------4444@@@@@@@@",
"XXXX....444444444444========<<<<<<<<4444----****<<<<4444>>>>&&&&::::99997777444444449999eeeeqqqq,,,,----4444--------4444@@@@@@@@",
"XXXX....444444444444========<<<<<<<<4444----****<<<<4444>>>>&&&&::::99997777444444449999eeeeqqqq,,,,----4444--------4444@@@@@@@@",
"........4444>>>>>>>>>>>>>>>><<<<<<<<4444>>>>>>>>44444444----%%%%----77777777444466666666wwwwtttt4444<<<<4444&&&&&&&&4444oooooooo",
"........4444>>>>>>>>>>>>>>>><<<<<<<<4444>>>>>>>>44444444----%%%%----77777777444466666666wwwwtttt4444<<<<4444&&&&&&&&4444oooooooo",
"........4444>>>>>>>>>>>>>>>><<<<<<<<4444>>>>>>>>44444444----%%%%----77777777444466666666wwwwtttt4444<<<<4444&&&&&&&&4444oooooooo",
"........4444>>>>>>>>>>>>>>>><<<<<<<<4444>>>>>>>>44444444----%%%%----77777777444466666666wwwwtttt4444<<<<4444&&&&&&&&4444oooooooo",
"++++....4444****&&&&2222--------4444444444442222222244442222222277777777444444446666<<<<>>>>7777777777777777&&&&%%%%2222........",
"++++....4444****&&&&2222--------4444444444442222222244442222222277777777444444446666<<<<>>>>7777777777777777&&&&%%%%2222........",
"++++....4444****&&&&2222--------4444444444442222222244442222222277777777444444446666<<<<>>>>7777777777777777&&&&%%%%2222........",
"++++....4444****&&&&2222--------4444444444442222222244442222222277777777444444446666<<<<>>>>7777777777777777&&&&%%%%2222........",
"++++....4444====%%%%>>>>----====>>>><<<<444422222222222222226666000099996666666644442222222244444444777700004444>>>>2222........",
"++++....4444====%%%%>>>>----====>>>><<<<444422222222222222226666000099996666666644442222222244444444777700004444>>>>2222........",
"++++....4444====%%%%>>>>----====>>>><<<<444422222222222222226666000099996666666644442222222244444444777700004444>>>>2222........",
"++++....4444====%%%%>>>>----====>>>><<<<444422222222222222226666000099996666666644442222222244444444777700004444>>>>2222........",
"........4444>>>>====<<<<2222====****<<<<444444444444>>>>>>>>666677774444,,,,11114444444444444444444444444444444444444444XXXXXXXX",
"........4444>>>>====<<<<2222====****<<<<444444444444>>>>>>>>666677774444,,,,11114444444444444444444444444444444444444444XXXXXXXX",
"........4444>>>>====<<<<2222====****<<<<444444444444>>>>>>>>666677774444,,,,11114444444444444444444444444444444444444444XXXXXXXX",
"........4444>>>>====<<<<2222====****<<<<444444444444>>>>>>>>666677774444,,,,11114444444444444444444444444444444444444444XXXXXXXX",
"XXXX....4444222222224444>>>>****>>>>4444444400000000<<<<<<<<444444442222::::,,,,444444444444444444444444========--------XXXXXXXX",
"XXXX....4444222222224444>>>>****>>>>4444444400000000<<<<<<<<444444442222::::,,,,444444444444444444444444========--------XXXXXXXX",
"XXXX....4444222222224444>>>>****>>>>4444444400000000<<<<<<<<444444442222::::,,,,444444444444444444444444========--------XXXXXXXX",
"XXXX....4444222222224444>>>>****>>>>4444444400000000<<<<<<<<444444442222::::,,,,444444444444444444444444========--------XXXXXXXX",
"XXXX....4444444444444444<<<<<<<<444444446666wwww0000444444444444444444444444444444446666777766662222<<<<::::<<<<--------........",
"XXXX....4444444444444444<<<<<<<<444444446666wwww0000444444444444444444444444444444446666777766662222<<<<::::<<<<--------........",
"XXXX....4444444444444444<<<<<<<<444444446666wwww0000444444444444444444444444444444446666777766662222<<<<::::<<<<--------........",
"XXXX....4444444444444444<<<<<<<<444444446666wwww0000444444444444444444444444444444446666777766662222<<<<::::<<<<--------........",
"........<<<<<<<<6666666644442222>>>><<<<tttttttt4444&&&&&&&&444444444444444499999999666677776666666677777777777766664444........",
"........<<<<<<<<6666666644442222>>>><<<<tttttttt4444&&&&&&&&444444444444444499999999666677776666666677777777777766664444........",
"........<<<<<<<<6666666644442222>>>><<<<tttttttt4444&&&&&&&&444444444444444499999999666677776666666677777777777766664444........",
"........<<<<<<<<6666666644442222>>>><<<<tttttttt4444&&&&&&&&444444444444444499999999666677776666666677777777777766664444........",
"........<<<<<<<<999999994444----****<<<<ttttrrrr<<<<OOOO%%%%444444444444444422222222444444444444777700007777wwwwwwww4444XXXXXXXX",
"........<<<<<<<<999999994444----****<<<<ttttrrrr<<<<OOOO%%%%444444444444444422222222444444444444777700007777wwwwwwww4444XXXXXXXX",
"........<<<<<<<<999999994444----****<<<<ttttrrrr<<<<OOOO%%%%444444444444444422222222444444444444777700007777wwwwwwww4444XXXXXXXX",
"........<<<<<<<<999999994444----****<<<<ttttrrrr<<<<OOOO%%%%444444444444444422222222444444444444777700007777wwwwwwww4444XXXXXXXX",
"........4444444477777777<<<<====>>>>4444ttttrrrr<<<<<<<<2222444444442222<<<<&&&&****44444444,,,,,,,,4444----8888tttt4444XXXXXXXX",
"........4444444477777777<<<<====>>>>4444ttttrrrr<<<<<<<<2222444444442222<<<<&&&&****44444444,,,,,,,,4444----8888tttt4444XXXXXXXX",
"........4444444477777777<<<<====>>>>4444ttttrrrr<<<<<<<<2222444444442222<<<<&&&&****44444444,,,,,,,,4444----8888tttt4444XXXXXXXX",
"........4444444477777777<<<<====>>>>4444ttttrrrr<<<<<<<<2222444444442222<<<<&&&&****44444444,,,,,,,,4444----8888tttt4444XXXXXXXX",
"++++....4444<<<<<<<<4444<<<<<<<<00000000rrrryyyy77779999999944444444444422227777rrrr99994444,,,,::::<<<<&&&&3333rrrr4444........",
"++++....4444<<<<<<<<4444<<<<<<<<00000000rrrryyyy77779999999944444444444422227777rrrr99994444,,,,::::<<<<&&&&3333rrrr4444........",
"++++....4444<<<<<<<<4444<<<<<<<<00000000rrrryyyy77779999999944444444444422227777rrrr99994444,,,,::::<<<<&&&&3333rrrr4444........",
"++++....4444<<<<<<<<4444<<<<<<<<00000000rrrryyyy77779999999944444444444422227777rrrr99994444,,,,::::<<<<&&&&3333rrrr4444........",
"++++....4444<<<<>>>><<<<22224444wwwwwwww4444777777770000wwww66660000tttt9999wwwwyyyyrrrrwwww9999777744445555wwww99994444oooooooo",
"++++....4444<<<<>>>><<<<22224444wwwwwwww4444777777770000wwww66660000tttt9999wwwwyyyyrrrrwwww9999777744445555wwww99994444oooooooo",
"++++....4444<<<<>>>><<<<22224444wwwwwwww4444777777770000wwww66660000tttt9999wwwwyyyyrrrrwwww9999777744445555wwww99994444oooooooo",
"++++....4444<<<<>>>><<<<22224444wwwwwwww4444777777770000wwww66660000tttt9999wwwwyyyyrrrrwwww9999777744445555wwww99994444oooooooo",
"........444444442222<<<<22224444666666664444444444446666777766660000rrrr7777444444449999wwww9999999977770000000044444444oooooooo",
"........444444442222<<<<22224444666666664444444444446666777766660000rrrr7777444444449999wwww9999999977770000000044444444oooooooo",
"........444444442222<<<<22224444666666664444444444446666777766660000rrrr7777444444449999wwww9999999977770000000044444444oooooooo",
"........444444442222<<<<22224444666666664444444444446666777766660000rrrr7777444444449999wwww9999999977770000000044444444oooooooo",
"@@@@@@@@............XXXXXXXX............++++####oooo........oooooooo....................oooooooo............++++++++oooooooo....",
"@@@@@@@@............XXXXXXXX............++++####oooo........oooooooo....................oooooooo............++++++++oooooooo....",
"@@@@@@@@............XXXXXXXX............++++####oooo........oooooooo....................oooooooo............++++++++oooooooo....",
"@@@@@@@@............XXXXXXXX............++++####oooo........oooooooo....................oooooooo............++++++++oooooooo....",
"@@@@@@@@............XXXXXXXX............++++####oooo........oooooooo....................oooooooo............++++++++oooooooo....",
"@@@@@@@@............XXXXXXXX............++++####oooo........oooooooo....................oooooooo............++++++++oooooooo....",
"@@@@@@@@............XXXXXXXX............++++####oooo........oooooooo....................oooooooo............++++++++oooooooo....",
"@@@@@@@@............XXXXXXXX............++++####oooo........oooooooo....................oooooooo............++++++++oooooooo...."
};
