/* XPM */
static char *ca01d9a8475241dcb6cf9807bea08ee0gPeA8ckAUjPuglGw[] = {
/* columns rows colors chars-per-pixel */
"64 64 48 1 ",
"  c black",
". c #000501",
"X c #012306",
"o c #023208",
"O c #02410A",
"+ c #03500C",
"@ c #045F0E",
"# c #056811",
"$ c #056E10",
"% c #067713",
"& c #067D12",
"* c #078615",
"= c #078A14",
"- c #078C14",
"; c #089517",
": c #089B16",
"> c #09A319",
", c #09A419",
"< c #09AA18",
"1 c #0AB31B",
"2 c #0AB71A",
"3 c #0AB81A",
"4 c #0BBF1D",
"5 c #0BC11D",
"6 c #0BC61C",
"7 c #0CCF1F",
"8 c #0CD41E",
"9 c #0DDD21",
"0 c #0DE220",
"q c #0EEB23",
"w c #0EEA24",
"e c #0EF022",
"r c #17F12C",
"t c #1CF22F",
"y c #21F239",
"u c #25F239",
"i c #2FF346",
"p c #33F346",
"a c #3EF453",
"s c #41F453",
"d c #4FF560",
"f c #5DF66D",
"g c #67F77A",
"h c #6BF77A",
"j c #7AF887",
"k c #87F994",
"l c #88F994",
"z c #97FAA1",
/* pixels */
"----&&&-------+++---3808663<:----$$$---------$$$----------&&&---",
"---@OO$-&&&---+++---3808663<:---$+O@&--:688<:$$$-------$$$&&&&&&",
"&&&@OO$-&&&<36<:-----<38663<:---$+O@&--&68e<:$$<88:----$$$&&&&&&",
"&&&,;;57579uuuq977777uuu7779997711,55775updq977usdr9777111777&&&",
"&&&79qq979quuuq977777uuu79qrq9777799711,77q79rrssdr9777799977---",
"---rupq979qq9777777qsjfu79qrq9777799711577uuprrq9qq97777rrr75&&-",
"---rup<:-<<<-------6tt6--:<<:-----::-$$&--88033<--------rrr75$$&",
"---rrr---333-------6tt6-------&$$&--------888-----------qqq75$$&",
"$$-999---333-------<<<--------&$@++++@$---:::----@@@----77777&&&",
"$$-uuu---999777777777751,1577751,;;;;;;1577777777,,,7--&99q77---",
"$$-ppp---79997777777,*%;,15779995,;;;;;15111777775557--&qqr77---",
"---ppp---7qqq7777777,*%;,157799977777511511171117qqq7--&qqr77---",
"---ddd---9uu3-$@O@$<&@O$-----:::---------$$$-$++$<qq7---99977---",
"---jjj---9rr<@oXo@$<<<-----------&&&---------$+O+$577---99977&&&",
"---zzz---9qq:@oXo@$<<<-----------&&&----------$@+@157---rrr77&&&",
"-$$pdd---777-@+;57777777777777999111777999,**17&$@157---rrr77&&&",
"-$$9rr---777---7rrr77777777777999555777999,**17--&579:--qqq77---",
"-$$177-@@qpp---7ppp77777777777999555777999,**17---79u63-77777---",
"---777:$$rss---7ppp77777777777;;;77777777777777---79u63-qqq77---",
"---777<&$rsd---7qqq-----------+++-&&&--&$@$5777---77r33-uuu77---",
"---77766-99p---7777&&$&&---&&&+++-&&&--&$@$5777---777--:ppu77---",
"&&&77766-99p---7777&&$&&---&&&::63<&&--&$@$577;++-777--:rrq77---",
"&&&77738<r9u---qqq7&&$557ruu97quddpq7777---775*O+-777-$&59777---",
"&&&777:66u99---ddd7$$$777sdfq9qufhfu9777---775*O+-777-oo%7777---",
"---777-66u77---hhh1++$7rrhdhpppp799duq77---7755&--777-oo%7777---",
"---777$--r99---ddd1++$7rrsq717rq>%,ufsr9&&&7777---555-O+;q997---",
"---77,oO$rqq---qqq1$$-7rrq1;49pp5%#qhhp9@@@7777---555-&:9uqq7---",
"---991oo@rrr---rrr7---rr91,1%#%7u9,,ufsq@@@7799:--555-&2rsqq7---",
"&&&rr7++&rrr---ppp7---uuuwwr5,,9pu5,5uuq---7799:--777--8ps997---",
"&&&ppu&&-uuu---ppp7---ddfuiq,%,5uuq;*5uu666q9qq:--777--8pp999---",
"&&&ppu$$&rrr---uuu7@@@upfss,51sqrqr,;;rr600u999---777--3rrqqq---",
"---dds@+@9qq---rrr7@@@rusru195u9qqp7;#5q<88p999---777--:99rrr---",
"---fff@+o9qu---ppp7@@@79sppwiuq777r9,%;7-66p997---777--&77rqq---",
"---dddOo.qud:--uuu5&&-7qdsaadp7771771;;7-33u997-::977--$99u99---",
"---rrrOX rdj<--rrr5&&-7phfaadu775,,15557-33u997-::977--+77u77---",
"---777+oX9sd3--9995&&-7ssspss9rsaw55rrr7-<<q777-::977--+99p77---",
"---777&@@9dd6--qqq7---7sshdpq1rsddpsrrwq:::9777---777-&O57u77---",
"---777---udd3--qqq7$$$7rrspr719sgkdpwyyu:--7777222777-&@9pdr5&&-",
"&&&777---dhh<--qrr9$$$7qqprr797qrspu599u:--7777222777-&$9psr5&&-",
"&&&qqq-&&pss---7999$$$77777qqu9rqr9559qq<==1777222777---qppr5&&-",
"&&&qpp3&$rup---7uuu---77777qqurr97777777<==1777---799:--99977---",
"---qpp3&O57u:::7ppp---777777799977777777<==1777---799:--77777---",
"---7rr3-+77u:<3qhff----------$$$-----$$$---7777---797-&-77777---",
"---777--+55r:<3sjhp----------$$$-----$$$---7777---771$$-77777---",
"---777--$559-:<djhu----------$$$-----$$$---7777---75,@$-7117q<--",
"---777--$117---sdlpu77777777777777777777555775;+@-7,;+&-711rp8--",
"---qqq--&115---qrdpu77111777777qqq777777555775;+@-5;;@--711rp8--",
"&&&uuu---555---99puu7711177751;159777777555775;+@-5,,$--777rr3--",
"&&&ppp---777----------$$$---&$+$&:----------------555---77777---",
"&&&rrr---777---------666----&$++@&----------------777---77777---",
"---999---777---------666------------------------::977---77799:--",
"---999---777777555777uuu777777qqq777777111777779qq977&&&777qq:&&",
"---ppp---777777999777777777777qqrqq977711177779qrq977$$$779rr:&&",
"---sss---777777999777777777777qqrqpur771117qrpuuq9777@OO17qrr-&&",
"-&&upp----$$$--<<<--------------:<863--:<6686863$@@--$++17qqq---",
"-&&799----$$$---$$$<33:-----------3-&+&:<668683<@$&<:&@@17999---",
"-&&qrr----$$$---$$$<3063-----------@++&:<663:---XoO<:---77777---",
"&&-rrr7777777777111qrsur7777777qqq7,;;5999777777;,1q97777uuu7---",
"&&-rrr7779rrq779qrrq9rrr7779qrupuq777779qrrq9777;;;ussuuusuu7---",
"&&-7777779rrq779qrrq97999779qrupuq777779qrrq9777777ussuuusuu7---",
"---7777779rrq779qrrq97999779qrurq77777779qrq9777777ussuuuq777---",
"------@@@------$$$----:::-----------&&&------------&&&------&&&-",
"-$$$--@@@------$$$------------------&&&------------&&&------&&&-",
"-$$$--@@@------$$$------------------&&&------------&&&------&&&-"
};
