/* XPM */
static char *result[] = {
/* columns rows colors chars-per-pixel */
"128 128 66 1 ",
"  c black",
". c #00030C",
"X c #01061B",
"o c #101010",
"O c #010A2A",
"+ c #000B2A",
"@ c #030C39",
"# c #020D39",
"$ c #000F39",
"% c gray22",
"& c #040F48",
"* c #031048",
"= c #021148",
"- c #011248",
"; c #051256",
": c #041357",
"> c #031457",
", c #021557",
"< c #011657",
"1 c #051666",
"2 c #041766",
"3 c #021966",
"4 c #011A66",
"5 c #001B66",
"6 c #071872",
"7 c #051A75",
"8 c #021D75",
"9 c #011E75",
"0 c #001F75",
"q c #061D82",
"w c #071C84",
"e c #061D84",
"r c #081F92",
"t c #022184",
"y c #062192",
"u c #072093",
"i c #022593",
"p c #012693",
"a c #002793",
"s c #0724A1",
"d c #0922A0",
"f c #0823A2",
"g c #0229A2",
"h c #012AA2",
"j c #0A25AE",
"k c #0926B0",
"l c #0827B0",
"z c #0926B1",
"x c #022DB1",
"c c #012EB1",
"v c #0A29BE",
"b c #0A29BF",
"n c #092ABF",
"m c #0A29C0",
"M c #0B2CCE",
"N c #0A2DCE",
"B c #0132C0",
"V c #0235CF",
"C c #0C2FDC",
"Z c #0239DE",
"A c #0D32EB",
"S c #153AF2",
"D c #1F57FD",
"F c #2346F3",
"G c #3152F4",
"H c #4F6AF6",
/* pixels */
"77777777ffffffffeeeeeeee7777777777777777OOOOXXXX>>>>>>>>7777eeee2222XXXXXXXX>>>>2222eeeeuuuueeee22222222777777777777MMMMMMMM7777",
"77777777ffffffffeeeeeeee7777777777777777OOOOXXXX>>>>>>>>7777eeee2222XXXXXXXX>>>>2222eeeeuuuueeee22222222777777777777MMMMMMMM7777",
"77777777ffffffffeeeeeeee7777777777777777OOOOXXXX>>>>>>>>7777eeee2222XXXXXXXX>>>>2222eeeeuuuueeee22222222777777777777MMMMMMMM7777",
"77777777ffffffffeeeeeeee7777777777777777OOOOXXXX>>>>>>>>7777eeee2222XXXXXXXX>>>>2222eeeeuuuueeee22222222777777777777MMMMMMMM7777",
"77777777AAAAAAAAeeee,,,,####>>>>22227777<<<<;;;;2222>>>>7777uuuu7777XXXX####uuuuuuuuuuuuffffuuuueeeeuuuu2222>>>>2222DDDDHHHHeeee",
"77777777AAAAAAAAeeee,,,,####>>>>22227777<<<<;;;;2222>>>>7777uuuu7777XXXX####uuuuuuuuuuuuffffuuuueeeeuuuu2222>>>>2222DDDDHHHHeeee",
"77777777AAAAAAAAeeee,,,,####>>>>22227777<<<<;;;;2222>>>>7777uuuu7777XXXX####uuuuuuuuuuuuffffuuuueeeeuuuu2222>>>>2222DDDDHHHHeeee",
"77777777AAAAAAAAeeee,,,,####>>>>22227777<<<<;;;;2222>>>>7777uuuu7777XXXX####uuuuuuuuuuuuffffuuuueeeeuuuu2222>>>>2222DDDDHHHHeeee",
"7777ffffAAAAmmmm7777====1111mmmmMMMMffffffffzzzzeeeeeeeeffffMMMMzzzz7777uuuuzzzzffffeeee77772222eeeezzzz....    ====jjjjVVVVzzzz",
"7777ffffAAAAmmmm7777====1111mmmmMMMMffffffffzzzzeeeeeeeeffffMMMMzzzz7777uuuuzzzzffffeeee77772222eeeezzzz....    ====jjjjVVVVzzzz",
"7777ffffAAAAmmmm7777====1111mmmmMMMMffffffffzzzzeeeeeeeeffffMMMMzzzz7777uuuuzzzzffffeeee77772222eeeezzzz....    ====jjjjVVVVzzzz",
"7777ffffAAAAmmmm7777====1111mmmmMMMMffffffffzzzzeeeeeeeeffffMMMMzzzz7777uuuuzzzzffffeeee77772222eeeezzzz....    ====jjjjVVVVzzzz",
"7777MMMMpppp####77772222eeeemmmmMMMMffff777777777777ffffbbbbkkkkeeee2222777777777777>>>>====>>>>zzzzMMMMXXXX    XXXX77777777zzzz",
"7777MMMMpppp####77772222eeeemmmmMMMMffff777777777777ffffbbbbkkkkeeee2222777777777777>>>>====>>>>zzzzMMMMXXXX    XXXX77777777zzzz",
"7777MMMMpppp####77772222eeeemmmmMMMMffff777777777777ffffbbbbkkkkeeee2222777777777777>>>>====>>>>zzzzMMMMXXXX    XXXX77777777zzzz",
"7777MMMMpppp####77772222eeeemmmmMMMMffff777777777777ffffbbbbkkkkeeee2222777777777777>>>>====>>>>zzzzMMMMXXXX    XXXX77777777zzzz",
"eeeezzzz&&&&$$$$eeee>>>>eeeeeeee222277777777eeeeuuuuffffuuuu2222>>>>2222eeeeeeee7777>>>>>>>>7777mmmmmmmm7777XXXXXXXXmmmmmmmmeeee",
"eeeezzzz&&&&$$$$eeee>>>>eeeeeeee222277777777eeeeuuuuffffuuuu2222>>>>2222eeeeeeee7777>>>>>>>>7777mmmmmmmm7777XXXXXXXXmmmmmmmmeeee",
"eeeezzzz&&&&$$$$eeee>>>>eeeeeeee222277777777eeeeuuuuffffuuuu2222>>>>2222eeeeeeee7777>>>>>>>>7777mmmmmmmm7777XXXXXXXXmmmmmmmmeeee",
"eeeezzzz&&&&$$$$eeee>>>>eeeeeeee222277777777eeeeuuuuffffuuuu2222>>>>2222eeeeeeee7777>>>>>>>>7777mmmmmmmm7777XXXXXXXXmmmmmmmmeeee",
"ffffffffXXXX4444zzzz2222mmmmmmmm77777777>>>>2222uuuueeee7777777777777777eeeeffffuuuueeeeeeee7777222222227777>>>>2222CCCCMMMM7777",
"ffffffffXXXX4444zzzz2222mmmmmmmm77777777>>>>2222uuuueeee7777777777777777eeeeffffuuuueeeeeeee7777222222227777>>>>2222CCCCMMMM7777",
"ffffffffXXXX4444zzzz2222mmmmmmmm77777777>>>>2222uuuueeee7777777777777777eeeeffffuuuueeeeeeee7777222222227777>>>>2222CCCCMMMM7777",
"ffffffffXXXX4444zzzz2222mmmmmmmm77777777>>>>2222uuuueeee7777777777777777eeeeffffuuuueeeeeeee7777222222227777>>>>2222CCCCMMMM7777",
"uuuuuuuu::::mmmmCCCC7777uuuuuuuu77772222====2222eeee777777777777777777777777zzzzeeee>>>>eeee>>>>OOOO====777777777777uuuuuuuu7777",
"uuuuuuuu::::mmmmCCCC7777uuuuuuuu77772222====2222eeee777777777777777777777777zzzzeeee>>>>eeee>>>>OOOO====777777777777uuuuuuuu7777",
"uuuuuuuu::::mmmmCCCC7777uuuuuuuu77772222====2222eeee777777777777777777777777zzzzeeee>>>>eeee>>>>OOOO====777777777777uuuuuuuu7777",
"uuuuuuuu::::mmmmCCCC7777uuuuuuuu77772222====2222eeee777777777777777777777777zzzzeeee>>>>eeee>>>>OOOO====777777777777uuuuuuuu7777",
"7777eeeemmmmZZZZgggg777777777777777722222222bbbbCCCCuuuueeeeeeeeeeeeuuuueeeeuuuu2222====eeee####....>>>>77777777>>>>3333eeee7777",
"7777eeeemmmmZZZZgggg777777777777777722222222bbbbCCCCuuuueeeeeeeeeeeeuuuueeeeuuuu2222====eeee####....>>>>77777777>>>>3333eeee7777",
"7777eeeemmmmZZZZgggg777777777777777722222222bbbbCCCCuuuueeeeeeeeeeeeuuuueeeeuuuu2222====eeee####....>>>>77777777>>>>3333eeee7777",
"7777eeeemmmmZZZZgggg777777777777777722222222bbbbCCCCuuuueeeeeeeeeeeeuuuueeeeuuuu2222====eeee####....>>>>77777777>>>>3333eeee7777",
"7777uuuu99995555tttt77777777ffffffff>>>>>>>>zzzzMMMMuuuueeee2222uuuuAAAAmmmmffffuuuu7777uuuuqqqq222277777777eeee7777ggggzzzz7777",
"7777uuuu99995555tttt77777777ffffffff>>>>>>>>zzzzMMMMuuuueeee2222uuuuAAAAmmmmffffuuuu7777uuuuqqqq222277777777eeee7777ggggzzzz7777",
"7777uuuu99995555tttt77777777ffffffff>>>>>>>>zzzzMMMMuuuueeee2222uuuuAAAAmmmmffffuuuu7777uuuuqqqq222277777777eeee7777ggggzzzz7777",
"7777uuuu99995555tttt77777777ffffffff>>>>>>>>zzzzMMMMuuuueeee2222uuuuAAAAmmmmffffuuuu7777uuuuqqqq222277777777eeee7777ggggzzzz7777",
"7777dddd%%%%1111ffff77777777zzzzzzzzOOOOOOOO7777777777777777####2222bbbbffffffffuuuu7777eeeeffffuuuu7777zzzzMMMMzzzzmmmmffff7777",
"7777dddd%%%%1111ffff77777777zzzzzzzzOOOOOOOO7777777777777777####2222bbbbffffffffuuuu7777eeeeffffuuuu7777zzzzMMMMzzzzmmmmffff7777",
"7777dddd%%%%1111ffff77777777zzzzzzzzOOOOOOOO7777777777777777####2222bbbbffffffffuuuu7777eeeeffffuuuu7777zzzzMMMMzzzzmmmmffff7777",
"7777dddd%%%%1111ffff77777777zzzzzzzzOOOOOOOO7777777777777777####2222bbbbffffffffuuuu7777eeeeffffuuuu7777zzzzMMMMzzzzmmmmffff7777",
"7777ggggxxxxffffuuuu77777777MMMMMMMMOOOOOOOO7777MMMMMMMMeeee777722222222====>>>>777777777777222222227777zzzzmmmmzzzzwwww::::7777",
"7777ggggxxxxffffuuuu77777777MMMMMMMMOOOOOOOO7777MMMMMMMMeeee777722222222====>>>>777777777777222222227777zzzzmmmmzzzzwwww::::7777",
"7777ggggxxxxffffuuuu77777777MMMMMMMMOOOOOOOO7777MMMMMMMMeeee777722222222====>>>>777777777777222222227777zzzzmmmmzzzzwwww::::7777",
"7777ggggxxxxffffuuuu77777777MMMMMMMMOOOOOOOO7777MMMMMMMMeeee777722222222====>>>>777777777777222222227777zzzzmmmmzzzzwwww::::7777",
"7777eeee33333333eeee7777uuuuSSSSCCCC>>>>####>>>>SSSSSSSSeeeezzzzffff7777====####22227777eeee####OOOO7777eeeeeeeeeeeerrrrwwww7777",
"7777eeee33333333eeee7777uuuuSSSSCCCC>>>>####>>>>SSSSSSSSeeeezzzzffff7777====####22227777eeee####OOOO7777eeeeeeeeeeeerrrrwwww7777",
"7777eeee33333333eeee7777uuuuSSSSCCCC>>>>####>>>>SSSSSSSSeeeezzzzffff7777====####22227777eeee####OOOO7777eeeeeeeeeeeerrrrwwww7777",
"7777eeee33333333eeee7777uuuuSSSSCCCC>>>>####>>>>SSSSSSSSeeeezzzzffff7777====####22227777eeee####OOOO7777eeeeeeeeeeeerrrrwwww7777",
"7777uuuu4444@@@@22227777uuuuzzzzffffffff1111::::mmmmMMMMzzzzzzzzuuuuuuuuuuuu>>>>>>>>7777ffff7777====7777mmmmmmmm7777zzzzzzzz7777",
"7777uuuu4444@@@@22227777uuuuzzzzffffffff1111::::mmmmMMMMzzzzzzzzuuuuuuuuuuuu>>>>>>>>7777ffff7777====7777mmmmmmmm7777zzzzzzzz7777",
"7777uuuu4444@@@@22227777uuuuzzzzffffffff1111::::mmmmMMMMzzzzzzzzuuuuuuuuuuuu>>>>>>>>7777ffff7777====7777mmmmmmmm7777zzzzzzzz7777",
"7777uuuu4444@@@@22227777uuuuzzzzffffffff1111::::mmmmMMMMzzzzzzzzuuuuuuuuuuuu>>>>>>>>7777ffff7777====7777mmmmmmmm7777zzzzzzzz7777",
"7777uuuuaaaa%%%%>>>>2222eeeeeeeeeeeeeeee11117777----::::mmmmmmmmuuuuuuuuCCCCzzzz22227777ffffMMMMffff7777zzzzzzzz7777333333337777",
"7777uuuuaaaa%%%%>>>>2222eeeeeeeeeeeeeeee11117777----::::mmmmmmmmuuuuuuuuCCCCzzzz22227777ffffMMMMffff7777zzzzzzzz7777333333337777",
"7777uuuuaaaa%%%%>>>>2222eeeeeeeeeeeeeeee11117777----::::mmmmmmmmuuuuuuuuCCCCzzzz22227777ffffMMMMffff7777zzzzzzzz7777333333337777",
"7777uuuuaaaa%%%%>>>>2222eeeeeeeeeeeeeeee11117777----::::mmmmmmmmuuuuuuuuCCCCzzzz22227777ffffMMMMffff7777zzzzzzzz7777333333337777",
"7777eeeecccchhhh####====uuuueeee7777>>>>>>>>7777OOOOOOOOeeeeffffffffeeeeAAAAGGGGffff77777777uuuuuuuu777777777777ffffZZZZxxxx7777",
"7777eeeecccchhhh####====uuuueeee7777>>>>>>>>7777OOOOOOOOeeeeffffffffeeeeAAAAGGGGffff77777777uuuuuuuu777777777777ffffZZZZxxxx7777",
"7777eeeecccchhhh####====uuuueeee7777>>>>>>>>7777OOOOOOOOeeeeffffffffeeeeAAAAGGGGffff77777777uuuuuuuu777777777777ffffZZZZxxxx7777",
"7777eeeecccchhhh####====uuuueeee7777>>>>>>>>7777OOOOOOOOeeeeffffffffeeeeAAAAGGGGffff77777777uuuuuuuu777777777777ffffZZZZxxxx7777",
"7777ffffMMMMffff====uuuummmm77777777########77777777777777777777eeeeeeeeMMMMGGGGmmmm7777>>>>>>>>7777eeeeeeee7777ffffFFFFCCCC7777",
"7777ffffMMMMffff====uuuummmm77777777########77777777777777777777eeeeeeeeMMMMGGGGmmmm7777>>>>>>>>7777eeeeeeee7777ffffFFFFCCCC7777",
"7777ffffMMMMffff====uuuummmm77777777########77777777777777777777eeeeeeeeMMMMGGGGmmmm7777>>>>>>>>7777eeeeeeee7777ffffFFFFCCCC7777",
"7777ffffMMMMffff====uuuummmm77777777########77777777777777777777eeeeeeeeMMMMGGGGmmmm7777>>>>>>>>7777eeeeeeee7777ffffFFFFCCCC7777",
"7777mmmmmmmm77777777ffffffff77777777XXXXXXXX7777777722222222uuuuuuuu7777uuuummmmCCCCzzzz222222227777eeeeeeee77777777eeeeeeee7777",
"7777mmmmmmmm77777777ffffffff77777777XXXXXXXX7777777722222222uuuuuuuu7777uuuummmmCCCCzzzz222222227777eeeeeeee77777777eeeeeeee7777",
"7777mmmmmmmm77777777ffffffff77777777XXXXXXXX7777777722222222uuuuuuuu7777uuuummmmCCCCzzzz222222227777eeeeeeee77777777eeeeeeee7777",
"7777mmmmmmmm77777777ffffffff77777777XXXXXXXX7777777722222222uuuuuuuu7777uuuummmmCCCCzzzz222222227777eeeeeeee77777777eeeeeeee7777",
"7777uuuuffffeeee7777>>>>>>>>7777eeee77772222777777772222>>>>eeeeuuuu77777777>>>>vvvvCCCC777777777777ffffffff777777777777uuuuuuuu",
"7777uuuuffffeeee7777>>>>>>>>7777eeee77772222777777772222>>>>eeeeuuuu77777777>>>>vvvvCCCC777777777777ffffffff777777777777uuuuuuuu",
"7777uuuuffffeeee7777>>>>>>>>7777eeee77772222777777772222>>>>eeeeuuuu77777777>>>>vvvvCCCC777777777777ffffffff777777777777uuuuuuuu",
"7777uuuuffffeeee7777>>>>>>>>7777eeee77772222777777772222>>>>eeeeuuuu77777777>>>>vvvvCCCC777777777777ffffffff777777777777uuuuuuuu",
"7777OOOO4444CCCCffff2222>>>>2222eeeeuuuueeee>>>>>>>>7777>>>>>>>>777777772222OOOO7777CCCCffff77777777zzzzmmmmeeee77772222eeeeuuuu",
"7777OOOO4444CCCCffff2222>>>>2222eeeeuuuueeee>>>>>>>>7777>>>>>>>>777777772222OOOO7777CCCCffff77777777zzzzmmmmeeee77772222eeeeuuuu",
"7777OOOO4444CCCCffff2222>>>>2222eeeeuuuueeee>>>>>>>>7777>>>>>>>>777777772222OOOO7777CCCCffff77777777zzzzmmmmeeee77772222eeeeuuuu",
"7777OOOO4444CCCCffff2222>>>>2222eeeeuuuueeee>>>>>>>>7777>>>>>>>>777777772222OOOO7777CCCCffff77777777zzzzmmmmeeee77772222eeeeuuuu",
"7777####wwwwGGGGMMMM7777========77777777ffff7777####7777>>>>XXXX====>>>>====>>>>7777mmmmzzzzuuuuuuuussssffffuuuu7777========7777",
"7777####wwwwGGGGMMMM7777========77777777ffff7777####7777>>>>XXXX====>>>>====>>>>7777mmmmzzzzuuuuuuuussssffffuuuu7777========7777",
"7777####wwwwGGGGMMMM7777========77777777ffff7777####7777>>>>XXXX====>>>>====>>>>7777mmmmzzzzuuuuuuuussssffffuuuu7777========7777",
"7777####wwwwGGGGMMMM7777========77777777ffff7777####7777>>>>XXXX====>>>>====>>>>7777mmmmzzzzuuuuuuuussssffffuuuu7777========7777",
"eeee::::iiiiAAAAffff7777XXXX    >>>>7777ffffuuuu>>>>>>>>OOOO....====>>>>>>>>77777777uuuuuuuuuuuuuuuuyyyyeeeeffffuuuu########7777",
"eeee::::iiiiAAAAffff7777XXXX    >>>>7777ffffuuuu>>>>>>>>OOOO....====>>>>>>>>77777777uuuuuuuuuuuuuuuuyyyyeeeeffffuuuu########7777",
"eeee::::iiiiAAAAffff7777XXXX    >>>>7777ffffuuuu>>>>>>>>OOOO....====>>>>>>>>77777777uuuuuuuuuuuuuuuuyyyyeeeeffffuuuu########7777",
"eeee::::iiiiAAAAffff7777XXXX    >>>>7777ffffuuuu>>>>>>>>OOOO....====>>>>>>>>77777777uuuuuuuuuuuuuuuuyyyyeeeeffffuuuu########7777",
"++++oooottttzzzz7777####        OOOO7777222222227777>>>>####>>>>CCCCCCCCeeeezzzzffffzzzzzzzz77777777yyyynnnnmmmmffff****####7777",
"++++oooottttzzzz7777####        OOOO7777222222227777>>>>####>>>>CCCCCCCCeeeezzzzffffzzzzzzzz77777777yyyynnnnmmmmffff****####7777",
"++++oooottttzzzz7777####        OOOO7777222222227777>>>>####>>>>CCCCCCCCeeeezzzzffffzzzzzzzz77777777yyyynnnnmmmmffff****####7777",
"++++oooottttzzzz7777####        OOOO7777222222227777>>>>####>>>>CCCCCCCCeeeezzzzffffzzzzzzzz77777777yyyynnnnmmmmffff****####7777",
"........ffffffff2222....XXXX====XXXX        ####2222777777777777CCCCCCCCeeeeMMMMmmmmzzzzzzzz7777eeeessssnnnnnnnnMMMMzzzz>>>>7777",
"........ffffffff2222....XXXX====XXXX        ####2222777777777777CCCCCCCCeeeeMMMMmmmmzzzzzzzz7777eeeessssnnnnnnnnMMMMzzzz>>>>7777",
"........ffffffff2222....XXXX====XXXX        ####2222777777777777CCCCCCCCeeeeMMMMmmmmzzzzzzzz7777eeeessssnnnnnnnnMMMMzzzz>>>>7777",
"........ffffffff2222....XXXX====XXXX        ####2222777777777777CCCCCCCCeeeeMMMMmmmmzzzzzzzz7777eeeessssnnnnnnnnMMMMzzzz>>>>7777",
"********ffffffff2222====2222eeee====    ####7777222277777777777722222222uuuuzzzzffffzzzzffff7777ffffnnnnyyyyyyyymmmmmmmm77777777",
"********ffffffff2222====2222eeee====    ####7777222277777777777722222222uuuuzzzzffffzzzzffff7777ffffnnnnyyyyyyyymmmmmmmm77777777",
"********ffffffff2222====2222eeee====    ####7777222277777777777722222222uuuuzzzzffffzzzzffff7777ffffnnnnyyyyyyyymmmmmmmm77777777",
"********ffffffff2222====2222eeee====    ####7777222277777777777722222222uuuuzzzzffffzzzzffff7777ffffnnnnyyyyyyyymmmmmmmm77777777",
"3333----eeeeffff77777777zzzzzzzz########ffffffff77777777777777772222====ffffmmmmeeeezzzzffff7777uuuuuuuuyyyyyyyy>>>>>>>>77777777",
"3333----eeeeffff77777777zzzzzzzz########ffffffff77777777777777772222====ffffmmmmeeeezzzzffff7777uuuuuuuuyyyyyyyy>>>>>>>>77777777",
"3333----eeeeffff77777777zzzzzzzz########ffffffff77777777777777772222====ffffmmmmeeeezzzzffff7777uuuuuuuuyyyyyyyy>>>>>>>>77777777",
"3333----eeeeffff77777777zzzzzzzz########ffffffff77777777777777772222====ffffmmmmeeeezzzzffff7777uuuuuuuuyyyyyyyy>>>>>>>>77777777",
"uuuu7777eeeeffff77777777ffffffff########777777777777OOOOOOOO77777777####1111ffff7777zzzzzzzz77777777llllllllyyyyXXXXXXXX77777777",
"uuuu7777eeeeffff77777777ffffffff########777777777777OOOOOOOO77777777####1111ffff7777zzzzzzzz77777777llllllllyyyyXXXXXXXX77777777",
"uuuu7777eeeeffff77777777ffffffff########777777777777OOOOOOOO77777777####1111ffff7777zzzzzzzz77777777llllllllyyyyXXXXXXXX77777777",
"uuuu7777eeeeffff77777777ffffffff########777777777777OOOOOOOO77777777####1111ffff7777zzzzzzzz77777777llllllllyyyyXXXXXXXX77777777",
"ffffuuuueeeeuuuuOOOOOOOO7777777777777777ffffeeee====....XXXX77777777>>>>>>>>7777eeeezzzzmmmmffffffffNNNNllllffff11111111zzzzeeee",
"ffffuuuueeeeuuuuOOOOOOOO7777777777777777ffffeeee====....XXXX77777777>>>>>>>>7777eeeezzzzmmmmffffffffNNNNllllffff11111111zzzzeeee",
"ffffuuuueeeeuuuuOOOOOOOO7777777777777777ffffeeee====....XXXX77777777>>>>>>>>7777eeeezzzzmmmmffffffffNNNNllllffff11111111zzzzeeee",
"ffffuuuueeeeuuuuOOOOOOOO7777777777777777ffffeeee====....XXXX77777777>>>>>>>>7777eeeezzzzmmmmffffffffNNNNllllffff11111111zzzzeeee",
"ffff1111::::uuuuOOOOOOOOeeeeeeee77777777ffff2222OOOO>>>>7777eeeezzzzMMMMmmmmffffeeeeeeeeffffzzzzffffuuuu7777CCCCxxxx8888mmmmuuuu",
"ffff1111::::uuuuOOOOOOOOeeeeeeee77777777ffff2222OOOO>>>>7777eeeezzzzMMMMmmmmffffeeeeeeeeffffzzzzffffuuuu7777CCCCxxxx8888mmmmuuuu",
"ffff1111::::uuuuOOOOOOOOeeeeeeee77777777ffff2222OOOO>>>>7777eeeezzzzMMMMmmmmffffeeeeeeeeffffzzzzffffuuuu7777CCCCxxxx8888mmmmuuuu",
"ffff1111::::uuuuOOOOOOOOeeeeeeee77777777ffff2222OOOO>>>>7777eeeezzzzMMMMmmmmffffeeeeeeeeffffzzzzffffuuuu7777CCCCxxxx8888mmmmuuuu",
"uuuu33338888ffff77777777eeeeeeee77772222777722222222eeeeeeeeuuuuMMMMGGGGAAAAuuuu77777777eeeeeeee777777777777MMMM6666XXXXeeeeeeee",
"uuuu33338888ffff77777777eeeeeeee77772222777722222222eeeeeeeeuuuuMMMMGGGGAAAAuuuu77777777eeeeeeee777777777777MMMM6666XXXXeeeeeeee",
"uuuu33338888ffff77777777eeeeeeee77772222777722222222eeeeeeeeuuuuMMMMGGGGAAAAuuuu77777777eeeeeeee777777777777MMMM6666XXXXeeeeeeee",
"uuuu33338888ffff77777777eeeeeeee77772222777722222222eeeeeeeeuuuuMMMMGGGGAAAAuuuu77777777eeeeeeee777777777777MMMM6666XXXXeeeeeeee",
"zzzzCCCCMMMMuuuu22222222222277772222>>>>7777eeeeeeeeffffuuuueeeeffffMMMMuuuu####>>>>77777777777777770000ccccMMMM3333====77777777",
"zzzzCCCCMMMMuuuu22222222222277772222>>>>7777eeeeeeeeffffuuuueeeeffffMMMMuuuu####>>>>77777777777777770000ccccMMMM3333====77777777",
"zzzzCCCCMMMMuuuu22222222222277772222>>>>7777eeeeeeeeffffuuuueeeeffffMMMMuuuu####>>>>77777777777777770000ccccMMMM3333====77777777",
"zzzzCCCCMMMMuuuu22222222222277772222>>>>7777eeeeeeeeffffuuuueeeeffffMMMMuuuu####>>>>77777777777777770000ccccMMMM3333====77777777",
"ffffCCCCmmmm7777222222222222777722222222777777777777uuuuuuuu7777eeeeeeee2222====OOOO####>>>>>>>>----%%%%BBBBFFFFMMMMffffuuuu7777",
"ffffCCCCmmmm7777222222222222777722222222777777777777uuuuuuuu7777eeeeeeee2222====OOOO####>>>>>>>>----%%%%BBBBFFFFMMMMffffuuuu7777",
"ffffCCCCmmmm7777222222222222777722222222777777777777uuuuuuuu7777eeeeeeee2222====OOOO####>>>>>>>>----%%%%BBBBFFFFMMMMffffuuuu7777",
"ffffCCCCmmmm7777222222222222777722222222777777777777uuuuuuuu7777eeeeeeee2222====OOOO####>>>>>>>>----%%%%BBBBFFFFMMMMffffuuuu7777",
"7777eeeeeeee77777777777777777777777777777777777777777777777777777777777777777777====####>>>>>>>>====>>>>eeeeMMMMMMMMffffuuuu7777",
"7777eeeeeeee77777777777777777777777777777777777777777777777777777777777777777777====####>>>>>>>>====>>>>eeeeMMMMMMMMffffuuuu7777",
"7777eeeeeeee77777777777777777777777777777777777777777777777777777777777777777777====####>>>>>>>>====>>>>eeeeMMMMMMMMffffuuuu7777",
"7777eeeeeeee77777777777777777777777777777777777777777777777777777777777777777777====####>>>>>>>>====>>>>eeeeMMMMMMMMffffuuuu7777"
};
