/* XPM */
static char *floor_new[] = {
/* columns rows colors chars-per-pixel */
"128 128 11 1 ",
"  c #42311B",
". c #43311B",
"X c #44321B",
"o c #4D361B",
"O c #4E371B",
"+ c #8E5B1E",
"@ c #97611F",
"# c #98611F",
"$ c #A2671F",
"% c #A3671F",
"& c #A3681F",
/* pixels */
"................................................................................................................................",
"................................................................................................................................",
"....  ........      ......      ......   .. ...... .... ........ .. ................ ... .. ...... .... .....  .... ...... .....",
"OOOOOOOOOOOOOOOOOOOOOOOOOOOOOOOOOOOOOOOOoOOoOOOOOOoOoOOoOOOOoOoOOOOoOOOOOOoo....OOOOoOoOoOOoOOOOOOoOoOOoOOOOOOoOoOOoOOOOOOoo....",
"@#@@@@@@#@@@@@@@@@@@@@@@@@@@@@@@@@@@@@@@@@@@@@@@@@@@@@@@@@@@@@@@@@@@@@@@@@@+o..o+#@@@@@@@@@@@@@@@@@@@@@@@@@@@@@@@@@@@@@@@@@+o...",
"$$$$$$$$$&&$$&$&$$$$$$$&$&$$$$$$$&&$$&$&$$$$$&$&&$&$$$$$&$$&&$&$$$$$$$$&&$&@O..O#&$&&$&$$$$$$&$&&$&$$$$$&$$&&$&$$$$$&$&$&$&@O...",
"$$$$$$$$$$$$$$$$$$$$$$$$$$$$$$$$$$$$$$$$$$$$$$$$$$$$$$$$$$$$$$$$$$$$$$$$$$$@o  o@&$$$$$$$$$$$$$$$$$$$$$$$$$$$$$$$$$$$$$$$$$@o ..",
"$$$$$$$$$$$$$$$$$$$$$$$$$$$$$$$$$$$$$$$$$$$$$$$$$$$$$$$$$$$$$$$$$$$$$$$$$$$@O..O@$$$$$$$$$$$$$$$$$$$$$$$$$$$$$$$$$$$$$$$$$$@O...",
"$$$$$$$$$$$$$$$$$$$$$$$$$$$$$$$$$$$$$$$$$$$$$$$$$$$$$$$$$$$$$$$$$$$$$$$$$$&@O..O@&$$$$$$$$$$$$$$$$$$$$$$$$$$$$$$$$$$$$$$$$&@O...",
"$$$$$$$$$$$$$$$$$$$$$$$$$$$$$$$$$$$$$$$$$$$$$$$$$$$$$$$$$$$$$$$$$$$$$$$$$$$@O..O@$$$$$$$$$$$$$$$$$$$$$$$$$$$$$$$$$$$$$$$$$$@O...",
"$$$$$$$$$$$$$$$$$$$$$$$$$$$$$$$$$$$$$$$$$$$$$$$$$$$$$$$$$$$$$$$$$$$$$$$$$$$@o .o@&$$$$$$$$$$$$$$$$$$$$$$$$$$$$$$$$$$$$$$$$$@O...",
"$$$$$$$$$$$$$$$$$$$$$$$$$$$$$$$$$$$$$$$$$$$$$$$$$$$$$$$$$$$$$$$$$$$$$$$$$$&@O..O@$$$$$$$$$$$$$$$$$$$$$$$$$$$$$$$$$$$$$$$$$&@O...",
"$$$$$$$$$$$$$$$$$$$$$$$$$$$$$$$$$$$$$$$$$$$$$$$$$$$$$$$$$$$$$$$$$$$$$$$$$$$@O  O@&$$$$$$$$$$$$$$$$$$$$$$$$$$$$$$$$$$$$$$$$$@O ..",
"$$$$$$$$$$$$$$$$$$$$$$$$$$$$$$$$$$$$$$$$$$$$$$$$$$$$$$$$$$$$$$$$$$$$$$$$$$$@O. O@$$$$$$$$$$$$$$$$$$$$$$$$$$$$$$$$$$$$$$$$$$@O...",
"$$$$$$$$$$$$$$$$$$$$$$$$$$$$$$$$$$$$$$$$$$$$$$$$$$$$$$$$$$$$$$$$$$$$$$$$$$$@O  O@&$$$$$$$$$$$$$$$$$$$$$$$$$$$$$$$$$$$$$$$$$@o ..",
"$$$$$$$$$$$$$$$$$$$$$$$$$$$$$$$$$$$$$$$$$$$$$$$$$$$$$$$$$$$$$$$$$$$$$$$$$$$@O  O@$$$$$$$$$$$$$$$$$$$$$$$$$$$$$$$$$$$$$$$$$$@O ..",
"$$$$$$$$$$$$$$$$$$$$$$$$$$$$$$$$$$$$$$$$$$$$$$$$$$$$$$$$$$$$$$$$$$$$$$$$$$&@O..o@$$$$$$$$$$$$$$$$$$$$$$$$$$$$$$$$$$$$$$$$$&@O...",
"$$$$$$$$$$$$$$$$$$$$$$$$$$$$$$$$$$$$$$$$$$$$$$$$$$$$$$$$$$$$$$$$$$$$$$$$$$$@O..O@$$$$$$$$$$$$$$$$$$$$$$$$$$$$$$$$$$$$$$$$$$@O...",
"$$$$$$$$$$$$$$$$$$$$$$$$$$$$$$$$$$$$$$$$$$$$$$$$$$$$$$$$$$$$$$$$$$$$$$$$$$&@O..O@$$$$$$$$$$$$$$$$$$$$$$$$$$$$$$$$$$$$$$$$$$@O...",
"$$$$$$$$$$$$$$$$$$$$$$$$$$$$$$$$$$$$$$$$$$$$$$$$$$$$$$$$$$$$$$$$$$$$$$$$$$$@O..o@$$$$$$$$$$$$$$$$$$$$$$$$$$$$$$$$$$$$$$$$$&@O...",
"$$$$$$$$$$$$$$$$$$$$$$$$$$$$$$$$$$$$$$$$$$$$$$$$$$$$$$$$$$$$$$$$$$$$$$$$$$&@o .O@&$$$$$$$$$$$$$$$$$$$$$$$$$$$$$$$$$$$$$$$$$@O...",
"$$$$$$$$$$$$$$$$$$$$$$$$$$$$$$$$$$$$$$$$$$$$$$$$$$$$$$$$$$$$$$$$$$$$$$$$$$$@O  O@$$$$$$$$$$$$$$$$$$$$$$$$$$$$$$$$$$$$$$$$$&@O...",
"$&&$&$$&$&$$$$$$&$&$&$&$&$&$$&&$&$$$$$$$&$&$&$&$$&&$&$$&$&$$$$$$&$&$$&$$$$$@O..O@&$&&$$&&$$&$$$$&$$&$&&$&$$&$$$$$&$&$&$&$&$@o ..",
"@@@@@@@@@@@@@@@@@@@@@@@@@@@@@@@@@@@@@@@@@@@@@@@@@@@@@@@@@@@@@@@@@@@@@@@@@@@+o..O+#@@@@@@@@@@@@@@@@@@@@@@@@@@@@@@@@@@@@@@@@@+o ..",
"OOOOOOOOOOOOOOOOOOOOOOOOOOOOOOOOoOOoOOOOOoOOOOOOOOOOOOOOoOOOOOOOOOOOoOOOOoOo....OOOOoOOoOoOOoOOoOOoOOoOOOOOoOOoOOoOoOOOOOOoo....",
"..      ..        ........      ... ..  .   ......      ...     .......   ............... .. ..... ... ....... .... ......  ....",
"....    ....    ....  ......    .... ....     ......    ....    ..........  .... .. ......  ........    .... .... .   ...... ...",
"OOOOOOOOOOOOOOOo....oOOOOOOOOOOOOOOOoOoOOoOOOOOOOOOOOOOOOOOOOOOOoOOoOOOOoOOoOOOOoOOoOOOOoOOoOOOOOOoOOOOo....oooOOoOOOoOOOOOOoOOO",
"@@@@@@@@#@@@@#@+o. o+#@@@@@@@@@@@@@@@@@@@@@@@@@@@@@@@@@@@@@@@@@@@@@@@@@@@@@@@@@@@@@@@@@@@@@@@@@@@@@@@@@+o..o+@@@@@@@@@@@@@@@@@@@",
"$&$$$$$$$&&$$$$@O. O#&&$$&$$$$$$&$$&&$$&$$$$$&&$$&$$$$$$$&&$$&$&$$$$$&&$$$$$&$&$$$$$$&$&$$$$&$&$$&$&$$&@O. o#&&$$$$$&$$&&$&$$$$$",
"$$$$$$$$$$$$$$$@O  O@$$$$$$$$$$$$$$$$$$$$$$$$$$$$$$$$$$$$$$$$$$$$$$$$$$$$$$$$$$$$$$$$$$$$$$$$$$$$$$$$$$@O..O@&$$$$$$$$$$$$$$$$$$",
"$$$$$$$$$$$$$$$@O  O@&$$$$$$$$$$$$$$$$$$$$$$$$$$$$$$$$$$$$$$$$$$$$$$$$$$$$$$$$$$$$$$$$$$$$$$$$$$$$$$$$$@O..O@$$$$$$$$$$$$$$$$$$$",
"$$$$$$$$$$$$$$&@O  O@$$$$$$$$$$$$$$$$$$$$$$$$$$$$$$$$$$$$$$$$$$$$$$$$$$$$$$$$$$$$$$$$$$$$$$$$$$$$$$$$$&@O..O@$$$$$$$$$$$$$$$$$$$",
"$$$$$$$$$$$$$$$@O  O@$$$$$$$$$$$$$$$$$$$$$$$$$$$$$$$$$$$$$$$$$$$$$$$$$$$$$$$$$$$$$$$$$$$$$$$$$$$$$$$$$$@o. o@$$$$$$$$$$$$$$$$$$$",
"$$$$$$$$$$$$$$&@O  O@$$$$$$$$$$$$$$$$$$$$$$$$$$$$$$$$$$$$$$$$$$$$$$$$$$$$$$$$$$$$$$$$$$$$$$$$$$$$$$$$$&@O..O@$$$$$$$$$$$$$$$$$$$",
"$$$$$$$$$$$$$$$@O  O@$$$$$$$$$$$$$$$$$$$$$$$$$$$$$$$$$$$$$$$$$$$$$$$$$$$$$$$$$$$$$$$$$$$$$$$$$$$$$$$$$$@o  O@$$$$$$$$$$$$$$$$$$$",
"$$$$$$$$$$$$$$&@O. O@$$$$$$$$$$$$$$$$$$$$$$$$$$$$$$$$$$$$$$$$$$$$$$$$$$$$$$$$$$$$$$$$$$$$$$$$$$$$$$$$$&@O..O@&$$$$$$$$$$$$$$$$$$",
"$$$$$$$$$$$$$$$@O. O@$$$$$$$$$$$$$$$$$$$$$$$$$$$$$$$$$$$$$$$$$$$$$$$$$$$$$$$$$$$$$$$$$$$$$$$$$$$$$$$$$$@o. o@$$$$$$$$$$$$$$$$$$$",
"$$$$$$$$$$$$$$&@O..O@&$$$$$$$$$$$$$$$$$$$$$$$$$$$$$$$$$$$$$$$$$$$$$$$$$$$$$$$$$$$$$$$$$$$$$$$$$$$$$$$$&@O..O@$$$$$$$$$$$$$$$$$$$",
"$$$$$$$$$$$$$$$@O..O@$$$$$$$$$$$$$$$$$$$$$$$$$$$$$$$$$$$$$$$$$$$$$$$$$$$$$$$$$$$$$$$$$$$$$$$$$$$$$$$$$$@O..O@&$$$$$$$$$$$$$$$$$$",
"$$$$$$$$$$$$$$&@O  O@$$$$$$$$$$$$$$$$$$$$$$$$$$$$$$$$$$$$$$$$$$$$$$$$$$$$$$$$$$$$$$$$$$$$$$$$$$$$$$$$$&@O..O@&$$$$$$$$$$$$$$$$$$",
"$$$$$$$$$$$$$$$@O  O@$$$$$$$$$$$$$$$$$$$$$$$$$$$$$$$$$$$$$$$$$$$$$$$$$$$$$$$$$$$$$$$$$$$$$$$$$$$$$$$$$$@O..O@$$$$$$$$$$$$$$$$$$$",
"$$$$$$$$$$$$$$&@O .O@$$$$$$$$$$$$$$$$$$$$$$$$$$$$$$$$$$$$$$$$$$$$$$$$$$$$$$$$$$$$$$$$$$$$$$$$$$$$$$$$$&@o .O@&$$$$$$$$$$$$$$$$$$",
"$$$$$$$$$$$$$$$@O  O@$$$$$$$$$$$$$$$$$$$$$$$$$$$$$$$$$$$$$$$$$$$$$$$$$$$$$$$$$$$$$$$$$$$$$$$$$$$$$$$$$$@O .O@$$$$$$$$$$$$$$$$$$$",
"$$$$$$$$$$$$$$&@O..O@$$$$$$$$$$$$$$$$$$$$$$$$$$$$$$$$$$$$$$$$$$$$$$$$$$$$$$$$$$$$$$$$$$$$$$$$$$$$$$$$$$@O..o@$$$$$$$$$$$$$$$$$$$",
"$$$$$$$$$$$$$$$@o. o@&$$$$$$$$$$$$$$$$$$$$$$$$$$$$$$$$$$$$$$$$$$$$$$$$$$$$$$$$$$$$$$$$$$$$$$$$$$$$$$$$&@o..O@$$$$$$$$$$$$$$$$$$$",
"&$&$&$$&&$&$$&&#O..O#&&$$&$$$$$$$&&$&$$&&$&$$&$$&$$&&$&$$&&$$$$$$&$&&$$&$&&$$&$&$&$&&$$&$&&$$$$$&$&$&$&#O. o@&$&&$$&$&&$$&$&&$$&",
"@@@@@@@@@@@@@@#+o..O+#@@@@@@@@@@@@@@@@@@@@@@@@@@@@@@@@@@@@@@@@@@@@@@@@@@@@@@@@@@@@@@@@@@@@@@@@@@@@@@@@#+o. o+@@@@@@@@@@@@@@@@@@@",
"OOOOOOOOOOOOOOOo....oOOOOOOOOOOOOOOOOOOooOOoOOoOOOOoOoOOOoOoOOOoOOOOoOOoOOoOOoOOoOOoOOOOOoOOoOOoOOOOOOOo....oOOOOOOOoOOoOOoOOoOO",
"...... ...      ......  ..      ..    .. .....  ..  ..........  ........ . .. .. .. ..... .. ...     .................. ..  ....",
".....   ....    .. .    ....    ......  .... .   ... .  .... .   ....... .....  ..........  ....      ..... . ..... .... ... .  ",
"....oOOOOOOOOOOOOOoOOOOOOOOOOOOOOOOOoOOoOOOOoOOOoOoOOOOoOOOOoOOOoOOoOOOOoOoOoOOoOOOO....oOOoOOOOOoOOOOOOOOOOOoOOoOOoOOOOoOoOOOOo",
"...O+@@@@@@@@@@@@@@@@@@@@@@@@@@@@@@@@@@@@@@@@@@@@@@@@@@@@@@@@@@@@@@@@@@@@@@@@@@@@@@+o .o+@@@@@@@@@@@@@@@@@@@@@@@@@@@@@@@@@@@@@@@",
"...O@$$$$&&$$&$&$&$$$$$$$&&$$&$&&$&$$$$$&$$&&$&$$&$$$$$$$&&$$&$&$$$$$&$&&$&$$$$$$$&#o .O@$&$&$&$$$$$&$$&$$$$$&&$$$$$&$&$$&$$$$$$",
"...O@&$$$$$$$$$$$$$$$$$$$$$$$$$$$$$$$$$$$$$$$$$$$$$$$$$$$$$$$$$$$$$$$$$$$$$$$$$$$$$@O..o@$$$$$$$$$$$$$$$$$$$$$$$$$$$$$$$$$$$$$$$",
"...O@$$$$$$$$$$$$$$$$$$$$$$$$$$$$$$$$$$$$$$$$$$$$$$$$$$$$$$$$$$$$$$$$$$$$$$$$$$$$$$@o..O@$$$$$$$$$$$$$$$$$$$$$$$$$$$$$$$$$$$$$$$",
".. O@$$$$$$$$$$$$$$$$$$$$$$$$$$$$$$$$$$$$$$$$$$$$$$$$$$$$$$$$$$$$$$$$$$$$$$$$$$$$$$@O..o@$$$$$$$$$$$$$$$$$$$$$$$$$$$$$$$$$$$$$$$",
".. O@&$$$$$$$$$$$$$$$$$$$$$$$$$$$$$$$$$$$$$$$$$$$$$$$$$$$$$$$$$$$$$$$$$$$$$$$$$$$$&@O..O@&$$$$$$$$$$$$$$$$$$$$$$$$$$$$$$$$$$$$$$",
".. O@$$$$$$$$$$$$$$$$$$$$$$$$$$$$$$$$$$$$$$$$$$$$$$$$$$$$$$$$$$$$$$$$$$$$$$$$$$$$$$@O..O@&$$$$$$$$$$$$$$$$$$$$$$$$$$$$$$$$$$$$$$",
".. O@$$$$$$$$$$$$$$$$$$$$$$$$$$$$$$$$$$$$$$$$$$$$$$$$$$$$$$$$$$$$$$$$$$$$$$$$$$$$$&@O. o@$$$$$$$$$$$$$$$$$$$$$$$$$$$$$$$$$$$$$$$",
".. O@$$$$$$$$$$$$$$$$$$$$$$$$$$$$$$$$$$$$$$$$$$$$$$$$$$$$$$$$$$$$$$$$$$$$$$$$$$$$$$@o..O@$$$$$$$$$$$$$$$$$$$$$$$$$$$$$$$$$$$$$$$",
".. O@$$$$$$$$$$$$$$$$$$$$$$$$$$$$$$$$$$$$$$$$$$$$$$$$$$$$$$$$$$$$$$$$$$$$$$$$$$$$$$@O..O@&$$$$$$$$$$$$$$$$$$$$$$$$$$$$$$$$$$$$$$",
".. O@$$$$$$$$$$$$$$$$$$$$$$$$$$$$$$$$$$$$$$$$$$$$$$$$$$$$$$$$$$$$$$$$$$$$$$$$$$$$$$@O..O@$$$$$$$$$$$$$$$$$$$$$$$$$$$$$$$$$$$$$$$",
".. O@$$$$$$$$$$$$$$$$$$$$$$$$$$$$$$$$$$$$$$$$$$$$$$$$$$$$$$$$$$$$$$$$$$$$$$$$$$$$$$@o..O@&$$$$$$$$$$$$$$$$$$$$$$$$$$$$$$$$$$$$$$",
"...O@$$$$$$$$$$$$$$$$$$$$$$$$$$$$$$$$$$$$$$$$$$$$$$$$$$$$$$$$$$$$$$$$$$$$$$$$$$$$$$@O..o@$$$$$$$$$$$$$$$$$$$$$$$$$$$$$$$$$$$$$$$",
"...O@$$$$$$$$$$$$$$$$$$$$$$$$$$$$$$$$$$$$$$$$$$$$$$$$$$$$$$$$$$$$$$$$$$$$$$$$$$$$$&@O..O@$$$$$$$$$$$$$$$$$$$$$$$$$$$$$$$$$$$$$$$",
"...O@&$$&$&$$$$$$&$&$$$$&$&$$$$$$&$&$$$$&$&$$$$$$&$&$$$$&$&$$$$$&$$&$$$$$&$&&$$&$$$@O. o#&$$$$$$$&$&&$$&$$$$$&$&&$$&$$$$$&$&&$$&",
"...O+#@@@@@@@@@@@@@@@@@@@@@@@@@@@@@@@@@@@@@@@@@@@@@@@@@@@@@@@@@@@@@@@@@@@@@@@@@@@@@+O. o+#@@@@@@@@@@@@@@@@@@@@@@@@@@@@@@@@@@@@@@",
"....ooOoOOOOoOOoOOOOoOOoOOOOoOOoOOOOoOOoOOOOoOOoOOOOoOOoOOOOoOOoOOoOOOoOOoOoOOOOoOOoX...OOoOOOoOOoOoOOOOoOOoOOOOOOoOOOoOOoOoOOOO",
"....  ......... ....  ......... ....  ...... .. ....  ......... .. ... .... ....  ........ ... .... ....  ........   . .. . ....",
" ..... ............ .. ............ .. .............. .............. . .  .. .... ........ . . .  .. .... ..  ...... .... ..... ",
"oOOOOOoOoOOoOOOOoOOoOOoOoOOoOOOOoOOoOOoOoOOoOOOO....oOoOoOOoOOOOOOoOoOoOOoOOoOOoOOOOOOOOOOoOoOoOOoOOoOOoOOoOOoOOOOOOoOoOOoOOoOOo",
"@@@@@@@@@@@@@@@@@@@@@@@@@@@@@@@@@@@@@@@@@@@@@@#+O..o+@@@@@@@@@@@@@@@@@@@@@@@@@@@@@@@@@@@@@@@@@@@@@@@@@@@@@@@@@@@@@@@@@@@@@@@@@@@",
"$$$$$&&$&$$&&$&$$$$$$&&$&$$&&$&$$$$$&$$&&$$&&$&@O..O@$$$$&&$$&&$$&$&$&$&$$$$&$$&&$$&&$&$&$&$&$&$$$$$$&&$&$$&$&&$&$&$&$&$$$$$$&&$",
"$$$$$$$$$$$$$$$$$$$$$$$$$$$$$$$$$$$$$$$$$$$$$$$@O  O@$$$$$$$$$$$$$$$$$$$$$$$$$$$$$$$$$$$$$$$$$$$$$$$$$$$$$$$$$$$$$$$$$$$$$$$$$$$",
"$$$$$$$$$$$$$$$$$$$$$$$$$$$$$$$$$$$$$$$$$$$$$$&@O. o@&$$$$$$$$$$$$$$$$$$$$$$$$$$$$$$$$$$$$$$$$$$$$$$$$$$$$$$$$$$$$$$$$$$$$$$$$$$",
"$$$$$$$$$$$$$$$$$$$$$$$$$$$$$$$$$$$$$$$$$$$$$$$@o..O@$$$$$$$$$$$$$$$$$$$$$$$$$$$$$$$$$$$$$$$$$$$$$$$$$$$$$$$$$$$$$$$$$$$$$$$$$$$",
"$$$$$$$$$$$$$$$$$$$$$$$$$$$$$$$$$$$$$$$$$$$$$$$@O..O@&$$$$$$$$$$$$$$$$$$$$$$$$$$$$$$$$$$$$$$$$$$$$$$$$$$$$$$$$$$$$$$$$$$$$$$$$$$",
"$$$$$$$$$$$$$$$$$$$$$$$$$$$$$$$$$$$$$$$$$$$$$$$@O..O@$$$$$$$$$$$$$$$$$$$$$$$$$$$$$$$$$$$$$$$$$$$$$$$$$$$$$$$$$$$$$$$$$$$$$$$$$$$",
"$$$$$$$$$$$$$$$$$$$$$$$$$$$$$$$$$$$$$$$$$$$$$$$@o..O@&$$$$$$$$$$$$$$$$$$$$$$$$$$$$$$$$$$$$$$$$$$$$$$$$$$$$$$$$$$$$$$$$$$$$$$$$$$",
"$$$$$$$$$$$$$$$$$$$$$$$$$$$$$$$$$$$$$$$$$$$$$$$@O..O@$$$$$$$$$$$$$$$$$$$$$$$$$$$$$$$$$$$$$$$$$$$$$$$$$$$$$$$$$$$$$$$$$$$$$$$$$$$",
"$$$$$$$$$$$$$$$$$$$$$$$$$$$$$$$$$$$$$$$$$$$$$$&@o. o@$$$$$$$$$$$$$$$$$$$$$$$$$$$$$$$$$$$$$$$$$$$$$$$$$$$$$$$$$$$$$$$$$$$$$$$$$$$",
"&$$&$$$$$&$&&$$&$$$$$&$&&$$&$$$$$&&$$$$$$&$&$&&@o..O@&$&&$$&$$$$&$&$$&&$$$$$$&$&$&$&&$$&$$$$$&$&$&&$$$$$$&$&$$$$&$$&$$$$&$&$&$&$",
"@@@@@@@@@@@@@@@@@@@@@@@@@@@@@@@@@@@@@@@@@@@@@@#+o..o+@@@@@@@@@@@@@@@@@@@@@@@@@@@@@@@@@@@@@@@@@@@@@@@@@@@@@@@@@@@@@@@@@@@@@@@@@@@",
"OOoOOOoOOoOoOOOOoOOoOOOOOOoOOOoOOOOOOOoOOoOoOOOO....oOOOOOoOOOoOOoOoOOOOoOOoOoOOOoOoOOOOoOOoOOOOOOOOoOOoOOOOoOOoOOOOOOoOOoOoOOOO",
".. ... .... ....  ........   . ....... .... .............. . . .... ....  ......... ....  ..........  ...... .....     .... ....",
".... . .  .. .... ..  ...... ...........  .. .. .. .  ......   .. . ..... ... ..  .. .... ..  .. .... ..... .......    .. .. ...",
"OOoOoOoOOoOOoOOoOOoOOoOOOOOOoOoo...XoooOOoOOoOOoOOoOOoOOOOoOOOOoOoOOoOOoOOoOOoOOOoOOoOOoOOoOOoOOoOOoOOoOoOOoOOOOOOOOOOOoOoOOoOOo",
"@@@@@@@@@@@@@@@@@@@@@@@@@@@@@@#+o .O+#@@@@@@@@@@@@@@@@@@@@@@@@@@@@@@@@@@@@@@@@@@@@@@@@@@@@@@@@@@@@@@@@@@@@@@@@@@@@@@@@@@@@@@@@@@",
"$&$&$&$&$$$$&$$&$&&$$&$&$&$&$&&@o..O#&$&$$$$&$$&&$$&&$&$&$&$&$&$$$$$&$$&$&&$&$$&$$$$$&&$&$$&$&&$$$$$&$$&&$$&&$&$&$&$&$&$$$$$$&&$",
"$$$$$$$$$$$$$$$$$$$$$$$$$$$$$$&@O..O@&$$$$$$$$$$$$$$$$$$$$$$$$$$$$$$$$$$$$$$$$$$$$$$$$$$$$$$$$$$$$$$$$$$$$$$$$$$$$$$$$$$$$$$$$$$",
"$$$$$$$$$$$$$$$$$$$$$$$$$$$$$$$@o..O@$$$$$$$$$$$$$$$$$$$$$$$$$$$$$$$$$$$$$$$$$$$$$$$$$$$$$$$$$$$$$$$$$$$$$$$$$$$$$$$$$$$$$$$$$$$",
"$$$$$$$$$$$$$$$$$$$$$$$$$$$$$$$@O  o@$$$$$$$$$$$$$$$$$$$$$$$$$$$$$$$$$$$$$$$$$$$$$$$$$$$$$$$$$$$$$$$$$$$$$$$$$$$$$$$$$$$$$$$$$$$",
"$$$$$$$$$$$$$$$$$$$$$$$$$$$$$$$@O..O@&$$$$$$$$$$$$$$$$$$$$$$$$$$$$$$$$$$$$$$$$$$$$$$$$$$$$$$$$$$$$$$$$$$$$$$$$$$$$$$$$$$$$$$$$$$",
"$$$$$$$$$$$$$$$$$$$$$$$$$$$$$$$@o .o@$$$$$$$$$$$$$$$$$$$$$$$$$$$$$$$$$$$$$$$$$$$$$$$$$$$$$$$$$$$$$$$$$$$$$$$$$$$$$$$$$$$$$$$$$$$",
"$$$$$$$$$$$$$$$$$$$$$$$$$$$$$$$@O..O@&$$$$$$$$$$$$$$$$$$$$$$$$$$$$$$$$$$$$$$$$$$$$$$$$$$$$$$$$$$$$$$$$$$$$$$$$$$$$$$$$$$$$$$$$$$",
"$$$$$$$$$$$$$$$$$$$$$$$$$$$$$$&@O..O@$$$$$$$$$$$$$$$$$$$$$$$$$$$$$$$$$$$$$$$$$$$$$$$$$$$$$$$$$$$$$$$$$$$$$$$$$$$$$$$$$$$$$$$$$$$",
"$$$$$$$$$$$$$$$$$$$$$$$$$$$$$$$@o. o@$$$$$$$$$$$$$$$$$$$$$$$$$$$$$$$$$$$$$$$$$$$$$$$$$$$$$$$$$$$$$$$$$$$$$$$$$$$$$$$$$$$$$$$$$$$",
"$$$$$$$$$$$$$$$$$$$$$$$$$$$$$$&@O..O@$$$$$$$$$$$$$$$$$$$$$$$$$$$$$$$$$$$$$$$$$$$$$$$$$$$$$$$$$$$$$$$$$$$$$$$$$$$$$$$$$$$$$$$$$$$",
"$$$$$$$$$$$$$$$$$$$$$$$$$$$$$$$@o  O@$$$$$$$$$$$$$$$$$$$$$$$$$$$$$$$$$$$$$$$$$$$$$$$$$$$$$$$$$$$$$$$$$$$$$$$$$$$$$$$$$$$$$$$$$$$",
"$$$$$$$$$$$$$$$$$$$$$$$$$$$$$$&@O..O@$$$$$$$$$$$$$$$$$$$$$$$$$$$$$$$$$$$$$$$$$$$$$$$$$$$$$$$$$$$$$$$$$$$$$$$$$$$$$$$$$$$$$$$$$$$",
"$$$$$$$$$$$$$$$$$$$$$$$$$$$$$$$@o. o@$$$$$$$$$$$$$$$$$$$$$$$$$$$$$$$$$$$$$$$$$$$$$$$$$$$$$$$$$$$$$$$$$$$$$$$$$$$$$$$$$$$$$$$$$$$",
"&$&$$&&$&$$&$$$$&$&$&$&$&$&$$&&#O..O@&$$$&$&$&$&$&$&&$$&$&&$$$$$&$$&$&&$&$$&$$$$&$$&$&&$&$$&$$$$&$&$$&&$$&&$$$$$$&$&$&$&$&$&&$$&",
"@@@@@@@@@@@@@@@@@@@@@@@@@@@@@@#+o..O+#@@@@@@@@@@@@@@@@@@@@@@@@@@@@@@@@@@@@@@@@@@@@@@@@@@@@@@@@@@@@@@@@@@@@@@@@@@@@@@@@@@@@@@@@@@",
"OOOOoOOoOoOOoOOoOoOoOOOOOOoOOoOo....OOoOOOOOOOOOOOOOoOOoOoOOoOOoOOoOOoOOoOOoOOoOOOoOOoOOoOOoOOoOOOOOOOOoOoOOoOOoOoOoOOOOOOoOOoOO",
".... ..... .... ... ......  .. ....... .     .......... ..........  . .. ..... ...  . .. ..... ........ .... ...... ...... ... .",
"..........  ..... .   ........  ...... .      ..... .... .  ..........  .... . .......  .... . ...........  ..... .   ........  ",
"oOOoOOOOoOOoOOOOOoOOOoOOOOOOoOOoOOOOOOoOOOOOOOOOoOOoOOOOoOOoOOOOOOOOoOOoOOOOoOoOOOOOoOOoOOOOoOoOoOoo....oOOoOOOOOoOOOoOOOOoOoOOo",
"@@@@@@@@@@@@@@@@@@@@@@@@@@@@@@@@@@@@@@@@@@@@@@@@@@@@@@@@@@@@@@@@@@@@@@@@@@@@@@@@@@@@@@@@@@@@@@@@@@#+O..o+@@@@@@@@@@@@@@@@@@@@@@@",
"$$$$&$&$$$$$&$&$$$$$$&&$$&$&$$$$$&&$$&$$$$$$&$$&$$$$&$&$$$$$$&$&&$&$$$$$&$$&&$&$&$&$$$$$&$$&&$&$$$&#O..O@$&$&$&$$$$$&$$&&$&$$$$$",
"$$$$$$$$$$$$$$$$$$$$$$$$$$$$$$$$$$$$$$$$$$$$$$$$$$$$$$$$$$$$$$$$$$$$$$$$$$$$$$$$$$$$$$$$$$$$$$$$$$$@O. O@$$$$$$$$$$$$$$$$$$$$$$$",
"$$$$$$$$$$$$$$$$$$$$$$$$$$$$$$$$$$$$$$$$$$$$$$$$$$$$$$$$$$$$$$$$$$$$$$$$$$$$$$$$$$$$$$$$$$$$$$$$$$$@O. o@$$$$$$$$$$$$$$$$$$$$$$$",
"$$$$$$$$$$$$$$$$$$$$$$$$$$$$$$$$$$$$$$$$$$$$$$$$$$$$$$$$$$$$$$$$$$$$$$$$$$$$$$$$$$$$$$$$$$$$$$$$$$$@o .O@$$$$$$$$$$$$$$$$$$$$$$$",
"$$$$$$$$$$$$$$$$$$$$$$$$$$$$$$$$$$$$$$$$$$$$$$$$$$$$$$$$$$$$$$$$$$$$$$$$$$$$$$$$$$$$$$$$$$$$$$$$$$$@O .O@&$$$$$$$$$$$$$$$$$$$$$$",
"$$$$$$$$$$$$$$$$$$$$$$$$$$$$$$$$$$$$$$$$$$$$$$$$$$$$$$$$$$$$$$$$$$$$$$$$$$$$$$$$$$$$$$$$$$$$$$$$$$$@O..o@&$$$$$$$$$$$$$$$$$$$$$$",
"$$$$$$$$$$$$$$$$$$$$$$$$$$$$$$$$$$$$$$$$$$$$$$$$$$$$$$$$$$$$$$$$$$$$$$$$$$$$$$$$$$$$$$$$$$$$$$$$$$$@o .O@$$$$$$$$$$$$$$$$$$$$$$$",
"$$$$$$$$$$$$$$$$$$$$$$$$$$$$$$$$$$$$$$$$$$$$$$$$$$$$$$$$$$$$$$$$$$$$$$$$$$$$$$$$$$$$$$$$$$$$$$$$$$&@O. O@$$$$$$$$$$$$$$$$$$$$$$$",
"$$$$$$$$$$$$$$$$$$$$$$$$$$$$$$$$$$$$$$$$$$$$$$$$$$$$$$$$$$$$$$$$$$$$$$$$$$$$$$$$$$$$$$$$$$$$$$$$$$$@O. o@&$$$$$$$$$$$$$$$$$$$$$$",
"$$$$$$$$$$$$$$$$$$$$$$$$$$$$$$$$$$$$$$$$$$$$$$$$$$$$$$$$$$$$$$$$$$$$$$$$$$$$$$$$$$$$$$$$$$$$$$$$$$&@O..O@$$$$$$$$$$$$$$$$$$$$$$$",
"$$$$$$$$$$$$$$$$$$$$$$$$$$$$$$$$$$$$$$$$$$$$$$$$$$$$$$$$$$$$$$$$$$$$$$$$$$$$$$$$$$$$$$$$$$$$$$$$$$$@O..O@&$$$$$$$$$$$$$$$$$$$$$$",
"$$$$$$$$$$$$$$$$$$$$$$$$$$$$$$$$$$$$$$$$$$$$$$$$$$$$$$$$$$$$$$$$$$$$$$$$$$$$$$$$$$$$$$$$$$$$$$$$$$$@O..O@$$$$$$$$$$$$$$$$$$$$$$$",
"$$$$$$$$$$$$$$$$$$$$$$$$$$$$$$$$$$$$$$$$$$$$$$$$$$$$$$$$$$$$$$$$$$$$$$$$$$$$$$$$$$$$$$$$$$$$$$$$$$&@O..O@$$$$$$$$$$$$$$$$$$$$$$$",
"&$&$$&&$$$$$&$&$$&$&$$$$$&$&&$$&$$$$$&$&$&$&$$$$&$&$$&&$$$$$&$&$&$$$$$$$$&$&&$$&$$$$$&$&&$&$$$$$&$&#o .O@&$$&$&$$&$&$$$$$&$&&$$&",
"@@@@@@@@@@@@@@@@@@@@@@@@@@@@@@@@@@@@@@@@@@@@@@@@@@@@@@@@@@@@@@@@@@@@@@@@@@@@@@@@@@@@@@@@@@@@@@@@@@#+o .o+@@@@@@@@@@@@@@@@@@@@@@@",
"OoOOOOOOoOOoOoOOOOOOoOOoOoOOOOOOoOOoOoOOOOOOoOOoOoOOOOOOOOOoOoOOOOOOoOOOOoOoOOOOoOOoOoOOOOOOoOOoOOOO....ooOOOoOOOOOOoOOoOoOOOOOO",
". ...... .. . ......  ... ...... ....  ..... .... ......    ........ .. ........ .... ......  . ........ .. . ......  ... ......",
"................................................................................................................................",
"................................................................................................................................"
};
