/* XPM */
static char *_8ec8c00cb3448469f59f1a3632e1ef9lZN0iXtQrXeEF36d[] = {
/* columns rows colors chars-per-pixel */
"128 128 39 1 ",
"  c #43311B",
". c #44321B",
"X c #4E371B",
"o c #9E1F1D",
"O c #B20607",
"+ c #B90707",
"@ c #A61C1B",
"# c #9C2120",
"$ c #E80707",
"% c #EF0507",
"& c #EF0707",
"* c #E50A0A",
"= c #F02207",
"- c #8E5B1E",
"; c #97611F",
": c #98611F",
"> c #A2671F",
", c #A3681F",
"< c #F4D807",
"1 c #F5F307",
"2 c #F5F507",
"3 c #1EB6AA",
"4 c #1BB8AD",
"5 c #0ACCBF",
"6 c #04CEC1",
"7 c #08CFC2",
"8 c #07D1C3",
"9 c #06D1C4",
"0 c #0BD0C3",
"q c #20D3C8",
"w c #23D4C8",
"e c #26D4C9",
"r c #3AD8CE",
"t c #BFF1EE",
"y c #D6F5F4",
"u c #D9F6F4",
"i c #EEF9F9",
"p c #F1FAFA",
"a c #F5FBFB",
/* pixels */
"                                                                                                                                ",
"                                                                                                                                ",
"                                                                                                                                ",
"XXXXXXXXXXXXXXXXXXXXXXXXXXXXXXXXXXXXXXXXXXXXXXXXXXXXXXXXXXXXXXXXXXXXXXXXXXXX    XXXXXXXXXXXXXXXXXXXXXXXXXXXXXXXXXXXXXXXXXXXX    ",
";:;;;;;;:;;;;;;;;;;;;;;;;;;;;;;;;;;;;;;;;;;;;;;;;;;;;;;;;;;;;;;;;;;;;;;;;;;-X  X-:;;;;;;;;;;;;;;;;;;;;;;;;;;;;;;;;;;;;;;;;;-X   ",
">>>>>>>>>,,>>,>,>>>>>>>,>,>>>>>>>,,>>,>,>>>>>,>,,>,>>>>>,>>,,>,>>>>>>>>,,>,;X  X:,>,,>,>>>>>>,>,,>,>>>>>,>>,,>,>>>>>,>,>,>,;X   ",
">>>>>>>>>>>>>>>>>>>>>>>>>>>>>>>>>>>>>>>>>>>>>>>>>>>>>>>>>>>>>>>>>>>>>>>>>>>;X  X;,>>>>>>>>>>>>>>>>>>>>>>>>>>>>>>>>>>>>>>>>>;X   ",
">>>>>>>>>>>>>>>>>>>>>>>>>>>>>>>>>>>>>>>>>>>>>>>>>>>>>>>>>>>>>>>>>>>>>>>>>>>;X  X;>>>>>>>>>>>>>>>>>>>>>>>>>>>>>>>>>>>>>>>>>>;X   ",
">>>>>>>>>>>>>>>>>>>>>>>>>>>>>>>>>>>>>>>>>>>>>>>>>>>>>>>>>>>>>>>>>>>>>>>>>>,;X  X;,>>>>>>>>>>>>>>>>>>>>>>>>>>>>>>>>>>>>>>>>,;X   ",
">>>>>>>>>>>>>>>>>>>>>>>>>>>>>>>>>>>>>>>>>>>>>>>>>>>>>>>>>>>>>>>>>>>>>>>>>>>;X  X;>>>>>>>>>>>>>>>>>>>>>>>>>>>>>>>>>>>>>>>>>>;X   ",
">>>>>>>>>>>>>>>>>>>>>>>>>>>>>>>>>>>>>>>>>>>>>>>>>>>>>>>>>>>>>>>>>>>>>>>>>>>;X  X;,>>>>>>>>>>>>>>>>>>>>>>>>>>>>>>>>>>>>>>>>>;X   ",
">>>>>>>>>>>>>>>>>>>>>>>>>>>>>>>>>>>>>>>>>>>>>>>>>>>>>>>>>>>>>>>>>>>>>>>>>>,;X  X;>>>>>>>>>>>>>>>>>>>>>>>>>>>>>>>>>>>>>>>>>,;X   ",
">>>>>>>>>>>>>>>>>>>>>>>>>>>>>>>>>>>>>>>>>>>>>>>>>>>>>>>>>>>>>>>>>>>>>>>>>>>;X  X;,>>>>>>>>>>>>>>>>>>>>>>>>>>>>>>>>>>>>>>>>>;X   ",
">>>>>>>>>>>>>>>>>>>>>>>>>>>>>>>>>>>>>>>>>>>>>>>>>>>>>>>>>>>>>>>>>>>>>>>>>>>;X  X;>>>>>>>>>>>>>>>>>>>>>>>>>>>>>>>>>>>>>>>>>>;X   ",
">>>>>>>>>>>>>>>>>>>>>>>>>>>>>>>>>>>>>>>>>>>>>>>>>>>>>>>>>>>>>>>>>>>>>>>>>>>;X  X;,>>>>>>>>>>>>>>>>>>>>>>>>>>>>>>>>>>>>>>>>>;X   ",
">>>>>>>>>>>>>>>>>>>>>>>>>>>>>>>>>>>>>>>>>>>>>>>>>>>>>>>>>>>>>>>>>>>>>>>>>>>;X  X;>>>>>>>>>>>>>>>>>>>>>>>>>>>>>>>>>>>>>>>>>>;X   ",
">>>>>>>>>>>>>>>>>>>>>>>>>>>>>>>>>>>>>>>>>>>>>>>>>>>>>>>>>>>>>>>>>>>>>>>>>>,;X  X;>>>>>>>>>>>>>>>>>>>>>>>>>>>>>>>>>>>>>>>>>,;X   ",
">>>>>>>>>>>>>>>>>>>>>>>>>>>>>>>>>>>>>>>>>>>>>>>>>>>>>>>>>>>>>>>>>>>>>>>>>>>;X  X;>>>>>>>>>>>>>>>>>>>>>>>>>>>>>>>>>>>>>>>>>>;X   ",
">>>>>>>>>>>>>>>>>>>>>>>>>>>>>>>>>>>>>>>>>>>>>>>>>>>>>>>>>>>>>>>>>>>>>>>>>>,;X  X;>>>>>>>>>>>>>>>>>>>>>>>>>>>>>>>>>>>>>>>>>>;X   ",
">>>>>>>>>>>>>>>>>>>>>>>>>>>>>>>>>>>>>>>>>>>>>>>>>>>>>>>>>>>>>>>>>>>>>>>>>>>;X  X;>>>>>>>>>>>>>>>>>>>>>>>>>>>>>>>>>>>>>>>>>,;X   ",
">>>>>>>>>>>>>>>>>>>>>>>>>>>>>>>>>>>>>>>>>>>>>>>>>>>>>>>>>>>>>>>>>>>>>>>>>>,;X  X;,>>>>>>>>>>>>>>>>>>>>>>>>>>>>>>>>>>>>>>>>>;X   ",
">>>>>>>>>>>>>>>>>>>>>>>>>>>>>>>>>>>>>>>>>>>>>>>>>>>>>>>>>>>>>>>>>>>>>>>>>>>;X  X;>>>>>>>>>>>>>>>>>>>>>>>>>>>>>>>>>>>>>>>>>,;X   ",
">,,>,>>,>,>>>>>>,>,>,>,>,>,>>,,>,>>>>>>>,>,>,>,>>,,>,>>,>,>>>>>>,>,>>,>>>>>;X  X;,>,,>>,,>>,>>>>,>>,>,,>,>>,>>>>>,>,>,>,>,>;X   ",
";;;;;;;;;;;;;;;;;;;;;;;;;;;;;;;;;;;;;;;;;;;;;;;;;;;;;;;;;;;;;;;;;;;;;;;;;;;-X  X-:;;;;;;;;;;;;;;;;;;;;;;;;;;;;;;;;;;;;;;;;;-X   ",
"XXXXXXXXXXXXXXXXXXXXXXXXXXXXXXXXXXXXXXXXXXXXXXXXXXXXXXXXXXXXXXXXXXXXXXXXXXXX    XXXXXXXXXXXXXXXXXXXXXXXXXXXXXXXXXXXXXXXXXXXX    ",
"                                                                                                                                ",
"                                                              1111                                                              ",
"XXXXXXXXXXXXXXXX    XXXXXXXXXXXXXXXXXXXXXXXXXXXXXXXXXXXXXXXXXX1111XXXXXXXXXXXXXXXXXXXXXXXXXXXXXXXXXXXXXX    XXXXXXXXXXXXXXXXXXXX",
";;;;;;;;:;;;;:;-X  X-:;;;;;;;;;;;;;;;;;;;;;;;;;;;;;;;;;;;;;;;;1111;;;;;;;;;;;;;;;;;;;;;;;;;;;;;;;;;;;;;-X  X-;;;;;;;;;;;;;;;;;;;",
">,>>>>>>>,,>>>>;X  X:,,>>,>>>>>>,>>,,>>,>>>>>,,>>,>>>>>>>,,>>,1111>>>,,>>>>>,>,>>>>>>,>,>>>>,>,>>,>,>>,;X  X:,,>>>>>,>>,,>,>>>>>",
">>>>>>>>>>>>>>>;X  X;>>>>>>>>>>>>>>>>>>>>>>>>>>>>>>>>>>>>>>>>>1111>>>>>>>>>>>>>>>>>>>>>>>>>>>>>>>>>>>>>;X  X;,>>>>>>>>>>>>>>>>>>",
">>>>>>>>>>>>>>>;X  X;,>>>>>>>>>>>>>>>>>>>>>>>>>>>>>>>>>>>>>>>>1111>>>>>>>>>>>>>>>>>>>>>>>>>>>>>>>>>>>>>;X  X;>>>>>>>>>>>>>>>>>>>",
">>>>>>>>>>>>>>,;X  X;>>>>>>>>>>>>>>>>>>>>>>>>>>>>>>>>>>>>>>>>>1111>>>>>>>>>>>>>>>>>>>>>>>>>>>>>>>>>>>>,;X  X;>>>>>>>>>>>>>>>>>>>",
">>>>>>>>>>>>>>>;X  X;>>>>>>>>>>>>>>>>>>>>>>>>>>>>>>>>>>>>>>>>>1111>>>>>>>>>>>>>>>>>>>>>>>>>>>>>>>>>>>>>;X  X;>>>>>>>>>>>>>>>>>>>",
">>>>>>>>>>>>>>,;X  X;>>>>>>>>>>>>>>>>>>>>>>>>>>>>>>>>>>>>>>>>>1111>>>>>>>>>>>>>>>>>>>>>>>>>>>>>>>>>>>>,;X  X;>>>>>>>>>>>>>>>>>>>",
">>>>>>>>>>>>>>>;X  X;>>>>>>>>>>>>>>>>>>>>>>>>>>>>>>>>>>>>>>>>>1111>>>>>>>>>>>>>>>>>>>>>>>>>>>>>>>>>>>>>;X  X;>>>>>>>>>>>>>>>>>>>",
">>>>>>>>>>>>>>,;X  X;>>>>>>>>>>>>>>>>>>>>>>>>>>>>>>>>>>>>>>>>>2222>>>>>>>>>>>>>>>>>>>>>>>>>>>>>>>>>>>>,;X  X;,>>>>>>>>>>>>>>>>>>",
">>>>>>>>>>>>>>>;X  X;>>>>>>>>>>>>>>>>>>>>>>>>>>>>>>>>>>>>>>>>><<<<>>>>>>>>>>>>>>>>>>>>>>>>>>>>>>>>>>>>>;X  X;>>>>>>>>>>>>>>>>>>>",
">>>>>>>>>>>>>>,;X  X;,>>>>>>>>>>>>>>>>>>>>>>>>>>>>>>>>>>>>>>>>====>>>>>>>>>>>>>>>>>>>>>>>>>>>>>>>>>>>>,;X  X;>>>>>>>>>>>>>>>>>>>",
">>>>>>>>>>>>>>>;X  X;>>>>>>>>>>>>>>>>>>>>>>>>>>>>>>>>>>>>>>>>>%%%%>>>>>>>>>>>>>>>>>>>>>>>>>>>>>>>>>>>>>;X  X;,>>>>>>>>>>>>>>>>>>",
">>>>>>>>>>>>>>,;X  X;>>>>>>>>>>>>>>>>>>>>>>>>>>>>>>>>>>>>>>>>>%%%&,,,,>>>>>>>>>>>>>>>>>>>>>>>>>>>>>>>>,;X  X;,>>>>>>>>>>>>>>>>>>",
">>>>>>>>>>>>>>>;X  X;>>>>>>>>>>>>>>>>>>>>>>>>>>>>>>>>>>>>>>>>>%%&%,,,,>>>>>>>>>>>>>>>>>>>>>>>>>>>>>>>>>;X  X;>>>>>>>>>>>>>>>>>>>",
">>>>>>>>>>>>>>,;X  X;>>>>>>>>>>>>>>>>>>>>>>>>>>>>>>>>>>>>>%%%%%%%%%%%%>>>>>>>>>>>>>>>>>>>>>>>>>>>>>>>>,;X  X;,>>>>>>>>>>>>>>>>>>",
">>>>>>>>>>>>>>>;X  X;>>>>>>>>>>>>>>>>>>>>>>>>>>>>>>>>>>>>>%%%%%%%%%%%%>>>>>>>>>>>>>>>>>>>>>>>>>>>>>>>>>;X  X;>>>>>>>>>>>>>>>>>>>",
">>>>>>>>>>>>>>,;X  X;>>>>>>>>>>>>>>>>>>>>>>>>>>>>>>>>>>,,,%%%%%%%%%%%%>>>>>>>>>>>>>>>>>>>>>>>>>>>>>>>>>;X  X;>>>>>>>>>>>>>>>>>>>",
">>>>>>>>>>>>>>>;X  X;,>>>>>>>>>>>>>>>>>>>>>>>>>>>>>>>>,,,,%%%%%%%%%%%%>>>>>>>>>>>>>>>>>>>>>>>>>>>>>>>>,;X  X;>>>>>>>>>>>>>>>>>>>",
",>,>,>>,,>,>>,,:X  X:,,>>,>>>>>>>,,>,>>,,>,>>,>>,>>,,>%%%%%%%%%%%%%%%%%%%%,>>,>,>,>,,>>,>,,>>>>>,>,>,>,:X  X;,>,,>>,>,,>>,>,,>>,",
";;;;;;;;;;;;;;:-X  X-:;;;;;;;;;;;;;;;;;;;;;;;;;;;;;;;;%%%%%%%%%%%%%%%%%%%%;;;;;;;;;;;;;;;;;;;;;;;;;;;;:-X  X-;;;;;;;;;;;;;;;;;;;",
"XXXXXXXXXXXXXXXX    XXXXXXXXXXXXXXXXXXXXXXXXXXXXXXXXXX%%%%%%%%%%%%%%%%%%%%XXXXXXXXXXXXXXXXXXXXXXXXXXXXXX    XXXXXXXXXXXXXXXXXXXX",
"                                                      %%%%%%%%%%%%%%%%%%%&                                                      ",
"                                                  %%%%%%%%%%%%%%%&%%%%%%%%%%%%                                                  ",
"    XXXXXXXXXXXXXXXXXXXXXXXXXXXXXXXXXXXXXXXXXXXXXX%%%%%%%%%%%%%%%%%%%%%%%%%%%%XXXXXX    XXXXXXXXXXXXXXXXXXXXXXXXXXXXXXXXXXXXXXXX",
"   X-;;;;;;;;;;;;;;;;;;;;;;;;;;;;;;;;;;;;;;;;;;;;;%%%%%%%%%%%%%%%%%%%%%%%%%%%%;;;;;-X  X-;;;;;;;;;;;;;;;;;;;;;;;;;;;;;;;;;;;;;;;",
"   X;>>>>,,>>,>,>,>>>>>>>,,>>,>,,>,>>>>>,>>,,>,>>,%%%%%%%%%%%%%&%%%%%%%%%%%%%%,,>>,:X  X;>,>,>,>>>>>,>>,>>>>>,,>>>>>,>,>>,>>>>>>",
"   X;,>>>>>>>>>>>>>>>>>>>>>>>>>>>>>>>>>>>>>>>>>>>>%%%%%%%%%%%%%%%%%%%%%%%%%%%%,,>>>;X  X;>>>>>>>>>>>>>>>>>>>>>>>>>>>>>>>>>>>>>>>",
"   X;>>>>>>>>>>>>>>>>>>>>>>>>>>>>>>>>>>>>>>>>>>>>>%%%%%%%%%%%%%%%%%%%%%%%%%%%%,,>>>;X  X;>>>>>>>>>>>>>>>>>>>>>>>>>>>>>>>>>>>>>>>",
"   X;>>>>>>>>>>>>>>>>>>>>>>>>>>>>>>>>>>>>>>>>>>>,,%%%%%%%&%%%%%%%%%%%%%%%%%%%%>>>>>;X  X;>>>>>>>>>>>>>>>>>>>>>>>>>>>>>>>>>>>>>>>",
"   X;,>>>>>>>>>>>>>>>>>>>>>>>>>>>>>>>>>>>>>>>>>>,,%%%%%%%%%%%%%%%%%%%%%%%%%%%%>>>>,;X  X;,>>>>>>>>>>>>>>>>>>>>>>>>>>>>>>>>>>>>>>",
"   X;>>>>>>>>>>>>>>>>>>>>>>>>>>>>>>>>>>>>>>>>>>>,,%%%%>>,,,,,,%%%%>>,,,,,,%%%%>>>>>;X  X;,>>>>>>>>>>>>>>>>>>>>>>>>>>>>>>>>>>>>>>",
"   X;>>>>>>>>>>>>>>>>>>>>>>>>>>>>>>>>>>>>>>>>>>>>,%%%%>>,,,,,,%%%%>>,,,,,,%%%%>>>>,;X  X;>>>>>>>>>>>>>>>>>>>>>>>>>>>>>>>>>>>>>>>",
"   X;>>>>>>>>>>>>>>>>>>>>>>>>>>>>>>>>>>>>>>>>>>>>>%%%%>>>>>>,,%%%%>>>>>>,>%%%%>>>>>;X  X;>>>>>>>>>>>>>>>>>>>>>>>>>>>>>>>>>>>>>>>",
"   X;>>>>>>>>>>>>>>>>>>>>>>>>>>>>>>>>>>>>>>>>>>>>,%%%%>>>>>>,,*$$*>>>>>>,,%%%%>>>>>;X  X;,>>>>>>>>>>>>>>>>>>>>>>>>>>>>>>>>>>>>>>",
"   X;>>>>>>>>>>>>>>>>>>>>>>>>>>>>>>>>>>>>>pppp>>>>>>>>>>>>7783@++@3977>>>>>>>>>>>>pppp X;>>>>>>>>>>>>>>>>>>>>>>>>>>>>>>>>>>>>>>>",
"   X;>>>>>>>>>>>>>>>>>>>>>>>>>>>>>>>>>>>>>pppp>>>>>>>>>>>>7084oOOo4877>>>>>>>>>>>>pppp X;,>>>>>>>>>>>>>>>>>>>>>>>>>>>>>>>>>>>>>>",
"   X;>>>>>>>>>>>>>>>>>>>>>>>>>>>>>>>>>>>>>pppp>>>>>>>>>>>>7784oOOo4877>>>>>>>>>>>>pppp X;>>>>>>>>>>>>>>>>>>>>>>>>>>>>>>>>>>>>>>>",
"   X;>>>>>>>>>>>>>>>>>>>>>>>>>>>>>>>>>>>>>pppp>>>>>>>>>>>>7784oOOo4877>>>>>>>>>>>>pppp X;>>>>>>>>>>>>>>>>>>>>>>>>>>>>>>>>>>>>>>>",
"   X;,>>,>,>>>>>>,>,>>>>,>,>>>>>>,>,>>pppppppppppp>,>>>>,>7784oOOo4877>>>,>,,>pppppppppppp>>>>>>>,>,,>>,>>>>>,>,,>>,>>>>>,>,,>>,",
"   X-:;;;;;;;;;;;;;;;;;;;;;;;;;;;;;;;;pppppppppppp;;;;;;;;7784oOOo4877;;;;;;;;pppppppppppp;;;;;;;;;;;;;;;;;;;;;;;;;;;;;;;;;;;;;;",
"    XXXXXXXXXXXXXXXXXXXXXXXXXXXXXXXXXXpppppppappppXXXXXXXX7784oOOo4877XXXXXXXXppppappappppXXXXXXXXXXXXXXXXXXXXXXXXXXXXXXXXXXXXXX",
"                                      pppiuyuuippp        7684oOOo4877        pppiuyyuippp                                      ",
"                                      pppurwqruppp    77777794oOOo48777777    pppurwqruapp                                      ",
"XXXXXXXXXXXXXXXXXXXXXXXXXXXXXXXXXXXXXXpppyw66wyapp  XX77777794oOOo48777777XXXXpppyw66wypppXXXXXXXXXXXXXXXXXXXXXXXXXXXXXXXXXXXXXX",
";;;;;;;;;;;;;;;;;;;;;;;;;;;;;;;;;;;;;;ppaye66wyppp X-;77777784oOOo48777777;;;;pppye66wyapp;;;;;;;;;;;;;;;;;;;;;;;;;;;;;;;;;;;;;;",
">>>>>,,>,>>,,>,>>>>>>,,>,>>,,>,>>>>>,>pppuw76wyppi X;>77777784oOOo48777777>>,>ipayw76wyppp,>,>,>>>>>>,,>,>>,>,,>,>,>,>,>>>>>>,,>",
">>>>>>>>>>>>>>>>>>>>>>>>>>>>>>>>>>>>>>pppyw67wyppue67777777784oOOo49777777777euapyw67eyapp>>>>>>>>>>>>>>>>>>>>>>>>>>>>>>>>>>>>>>",
">>>>>>>>>>>>>>>>>>>>>>>>>>>>>>>>>>>>>>ppayw66wyppue67777777784oOOo49777777776eypayw66wyppp>>>>>>>>>>>>>>>>>>>>>>>>>>>>>>>>>>>>>>",
">>>>>>>>>>>>>>>>>>>>>>>>>>>>>>>>>>>>>>ppayw77eypiyw67777777784oOOo48777777776wuapue76eyapp>>>>>>>>>>>>>>>>>>>>>>>>>>>>>>>>>>>>>>",
">>>>>>>>>>>>>>>>>>>>>>>>>>>>>>>>>>>>>>pppyw66qtyyyq77777777784oOOo48777777776qtyutq66wyppp>>>>>>>>>>>>>>>>>>>>>>>>>>>>>>>>>>>>>>",
">>>>>>>>>>>>>>>>>>>>>>>>>>>>>>>>>>>>>>pppuw670qeeq7777>>>>7794oOOo4807>>>>7770qewq076eyppp>>>>>>>>>>>>>>>>>>>>>>>>>>>>>>>>>>>>>>",
">>>>>>>>>>>>>>>>>>>>>>>>>>>>>>>>>>>>>>pppye67766677777>>>>7794oOOo4860>>>>77777666776wyapp>>>>>>>>>>>>>>>>>>>>>>>>>>>>>>>>>>>>>>",
">>>>>>>>>>>>>>>>>>>>>>>>>>>>>>>>>>>>>>ppayw67777777777>>>>7794oOOo4906>>>>77777777776wyapp>>>>>>>>>>>>>>>>>>>>>>>>>>>>>>>>>>>>>>",
">>>>>>>>>>>>>>>>>>>>>>>>>>>>>>>>>>>>>>pppye67777777777>>>>7794oOOo4960>>>>77777777777eyppp>>>>>>>>>>>>>>>>>>>>>>>>>>>>>>>>>>>>>>",
",>>,>>>>>,>,,>>,>>>>>,>,,>>,>>>>>,,>>>pppyw6777777 X;,>,,>7794oOOo4906,>>>>>>,7777776wyapp>>>,>,>,,>>>>>>,>,>>>>,>>,>>>>,>,>,>,>",
";;;;;;;;;;;;;;;;;;;;;;;;;;;;;;;;;;;;;;ppayw7777777 X-;;;;;7794oOOo4806;;;;;;;;7777776wyppp;;;;;;;;;;;;;;;;;;;;;;;;;;;;;;;;;;;;;;",
"XXXXXXXXXXXXXXXXXXXXXXXXXXXXXXXXXXXXXXppayw7777666  XXXXXX7794oOOo4960XXXXXXXX6776776eypppXXXXXXXXXXXXXXXXXXXXXXXXXXXXXXXXXXXXXX",
"                                      pppyw670qewe        7794oOOo4006        wwww076wyapp                                      ",
"                                      ppayw76qyyyy        7794oOOo4877        yyutq67wyapp                                      ",
"XXXXXXXXXXXXXXXXXXXXXXXXXXXXXXXX   .XXpppyw67wyippXXXXXXXX7794oOOo4977XXXXXXXXpaaue66eypppXXXXXXXXXXXXXXXXXXXXXXXXXXXXXXXXXXXXXX",
";;;;;;;;;;;;;;;;;;;;;;;;;;;;;;:-X  X-:pppyw67wyipp;;;;;;;;7784oOOo4877;;;;;;;;pppyw66wyapp;;;;;;;;;;;;;;;;;;;;;;;;;;;;;;;;;;;;;;",
">,>,>,>,>>>>,>>,>,,>>,>,>,>,>,,;X  X:,ppayw76wyipp>,,>,>,>7784#OO#4877>,>,,>,>pppye67wyppp>,>,,>>>>>,>>,,>>,,>,>,>,>,>,>>>>>>,,>",
">>>>>>>>>>>>>>>>>>>>>>>>>>>>>>,;X  X;,ppayw66wyppp>>>>>>>>7775>>>>5777>>>>>>>>ppayw66eyppp>>>>>>>>>>>>>>>>>>>>>>>>>>>>>>>>>>>>>>",
">>>>>>>>>>>>>>>>>>>>>>>>>>>>>>>;X  X;>pppye67wyapp>>>>>>>>7777>>>>7777>>>>>>>>pppyw76wyapp>>>>>>>>>>>>>>>>>>>>>>>>>>>>>>>>>>>>>>",
">>>>>>>>>>>>>>>>>>>>>>>>>>>>>>>;X  X;>ppayq66wyapp>>>>>>>>7777>>>>7777>>>>>>>>ppayw66qyapp>>>>>>>>>>>>>>>>>>>>>>>>>>>>>>>>>>>>>>",
">>>>>>>>>>>>>>>>>>>>>>>>>>>>>>>;X  X;,pppurwqruppp>>>>>>>>7780>>>>7777>>>>>>>>pppurqwruppp>>>>>>>>>>>>>>>>>>>>>>>>>>>>>>>>>>>>>>",
">>>>>>>>>>>>>>>>>>>>>>>>>>>>>>>;X  X;>pppiuyyuippp>>>>>>>>>>>>>>>>>>>>>>>>>>>>pppiuyyuippp>>>>>>>>>>>>>>>>>>>>>>>>>>>>>>>>>>>>>>",
">>>>>>>>>>>>>>>>>>>>>>>>>>>>>>>;X  X;,ppppapappppp>>>>>>>>>>>>>>>>>>>>>>>>>>>>ppppapappppp>>>>>>>>>>>>>>>>>>>>>>>>>>>>>>>>>>>>>>",
">>>>>>>>>>>>>>>>>>>>>>>>>>>>>>,;X  X;>pppppppppppp>>>>>>>>>>>>>>>>>>>>>>>>>>>>pppppppppppp>>>>>>>>>>>>>>>>>>>>>>>>>>>>>>>>>>>>>>",
">>>>>>>>>>>>>>>>>>>>>>>>>>>>>>>;X  X;>pppppppppppp>>>>>>>>>>>>>>>>>>>>>>>>>>>>pppppppppppp>>>>>>>>>>>>>>>>>>>>>>>>>>>>>>>>>>>>>>",
">>>>>>>>>>>>>>>>>>>>>>>>>>>>>>,;X  X;>>>>>>>>>>>>>>>>>>>>>>>>>>>>>>>>>>>>>>>>>>>>>>>>>>>>>>>>>>>>>>>>>>>>>>>>>>>>>>>>>>>>>>>>>>>",
">>>>>>>>>>>>>>>>>>>>>>>>>>>>>>>;X  X;>>>>>>>>>>>>>>>>>>>>>>>>>>>>>>>>>>>>>>>>>>>>>>>>>>>>>>>>>>>>>>>>>>>>>>>>>>>>>>>>>>>>>>>>>>>",
">>>>>>>>>>>>>>>>>>>>>>>>>>>>>>,;X  X;>>>>>>>>>>>>>>>>>>>>>>>>>>>>>>>>>>>>>>>>>>>>>>>>>>>>>>>>>>>>>>>>>>>>>>>>>>>>>>>>>>>>>>>>>>>",
">>>>>>>>>>>>>>>>>>>>>>>>>>>>>>>;X  X;>>>>>>>>>>>>>>>>>>>>>>>>>>>>>>>>>>>>>>>>>>>>>>>>>>>>>>>>>>>>>>>>>>>>>>>>>>>>>>>>>>>>>>>>>>>",
",>,>>,,>,>>,>>>>,>,>,>,>,>,>>,,:X  X;,>>>,>,>,>,>,>,,>>,>,,>>>>>,>>,>,,>,>>,>>>>,>>,>,,>,>>,>>>>,>,>>,,>>,,>>>>>>,>,>,>,>,>,,>>,",
";;;;;;;;;;;;;;;;;;;;;;;;;;;;;;:-X  X-:;;;;;;;;;;;;;;;;;;;;;;;;;;;;;;;;;;;;;;;;;;;;;;;;;;;;;;;;;;;;;;;;;;;;;;;;;;;;;;;;;;;;;;;;;;",
"XXXXXXXXXXXXXXXXXXXXXXXXXXXXXXXX    XXXXXXXXXXXXXXXXXXXXXXXXXXXXXXXXXXXXXXXXXXXXXXXXXXXXXXXXXXXXXXXXXXXXXXXXXXXXXXXXXXXXXXXXXXXX",
"                                                                                                                                ",
"                                                                                                                                ",
"XXXXXXXXXXXXXXXXXXXXXXXXXXXXXXXXXXXXXXXXXXXXXXXXXXXXXXXXXXXXXXXXXXXXXXXXXXXXXXXXXXXXXXXXXXXXXXXXXXXX    XXXXXXXXXXXXXXXXXXXXXXXX",
";;;;;;;;;;;;;;;;;;;;;;;;;;;;;;;;;;;;;;;;;;;;;;;;;;;;;;;;;;;;;;;;;;;;;;;;;;;;;;;;;;;;;;;;;;;;;;;;;;:-X  X-;;;;;;;;;;;;;;;;;;;;;;;",
">>>>,>,>>>>>,>,>>>>>>,,>>,>,>>>>>,,>>,>>>>>>,>>,>>>>,>,>>>>>>,>,,>,>>>>>,>>,,>,>,>,>>>>>,>>,,>,>>>,:X  X;>,>,>,>>>>>,>>,,>,>>>>>",
">>>>>>>>>>>>>>>>>>>>>>>>>>>>>>>>>>>>>>>>>>>>>>>>>>>>>>>>>>>>>>>>>>>>>>>>>>>>>>>>>>>>>>>>>>>>>>>>>>>;X  X;>>>>>>>>>>>>>>>>>>>>>>>",
">>>>>>>>>>>>>>>>>>>>>>>>>>>>>>>>>>>>>>>>>>>>>>>>>>>>>>>>>>>>>>>>>>>>>>>>>>>>>>>>>>>>>>>>>>>>>>>>>>>;X  X;>>>>>>>>>>>>>>>>>>>>>>>",
">>>>>>>>>>>>>>>>>>>>>>>>>>>>>>>>>>>>>>>>>>>>>>>>>>>>>>>>>>>>>>>>>>>>>>>>>>>>>>>>>>>>>>>>>>>>>>>>>>>;X  X;>>>>>>>>>>>>>>>>>>>>>>>",
">>>>>>>>>>>>>>>>>>>>>>>>>>>>>>>>>>>>>>>>>>>>>>>>>>>>>>>>>>>>>>>>>>>>>>>>>>>>>>>>>>>>>>>>>>>>>>>>>>>;X  X;,>>>>>>>>>>>>>>>>>>>>>>",
">>>>>>>>>>>>>>>>>>>>>>>>>>>>>>>>>>>>>>>>>>>>>>>>>>>>>>>>>>>>>>>>>>>>>>>>>>>>>>>>>>>>>>>>>>>>>>>>>>>;X  X;,>>>>>>>>>>>>>>>>>>>>>>",
">>>>>>>>>>>>>>>>>>>>>>>>>>>>>>>>>>>>>>>>>>>>>>>>>>>>>>>>>>>>>>>>>>>>>>>>>>>>>>>>>>>>>>>>>>>>>>>>>>>;X  X;>>>>>>>>>>>>>>>>>>>>>>>",
">>>>>>>>>>>>>>>>>>>>>>>>>>>>>>>>>>>>>>>>>>>>>>>>>>>>>>>>>>>>>>>>>>>>>>>>>>>>>>>>>>>>>>>>>>>>>>>>>>,;X  X;>>>>>>>>>>>>>>>>>>>>>>>",
">>>>>>>>>>>>>>>>>>>>>>>>>>>>>>>>>>>>>>>>>>>>>>>>>>>>>>>>>>>>>>>>>>>>>>>>>>>>>>>>>>>>>>>>>>>>>>>>>>>;X  X;,>>>>>>>>>>>>>>>>>>>>>>",
">>>>>>>>>>>>>>>>>>>>>>>>>>>>>>>>>>>>>>>>>>>>>>>>>>>>>>>>>>>>>>>>>>>>>>>>>>>>>>>>>>>>>>>>>>>>>>>>>>,;X  X;>>>>>>>>>>>>>>>>>>>>>>>",
">>>>>>>>>>>>>>>>>>>>>>>>>>>>>>>>>>>>>>>>>>>>>>>>>>>>>>>>>>>>>>>>>>>>>>>>>>>>>>>>>>>>>>>>>>>>>>>>>>>;X  X;,>>>>>>>>>>>>>>>>>>>>>>",
">>>>>>>>>>>>>>>>>>>>>>>>>>>>>>>>>>>>>>>>>>>>>>>>>>>>>>>>>>>>>>>>>>>>>>>>>>>>>>>>>>>>>>>>>>>>>>>>>>>;X  X;>>>>>>>>>>>>>>>>>>>>>>>",
">>>>>>>>>>>>>>>>>>>>>>>>>>>>>>>>>>>>>>>>>>>>>>>>>>>>>>>>>>>>>>>>>>>>>>>>>>>>>>>>>>>>>>>>>>>>>>>>>>,;X  X;>>>>>>>>>>>>>>>>>>>>>>>",
",>,>>,,>>>>>,>,>>,>,>>>>>,>,,>>,>>>>>,>,>,>,>>>>,>,>>,,>>>>>,>,>,>>>>>>>>,>,,>>,>>>>>,>,,>,>>>>>,>,:X  X;,>>,>,>>,>,>>>>>,>,,>>,",
";;;;;;;;;;;;;;;;;;;;;;;;;;;;;;;;;;;;;;;;;;;;;;;;;;;;;;;;;;;;;;;;;;;;;;;;;;;;;;;;;;;;;;;;;;;;;;;;;;:-X  X-;;;;;;;;;;;;;;;;;;;;;;;",
"XXXXXXXXXXXXXXXXXXXXXXXXXXXXXXXXXXXXXXXXXXXXXXXXXXXXXXXXXXXXXXXXXXXXXXXXXXXXXXXXXXXXXXXXXXXXXXXXXXXX    XXXXXXXXXXXXXXXXXXXXXXXX",
"                                                                                                                                ",
"                                                                                                                                ",
"                                                                                                                                "
};
