/* XPM */
static char *wall_new[] = {
/* columns rows colors chars-per-pixel */
"128 128 18 1 ",
"  c #0D103E",
". c #0E113E",
"X c #0E113F",
"o c #0E1140",
"O c #101347",
"+ c #101348",
"@ c #191B48",
"# c #1D217B",
"$ c #1F2483",
"% c #1F2484",
"& c #20258C",
"* c #21268C",
"= c #21268D",
"- c #292E8D",
"; c #606388",
": c #636590",
"> c #6C6E91",
", c #6C6E92",
/* pixels */
"***********************************************************%+X @;>>:-====%==%============%=========================%====%==%====",
"***********************************************************%+X @;>>:-=========================%====%=====%======================",
"***********************************************************%+  @;>>:-===============%========================%=========%=====%==",
"***********************************************************%+X @;>>:-=======%===%=====================%=========================",
"***********************************************************%+X @;>>:-*=%=================%==%==%================================",
"***********************************************************%+  @;>>:-%===============%===========%======%===%=======%===%=======",
"***********************************************************$+X @;,>:-===%====%===%=====================%========%===============",
"***********************************************************$+X @;,>:-========================================================%==",
"***********************************************************%+oo@;,,:-&===========%============================%=================",
"***********************************************************%oXo@;,,:-&============================%=====%=======================",
"***********************************************************%+X @;,,:-&=====%===%===============%=======================%======%=",
"***********************************************************%+  @;,,:-&================%===%===========%===========%=======%=====",
"***********************************************************%+X @;,,:-&============%=====%===============%==%====%==========%====",
"***********************************************************%+X @;,,:-&%===%===================================%===============%=",
"***********************************************************%+X @;,,:-&========%======%==============%===========================",
"***********************************************************%+X @;,,:-&==================%====%==%===============%====%==========",
"***********************************************************$+X @;,,:-&===============================%==========================",
"***********************************************************%+  @;,,:-%====%====%=================%==================%=========%=",
"***********************************************************%+X @;,,:-=&============%===%=%===============%=======%========%=====",
"***********************************************************$+X @;,,:-=%=====================%===============%==%================",
"***********************************************************%+oo@;,,:-&=====%=================%=======%=========================%",
"***********************************************************%oXo@;,,:-&============%======%========%================%=======%====",
"***********************************************************%+X @;,,:-&================%========================%=======%========",
"***********************************************************%+X @;,,:-&=&===%==%==========================%======================",
"***********************************************************%+X @;,,:-&==&=&========%====%====%========%==========%==============",
"***********************************************************%+X @;,,:-&====%=================================%=======%===%===%===",
"***********************************************************%+  @;,,:-==================%========================================",
"***********************************************************%+X @;,,:-==%======%=========%=======%========%======================",
"***********************************************************%+X @;,,:-%&==============================%================%=====%===",
"***********************************************************%+  @;,,:-&==============%=====%====%==============%=================",
"***********************************************************$+X @;,,:-&======%===%=================================%======%======",
"***********************************************************$+X @;,,:-&&=%=========================%=====%===================%===",
"***********************************************************%+oo@;,,:-&==========================%==%=====%======================",
"***********************************************************%oXo@;,,:-===%======================%========================%===%===",
"***********************************************************%+X @;,,:-&======%===%====%=====%=========%============%=============",
"***********************************************************%+X @;,,:-&========================================%======%==========",
"***********************************************************%+o @;,,:-&=================%==================%=================%===",
"***********************************************************%+o @;,,:-=%=======%=========%=======%===============================",
"***********************************************************%+X @;,,:-======%=================================%===%=======%======",
"**********************************************************=%+X @;,,:-=============%====%====%========%==============%=======%===",
"***********************************************************%+X @;,,:-&======%==%==========================%====%=======%========",
"***********************************************************%+X @;,,:-%&==================%=========================%=======%====",
"**********************************************************=%+X @;,,:-==%===%==========%======%=====%============================",
"**********************************************************=%oX @;,,:-=============%=================%==========%==============%=",
"***********************************************************%+oo@;,,:-&=============%=========================%===%==============",
"***********************************************************%+o @;,,:-&=========%======%=%===%===========%================%======",
"**********************************************************=%+o @;,,:-&============================%==%===============%=========%",
"***********************************************************%oX @;,,:-&=&==%=====================================================",
"***********************************************************%+o @;,,:-&=&======%===============%=======================%=========",
"***********************************************************%+o @;,,:-&=======&======%===%=======%===============%===============",
"***********************************************************%+X @;,,:-===%===========================%==========%===========%===%",
"***********************************************************%+X @;,,:-============%========================%=====================",
"***********************************************************%oX @;,,:-%=%=====%==========%==%============%=======%==%============",
"***********************************************************%+X @;,,:-&&===============%=======%=======%===============%===%=====",
"***********************************************************%+o @;,,:-&&============================%==========================%=",
"%%$%%$%%%%%%%%$$%%%%%%%%%%%%%%$$%%%%%%%%$%%%%%$$%%%%%%%%%%%#+o @;,,:-&====%=====%=======================%====%==================",
"++++OO+O+O++OO+O++++OO+O+O++OO+O++++OO+O+O++O++O++++OO+O+O+OXX @;,,:-&==%==%==================================================%=",
"XXXXXXXXXXXXXXXXoXXXXXXXXXXXXXXXoXXXXXXXXXXXXXXXXXXXXXXXXXXXXX @;,,:-&==========%=====================%=========================",
"XXXXXXXXXXXXXXXXXXXXXXXXXXXXXXXXXXXXXXXXXXXXXXXXXXXXXXXXXXXXXX @;,,:-&=======%========%===========%======%======%====%==========",
"O+OO++++O+OO++++O+OO++++O+OO++++O+OO++++O+OO++++O++O++++OOOOXX @;,,:-&=%================%==%==%=============%===========%=======",
"$$%%%%%%$$%%%%%%$$%%%%%%$$%%%$%%$$%%%%%%$$%%%$%%$$%%%$%%$$%#+X @;,,:-&===========%=====================%=====%=========%=====%==",
"***********************************************************%+XX@;,,:-&==%==========================%=====%======================",
"***********************************************************%+XX@;,,:-&==============%====%======================================",
"***********************************************************%+XX@;,,:-========%================%===================%====%==%=====",
"===%==%=%==============================%=%==%===%==========%+  @;,,:-&==&====%===================%=%=====%======================",
"============%==================%====================%===%==%+o @;,,:-&==========%==========%============================%====%==",
"================%====%====%========%=======================%+  @;,,:-&==%============%========%=====%==============%============",
"==========================================================%$+X @;,,:-==========================================%====%===========",
"=%===========================================%=============%+oo@;,,:-%%=========%===============================================",
"==============%========%%========%========%===========%====%oXo@;,,:-&=======%======%=======%===%=========%=================%===",
"=====%=====%========================%==============%====%==%+X @;,,:-&===============================%===========%==============",
"===================%===%====%==============================%+X @;,,:-&&=%==%============%====================%=======%===%==%===",
"===========%==%=================%==%=======================%+o @;,,:-&====%================%==%============%===%===%==%=========",
"=%==%====================%=================%==%========%===%+o @;,,:-==============%==%===================================%=====",
"===========%==========%=============%============%========%%+o @;,,:-&==============================%==========%================",
"====%=============%==========%=============================%+o @;,,:-&=%=====%=====================%==========================%=",
"===================%========%==============%===========%===%oX @;,,:-&==%==========%=====%=======================%=======%======",
"===============%=======%%=======%==========================%+X @;,,:-&==================================%====%==================",
"=%==%=====%================================%==%====%======%%+o @;,,:-&=============%==%======%=======%===============%==========",
"=====================================%=====================%+o @;,,:-&========%===================%============================%",
"===============%==============%==============%===========%=%+X @;,,:-&=======%=%==%=====%=======================================",
"====================%===%==================================%+X @;,,:-%=&========================%================%====%=========",
"=====%==============================%===%=======%===%======%+  @;,,:-&====%==========%===============%====%====%===========%====",
"==%======%=======%=================%=======================%+  @;,,:-&=&======================%================================%",
"=============%==========%==%===============================%+o @;,,:-&=========%%========%=======================%=%==%=========",
"======================%=======%==============%=======%=====%+o @;,,:-&=%===============================%%=================%=====",
"==========%=======================%==%===========%=========%+oo@;,,:-&=======================%=================================%",
"===%==%=========%=======================%==%=============%=%+oo@;,,:-=====%===========%============%====%===%===================",
"=====%===%=%=======================%======%======%=========%+X @;,,:-&===================%=====================================%",
"==%=============%=====================%====================%+  @;,,:-&===&=&===================%======%=========================",
"============%=========%=================================%==%+X @;,,:-=======%======%=====================%=======%==============",
"========================%==%==%==============%=========%==%%+  @;,,:-=%====%========%=============%==========%=======%===%======",
"====%============%================%=====%=========%========%+oo@;,,:-%=&=====================%=%===%========%==========%=====%==",
"===%====%============================%=====================%oXo@;,,:-&===================%=============%%=======================",
"=============%======%====%=================================%+X @;,,:-&=&=====%===%=====================================%==%=====",
"==============================%===============%======%==%==%+X @;,,:-&====%==========%============================%=============",
"=====%=====%==%===================%==================%=====%+o @;,,:-&====================%====================================%",
"====================%==========%===========================%+o @;,,:-=========================%=%====%=====%==%=================",
"===========%=====%=======%=============%===%====%==========%+X @;,,:-&================%==============================%==========",
"%===========================================%==============%+X @;,,:-&%==%==%=%=%=%===============================%======%======",
"===============================%========================%==%+X @;,,:-&=====================%===============%=================%==",
"=====%============================%=================%======%+  @;,,:-&======================%=======%===========================",
"==========%====%===%=======%==============%==%============%$+X @;,,:-====%====%=%==========================%==%===========%=====",
"%=%====================%============%==%========%==%=======%+  @;,,:-=================%==========%==%==============%==%=========",
"====%============%==%=======================%==============%+oo@;,,:=====================%===========================%===%=%====",
"=========================%==%========%===%==========%======%oXo@;,,:-%======%=====%=================%=====%=======%=============",
"%==========%=====================================%=========%+X @;,,:-============================%==========================%===",
"============%===============%=====%======================%=%+X @;,,:-=%=%=============%========%==============%=================",
"=====================%================%======%=============%+o @;,,:-============%==================================%===========",
"==%===============%=======================%========%=======%+o @;,,:-=========%===========%========================%====%=======",
"=======%=%===============%==%==========================%===%+X @;,,:-%==%==========================%=========================%==",
"=============%===================%=========================%+X @;,,:-==================%=====%=========%=%==%===================",
"==========%==============%=%==================%============%+X @;,,:-&=====================%===%===========%==%====%===%==%=====",
"==============%====%================%====%======%==========%+  @;,,:-&%=========================================================",
"======%===============%=====%========================%==%==%+  @;,,:-&=====%=====%=============%=======================%=====%==",
"%=%==============================%========================%$+X @;,,:-&=========%=====%===========%==%=%=========================",
"===========%============================%==%==%============%+  @;,,:-===============%====================%==============%=======",
"============%=======%===%=============%================%===%+  @;,,:-=====%=====%=======%====%==================%====%==========",
"%============================%==%==========================%+  @;,,:-==========%=================%====%======%==================",
"======%=========%==================================%====%==%+  @;,,:-%========================================================%=",
"=========%======================%========================%=%+oo@;,,:-=%========%===============%========%=======================",
"==%===================================================%====%+oo@;,,:-==&==========%===========================================%=",
"==================%====%=======%======%=======%============%+oo@;,,:-&=================%===%=======%==================%=========",
"======%========%===========%============%=%=======%========%+oo@;,,:-&===%=============================%======%=%=%=======%=====",
"=%========================%======%=================%=======%+ o@;,,:-&=&=====%===========================%=================%====",
"==========%=====%=============%========================%=%=%+oo@;,,:-==============%=====%========%============================%",
"=====================================%==%=================%$+ o+;,,:-==%==%=================%==========%=====%==%===============",
"=======%=====%==%===%=========================%============%+ o@;,,:-===============%=%===============================%========="
};
